<svg width="70" height="70" viewBox="0 0 70 70" fill="none" xmlns="http://www.w3.org/2000/svg">
<rect width="70" height="70" rx="8" fill="#B43717"/>
<path d="M53.75 31.25H16.25C15.5596 31.25 15 31.8096 15 32.5V58.75C15 59.4404 15.5596 60 16.25 60H53.75C54.4404 60 55 59.4404 55 58.75V32.5C55 31.8096 54.4404 31.25 53.75 31.25Z" fill="white"/>
<path d="M30 60V46.25C30 45.5596 30.5596 45 31.25 45H38.75C39.4404 45 40 45.5596 40 46.25V60H30Z" fill="#B43717"/>
<path d="M34.0896 10.9677C34.5831 10.4431 35.4169 10.4431 35.9104 10.9677L56.8338 33.2061C57.5843 34.0038 57.0186 35.3126 55.9234 35.3126H14.0767C12.9813 35.3126 12.4157 34.0038 13.1663 33.2061L34.0896 10.9677Z" fill="#FAB49E"/>
</svg>
