<svg width="195" height="344" viewBox="0 0 195 344" fill="none" xmlns="http://www.w3.org/2000/svg">
<g filter="url(#filter0_d_17_24)">
<path d="M39.8095 78.7561C107.663 100.3 139.286 122.236 193.849 164.188L120.942 202.885C81.9168 173.593 55.5282 158.378 2.04742 132.969L39.8095 78.7561Z" fill="#952908"/>
<path d="M128.419 118.388C158.389 110.807 171.779 103.244 194.41 84.9253V163.814C194.702 165.083 180.389 180.639 163.751 189.425C147.114 198.212 135.34 207.827 121.503 203.072C107.666 198.317 128.419 118.388 128.419 118.388Z" fill="#B43717"/>
<path d="M157.021 89.4117L163.751 84.3643C167.667 88.8292 169.203 91.8206 171.042 97.824V181.2C170.259 183.533 169.748 184.802 168.051 186.621C165.768 188.548 164.51 189.429 162.443 189.425C162.766 188.113 162.845 187.033 162.817 184.565V101.563C161.38 94.9167 159.92 92.697 157.021 89.4117Z" fill="white"/>
<path d="M0.17804 47.9109V41.5549C8.88708 26.1485 21.8137 17.5498 59.2513 1.17551C64.6483 0.206738 67.267 0.345593 71.5894 1.17551L188.427 68.8482C194.018 74.6408 194.036 76.5128 194.409 84.9252C172.996 104.023 162.641 111.866 132.719 120.444L0.17804 47.9109Z" fill="#D8491D"/>
<path d="M29.9016 24.917C37.2253 15.6983 42.4831 12.9656 53.4562 11.4573L174.407 81.1863C161.837 83.854 157.023 87.0854 151.226 95.02L29.9016 24.917Z" fill="#FE5433"/>
<path d="M37.1923 24.5431L44.2961 18.3741L54.5778 14.2614C65.3879 8.04233 71.4466 5.14093 82.2451 3.04492C114.319 4.85764 132.742 18.1352 159.826 75.2042L142.44 85.6729C131.477 72.6947 123.608 28.5408 85.0492 16.8785C63.551 6.78373 45.9785 30.3383 37.1923 24.5431Z" fill="url(#paint0_linear_17_24)"/>
<path d="M30.0886 15.3831L36.4446 11.6443C41.505 11.7966 43.3116 12.1805 44.2961 13.5137L37.0054 17.4395C35.7519 16.2972 34.4408 15.7997 30.0886 15.3831Z" fill="white"/>
<path d="M0.152895 48.5245C0.164072 42.7682 6.40239 39.1827 11.3819 42.0705L125.156 108.053C127.414 109.363 128.826 111.756 128.88 114.366L130.557 195.112C130.681 201.115 124.036 204.808 118.998 201.543C82.8791 178.136 50.6023 157.892 4.08245 133.944C1.57916 132.656 -0.00545284 130.074 1.41005e-05 127.258L0.152895 48.5245Z" fill="#9D2D15"/>
<g filter="url(#filter1_d_17_24)">
<path d="M57.0092 105.151L57.3979 105.956L58.164 106.416L74.4069 116.176L75.1427 116.618L76.001 116.603L86.7823 116.419C86.847 116.418 86.8722 116.432 86.8841 116.439C86.9053 116.451 86.9345 116.477 86.9588 116.519C86.9832 116.561 86.9904 116.599 86.9908 116.623C86.9908 116.637 86.99 116.666 86.9568 116.722L73.8973 138.456L57.1147 142.096L42.9371 133.578L38.712 117.357L51.9334 95.3533C51.9673 95.2962 51.9925 95.2826 52.0049 95.2767C52.026 95.2655 52.0636 95.2543 52.1135 95.2567C52.163 95.2587 52.1998 95.2735 52.2201 95.2862C52.2313 95.2934 52.2553 95.3094 52.2841 95.3693L57.0092 105.151Z" fill="white" stroke="white" stroke-width="5"/>
<path d="M70.2344 126.413L52.7585 115.064L49.2844 120.414L66.7602 131.763L70.2344 126.413Z" fill="#D8491D"/>
<path d="M62.7592 112.939L51.4102 130.415L56.76 133.889L68.1089 116.413L62.7592 112.939Z" fill="#9D2D15"/>
</g>
</g>
<path d="M21.9 325.5L15.33 313.575H13.485V325.5H5.79V293.91H18.705C21.195 293.91 23.31 294.345 25.05 295.215C26.82 296.085 28.14 297.285 29.01 298.815C29.88 300.315 30.315 301.995 30.315 303.855C30.315 305.955 29.715 307.83 28.515 309.48C27.345 311.13 25.605 312.3 23.295 312.99L30.585 325.5H21.9ZM13.485 308.13H18.255C19.665 308.13 20.715 307.785 21.405 307.095C22.125 306.405 22.485 305.43 22.485 304.17C22.485 302.97 22.125 302.025 21.405 301.335C20.715 300.645 19.665 300.3 18.255 300.3H13.485V308.13ZM58.8155 312.54C58.8155 313.26 58.7705 314.01 58.6805 314.79H41.2655C41.3855 316.35 41.8805 317.55 42.7505 318.39C43.6505 319.2 44.7455 319.605 46.0355 319.605C47.9555 319.605 49.2905 318.795 50.0405 317.175H58.2305C57.8105 318.825 57.0455 320.31 55.9355 321.63C54.8555 322.95 53.4905 323.985 51.8405 324.735C50.1905 325.485 48.3455 325.86 46.3055 325.86C43.8455 325.86 41.6555 325.335 39.7355 324.285C37.8155 323.235 36.3155 321.735 35.2355 319.785C34.1555 317.835 33.6155 315.555 33.6155 312.945C33.6155 310.335 34.1405 308.055 35.1905 306.105C36.2705 304.155 37.7705 302.655 39.6905 301.605C41.6105 300.555 43.8155 300.03 46.3055 300.03C48.7355 300.03 50.8955 300.54 52.7855 301.56C54.6755 302.58 56.1455 304.035 57.1955 305.925C58.2755 307.815 58.8155 310.02 58.8155 312.54ZM50.9405 310.515C50.9405 309.195 50.4905 308.145 49.5905 307.365C48.6905 306.585 47.5655 306.195 46.2155 306.195C44.9255 306.195 43.8305 306.57 42.9305 307.32C42.0605 308.07 41.5205 309.135 41.3105 310.515H50.9405ZM61.345 312.9C61.345 310.32 61.825 308.055 62.785 306.105C63.775 304.155 65.11 302.655 66.79 301.605C68.47 300.555 70.345 300.03 72.415 300.03C74.065 300.03 75.565 300.375 76.915 301.065C78.295 301.755 79.375 302.685 80.155 303.855V292.2H87.85V325.5H80.155V321.9C79.435 323.1 78.4 324.06 77.05 324.78C75.73 325.5 74.185 325.86 72.415 325.86C70.345 325.86 68.47 325.335 66.79 324.285C65.11 323.205 63.775 321.69 62.785 319.74C61.825 317.76 61.345 315.48 61.345 312.9ZM80.155 312.945C80.155 311.025 79.615 309.51 78.535 308.4C77.485 307.29 76.195 306.735 74.665 306.735C73.135 306.735 71.83 307.29 70.75 308.4C69.7 309.48 69.175 310.98 69.175 312.9C69.175 314.82 69.7 316.35 70.75 317.49C71.83 318.6 73.135 319.155 74.665 319.155C76.195 319.155 77.485 318.6 78.535 317.49C79.615 316.38 80.155 314.865 80.155 312.945ZM122.078 309.3C123.908 309.69 125.378 310.605 126.488 312.045C127.598 313.455 128.153 315.075 128.153 316.905C128.153 319.545 127.223 321.645 125.363 323.205C123.533 324.735 120.968 325.5 117.668 325.5H102.953V293.91H117.173C120.383 293.91 122.888 294.645 124.688 296.115C126.518 297.585 127.433 299.58 127.433 302.1C127.433 303.96 126.938 305.505 125.948 306.735C124.988 307.965 123.698 308.82 122.078 309.3ZM110.648 306.69H115.688C116.948 306.69 117.908 306.42 118.568 305.88C119.258 305.31 119.603 304.485 119.603 303.405C119.603 302.325 119.258 301.5 118.568 300.93C117.908 300.36 116.948 300.075 115.688 300.075H110.648V306.69ZM116.318 319.29C117.608 319.29 118.598 319.005 119.288 318.435C120.008 317.835 120.368 316.98 120.368 315.87C120.368 314.76 119.993 313.89 119.243 313.26C118.523 312.63 117.518 312.315 116.228 312.315H110.648V319.29H116.318ZM131.086 312.9C131.086 310.32 131.566 308.055 132.526 306.105C133.516 304.155 134.851 302.655 136.531 301.605C138.211 300.555 140.086 300.03 142.156 300.03C143.926 300.03 145.471 300.39 146.791 301.11C148.141 301.83 149.176 302.775 149.896 303.945V300.39H157.591V325.5H149.896V321.945C149.146 323.115 148.096 324.06 146.746 324.78C145.426 325.5 143.881 325.86 142.111 325.86C140.071 325.86 138.211 325.335 136.531 324.285C134.851 323.205 133.516 321.69 132.526 319.74C131.566 317.76 131.086 315.48 131.086 312.9ZM149.896 312.945C149.896 311.025 149.356 309.51 148.276 308.4C147.226 307.29 145.936 306.735 144.406 306.735C142.876 306.735 141.571 307.29 140.491 308.4C139.441 309.48 138.916 310.98 138.916 312.9C138.916 314.82 139.441 316.35 140.491 317.49C141.571 318.6 142.876 319.155 144.406 319.155C145.936 319.155 147.226 318.6 148.276 317.49C149.356 316.38 149.896 314.865 149.896 312.945ZM172.698 300.03C174.468 300.03 176.013 300.39 177.333 301.11C178.683 301.83 179.718 302.775 180.438 303.945V300.39H188.133V325.455C188.133 327.765 187.668 329.85 186.738 331.71C185.838 333.6 184.443 335.1 182.553 336.21C180.693 337.32 178.368 337.875 175.578 337.875C171.858 337.875 168.843 336.99 166.533 335.22C164.223 333.48 162.903 331.11 162.573 328.11H170.178C170.418 329.07 170.988 329.82 171.888 330.36C172.788 330.93 173.898 331.215 175.218 331.215C176.808 331.215 178.068 330.75 178.998 329.82C179.958 328.92 180.438 327.465 180.438 325.455V321.9C179.688 323.07 178.653 324.03 177.333 324.78C176.013 325.5 174.468 325.86 172.698 325.86C170.628 325.86 168.753 325.335 167.073 324.285C165.393 323.205 164.058 321.69 163.068 319.74C162.108 317.76 161.628 315.48 161.628 312.9C161.628 310.32 162.108 308.055 163.068 306.105C164.058 304.155 165.393 302.655 167.073 301.605C168.753 300.555 170.628 300.03 172.698 300.03ZM180.438 312.945C180.438 311.025 179.898 309.51 178.818 308.4C177.768 307.29 176.478 306.735 174.948 306.735C173.418 306.735 172.113 307.29 171.033 308.4C169.983 309.48 169.458 310.98 169.458 312.9C169.458 314.82 169.983 316.35 171.033 317.49C172.113 318.6 173.418 319.155 174.948 319.155C176.478 319.155 177.768 318.6 178.818 317.49C179.898 316.38 180.438 314.865 180.438 312.945Z" fill="#9D2D15"/>
<defs>
<filter id="filter0_d_17_24" x="0" y="0.5" width="194.414" height="218.832" filterUnits="userSpaceOnUse" color-interpolation-filters="sRGB">
<feFlood flood-opacity="0" result="BackgroundImageFix"/>
<feColorMatrix in="SourceAlpha" type="matrix" values="0 0 0 0 0 0 0 0 0 0 0 0 0 0 0 0 0 0 127 0" result="hardAlpha"/>
<feOffset dy="15"/>
<feComposite in2="hardAlpha" operator="out"/>
<feColorMatrix type="matrix" values="0 0 0 0 0 0 0 0 0 0 0 0 0 0 0 0 0 0 0.1 0"/>
<feBlend mode="normal" in2="BackgroundImageFix" result="effect1_dropShadow_17_24"/>
<feBlend mode="normal" in="SourceGraphic" in2="effect1_dropShadow_17_24" result="shape"/>
</filter>
<filter id="filter1_d_17_24" x="36.0279" y="92.7563" width="53.4629" height="55.9932" filterUnits="userSpaceOnUse" color-interpolation-filters="sRGB">
<feFlood flood-opacity="0" result="BackgroundImageFix"/>
<feColorMatrix in="SourceAlpha" type="matrix" values="0 0 0 0 0 0 0 0 0 0 0 0 0 0 0 0 0 0 127 0" result="hardAlpha"/>
<feOffset dy="4"/>
<feComposite in2="hardAlpha" operator="out"/>
<feColorMatrix type="matrix" values="0 0 0 0 0 0 0 0 0 0 0 0 0 0 0 0 0 0 0.25 0"/>
<feBlend mode="normal" in2="BackgroundImageFix" result="effect1_dropShadow_17_24"/>
<feBlend mode="normal" in="SourceGraphic" in2="effect1_dropShadow_17_24" result="shape"/>
</filter>
<linearGradient id="paint0_linear_17_24" x1="19.6199" y1="3.04492" x2="168.051" y2="109.975" gradientUnits="userSpaceOnUse">
<stop stop-color="#952908"/>
<stop offset="0.473958" stop-color="#D8491D"/>
<stop offset="1" stop-color="#952908"/>
</linearGradient>
</defs>
</svg>
