<svg width="35" height="35" viewBox="0 0 35 35" fill="none" xmlns="http://www.w3.org/2000/svg">
<g clip-path="url(#clip0_955_6179)">
<path d="M17.5 21.875C19.9162 21.875 21.875 19.9162 21.875 17.5C21.875 15.0838 19.9162 13.125 17.5 13.125C15.0838 13.125 13.125 15.0838 13.125 17.5C13.125 19.9162 15.0838 21.875 17.5 21.875Z" stroke="white" stroke-width="3" stroke-linecap="round" stroke-linejoin="round"/>
<path d="M28.2917 21.8752C28.0975 22.315 28.0396 22.8029 28.1254 23.276C28.2112 23.7491 28.4367 24.1856 28.7729 24.5293L28.8604 24.6168C29.1316 24.8877 29.3467 25.2094 29.4935 25.5635C29.6403 25.9175 29.7158 26.2971 29.7158 26.6804C29.7158 27.0637 29.6403 27.4432 29.4935 27.7973C29.3467 28.1514 29.1316 28.473 28.8604 28.7439C28.5895 29.0151 28.2679 29.2302 27.9138 29.377C27.5597 29.5238 27.1802 29.5993 26.7969 29.5993C26.4136 29.5993 26.034 29.5238 25.68 29.377C25.3259 29.2302 25.0042 29.0151 24.7333 28.7439L24.6458 28.6564C24.3021 28.3202 23.8656 28.0947 23.3925 28.0089C22.9194 27.9231 22.4315 27.981 21.9917 28.1752C21.5603 28.36 21.1925 28.667 20.9334 29.0582C20.6743 29.4495 20.5352 29.908 20.5333 30.3772V30.6252C20.5333 31.3987 20.226 32.1406 19.6791 32.6876C19.1321 33.2345 18.3902 33.5418 17.6167 33.5418C16.8431 33.5418 16.1013 33.2345 15.5543 32.6876C15.0073 32.1406 14.7 31.3987 14.7 30.6252V30.4939C14.6887 30.0112 14.5325 29.5431 14.2516 29.1504C13.9707 28.7576 13.5782 28.4585 13.125 28.2918C12.6851 28.0977 12.1972 28.0398 11.7241 28.1256C11.2511 28.2113 10.8145 28.4369 10.4708 28.7731L10.3833 28.8606C10.1125 29.1318 9.79078 29.3469 9.4367 29.4937C9.08262 29.6404 8.70309 29.716 8.31979 29.716C7.93649 29.716 7.55696 29.6404 7.20288 29.4937C6.8488 29.3469 6.52713 29.1318 6.25625 28.8606C5.98507 28.5897 5.76994 28.268 5.62316 27.9139C5.47638 27.5599 5.40083 27.1803 5.40083 26.797C5.40083 26.4137 5.47638 26.0342 5.62316 25.6801C5.76994 25.326 5.98507 25.0044 6.25625 24.7335L6.34375 24.646C6.67995 24.3023 6.90548 23.8658 6.99125 23.3927C7.07703 22.9196 7.01912 22.4317 6.825 21.9918C6.64014 21.5605 6.33318 21.1926 5.94193 20.9335C5.55067 20.6744 5.09219 20.5354 4.62292 20.5335H4.375C3.60145 20.5335 2.85958 20.2262 2.3126 19.6792C1.76562 19.1322 1.45833 18.3904 1.45833 17.6168C1.45833 16.8433 1.76562 16.1014 2.3126 15.5544C2.85958 15.0075 3.60145 14.7002 4.375 14.7002H4.50625C4.98895 14.6889 5.45709 14.5326 5.84981 14.2517C6.24253 13.9709 6.54167 13.5783 6.70833 13.1252C6.90246 12.6853 6.96037 12.1974 6.87459 11.7243C6.78881 11.2512 6.56328 10.8147 6.22708 10.471L6.13958 10.3835C5.8684 10.1126 5.65327 9.79094 5.50649 9.43686C5.35971 9.08279 5.28416 8.70325 5.28416 8.31995C5.28416 7.93666 5.35971 7.55712 5.50649 7.20304C5.65327 6.84897 5.8684 6.52729 6.13958 6.25641C6.41046 5.98523 6.73214 5.7701 7.08621 5.62332C7.44029 5.47654 7.81983 5.40099 8.20312 5.40099C8.58642 5.40099 8.96595 5.47654 9.32003 5.62332C9.67411 5.7701 9.99579 5.98523 10.2667 6.25641L10.3542 6.34391C10.6979 6.68011 11.1344 6.90564 11.6075 6.99142C12.0805 7.0772 12.5685 7.01929 13.0083 6.82516H13.125C13.5563 6.6403 13.9242 6.33335 14.1833 5.94209C14.4424 5.55083 14.5815 5.09235 14.5833 4.62308V4.37516C14.5833 3.60161 14.8906 2.85975 15.4376 2.31277C15.9846 1.76579 16.7264 1.4585 17.5 1.4585C18.2735 1.4585 19.0154 1.76579 19.5624 2.31277C20.1094 2.85975 20.4167 3.60161 20.4167 4.37516V4.50641C20.4185 4.97568 20.5576 5.43417 20.8167 5.82542C21.0758 6.21668 21.4437 6.52363 21.875 6.7085C22.3149 6.90262 22.8028 6.96053 23.2759 6.87475C23.7489 6.78897 24.1855 6.56345 24.5292 6.22725L24.6167 6.13975C24.8875 5.86856 25.2092 5.65343 25.5633 5.50666C25.9174 5.35988 26.2969 5.28433 26.6802 5.28433C27.0635 5.28433 27.443 5.35988 27.7971 5.50666C28.1512 5.65343 28.4729 5.86856 28.7437 6.13975C29.0149 6.41063 29.2301 6.7323 29.3768 7.08638C29.5236 7.44046 29.5992 7.81999 29.5992 8.20329C29.5992 8.58658 29.5236 8.96612 29.3768 9.3202C29.2301 9.67427 29.0149 9.99595 28.7437 10.2668L28.6562 10.3543C28.32 10.698 28.0945 11.1346 28.0087 11.6076C27.923 12.0807 27.9809 12.5686 28.175 13.0085V13.1252C28.3599 13.5565 28.6668 13.9244 29.0581 14.1835C29.4493 14.4426 29.9078 14.5816 30.3771 14.5835H30.625C31.3985 14.5835 32.1404 14.8908 32.6874 15.4378C33.2344 15.9847 33.5417 16.7266 33.5417 17.5002C33.5417 18.2737 33.2344 19.0156 32.6874 19.5626C32.1404 20.1095 31.3985 20.4168 30.625 20.4168H30.4937C30.0245 20.4187 29.566 20.5577 29.1747 20.8169C28.7835 21.076 28.4765 21.4438 28.2917 21.8752Z" stroke="white" stroke-width="3" stroke-linecap="round" stroke-linejoin="round"/>
</g>
<defs>
<clipPath id="clip0_955_6179">
<rect width="35" height="35" fill="white"/>
</clipPath>
</defs>
</svg>
