<svg width="35" height="35" viewBox="0 0 35 35" fill="none" xmlns="http://www.w3.org/2000/svg">
<path d="M16.0417 5.8335H5.83332C5.05978 5.8335 4.31791 6.14079 3.77093 6.68777C3.22395 7.23475 2.91666 7.97661 2.91666 8.75016V29.1668C2.91666 29.9404 3.22395 30.6822 3.77093 31.2292C4.31791 31.7762 5.05978 32.0835 5.83332 32.0835H26.25C27.0235 32.0835 27.7654 31.7762 28.3124 31.2292C28.8594 30.6822 29.1667 29.9404 29.1667 29.1668V18.9585" stroke="#FE5433" stroke-width="3" stroke-linecap="round" stroke-linejoin="round"/>
<path d="M26.9792 3.64584C27.5593 3.06568 28.3462 2.73975 29.1667 2.73975C29.9871 2.73975 30.774 3.06568 31.3542 3.64584C31.9343 4.226 32.2602 5.01287 32.2602 5.83334C32.2602 6.65381 31.9343 7.44068 31.3542 8.02084L17.5 21.875L11.6667 23.3333L13.125 17.5L26.9792 3.64584Z" stroke="#FE5433" stroke-width="3" stroke-linecap="round" stroke-linejoin="round"/>
</svg>
