<svg width="426" height="342" viewBox="0 0 426 342" fill="none" xmlns="http://www.w3.org/2000/svg">
<g filter="url(#filter0_d_955_5766)">
<rect x="16" y="16.5811" width="394" height="309" rx="5" fill="white" shape-rendering="crispEdges"/>
<mask id="path-3-inside-1_955_5766" fill="white">
<path d="M48 272.581H78V302.581H48V272.581Z"/>
</mask>
<path d="M48 272.581V271.581H47V272.581H48ZM78 272.581H79V271.581H78V272.581ZM78 302.581V303.581H79V302.581H78ZM48 302.581H47V303.581H48V302.581ZM48 273.581H78V271.581H48V273.581ZM77 272.581V302.581H79V272.581H77ZM78 301.581H48V303.581H78V301.581ZM49 302.581V272.581H47V302.581H49Z" fill="#F7F7F7" mask="url(#path-3-inside-1_955_5766)"/>
<mask id="path-5-inside-2_955_5766" fill="white">
<path d="M78 272.581H108V302.581H78V272.581Z"/>
</mask>
<path d="M108 272.581H109V271.581H108V272.581ZM108 302.581V303.581H109V302.581H108ZM78 273.581H108V271.581H78V273.581ZM107 272.581V302.581H109V272.581H107ZM108 301.581H78V303.581H108V301.581Z" fill="#F7F7F7" mask="url(#path-5-inside-2_955_5766)"/>
<mask id="path-7-inside-3_955_5766" fill="white">
<path d="M108 272.581H138V302.581H108V272.581Z"/>
</mask>
<path d="M138 272.581H139V271.581H138V272.581ZM138 302.581V303.581H139V302.581H138ZM108 273.581H138V271.581H108V273.581ZM137 272.581V302.581H139V272.581H137ZM138 301.581H108V303.581H138V301.581Z" fill="#F7F7F7" mask="url(#path-7-inside-3_955_5766)"/>
<mask id="path-9-inside-4_955_5766" fill="white">
<path d="M138 272.581H168V302.581H138V272.581Z"/>
</mask>
<path d="M168 272.581H169V271.581H168V272.581ZM168 302.581V303.581H169V302.581H168ZM138 273.581H168V271.581H138V273.581ZM167 272.581V302.581H169V272.581H167ZM168 301.581H138V303.581H168V301.581Z" fill="#F7F7F7" mask="url(#path-9-inside-4_955_5766)"/>
<mask id="path-11-inside-5_955_5766" fill="white">
<path d="M168 272.581H198V302.581H168V272.581Z"/>
</mask>
<path d="M198 272.581H199V271.581H198V272.581ZM198 302.581V303.581H199V302.581H198ZM168 273.581H198V271.581H168V273.581ZM197 272.581V302.581H199V272.581H197ZM198 301.581H168V303.581H198V301.581Z" fill="#F7F7F7" mask="url(#path-11-inside-5_955_5766)"/>
<mask id="path-13-inside-6_955_5766" fill="white">
<path d="M198 272.581H228V302.581H198V272.581Z"/>
</mask>
<path d="M228 272.581H229V271.581H228V272.581ZM228 302.581V303.581H229V302.581H228ZM198 273.581H228V271.581H198V273.581ZM227 272.581V302.581H229V272.581H227ZM228 301.581H198V303.581H228V301.581Z" fill="#F7F7F7" mask="url(#path-13-inside-6_955_5766)"/>
<mask id="path-15-inside-7_955_5766" fill="white">
<path d="M228 272.581H258V302.581H228V272.581Z"/>
</mask>
<path d="M258 272.581H259V271.581H258V272.581ZM258 302.581V303.581H259V302.581H258ZM228 273.581H258V271.581H228V273.581ZM257 272.581V302.581H259V272.581H257ZM258 301.581H228V303.581H258V301.581Z" fill="#F7F7F7" mask="url(#path-15-inside-7_955_5766)"/>
<mask id="path-17-inside-8_955_5766" fill="white">
<path d="M258 272.581H288V302.581H258V272.581Z"/>
</mask>
<path d="M288 272.581H289V271.581H288V272.581ZM288 302.581V303.581H289V302.581H288ZM258 273.581H288V271.581H258V273.581ZM287 272.581V302.581H289V272.581H287ZM288 301.581H258V303.581H288V301.581Z" fill="#F7F7F7" mask="url(#path-17-inside-8_955_5766)"/>
<mask id="path-19-inside-9_955_5766" fill="white">
<path d="M288 272.581H318V302.581H288V272.581Z"/>
</mask>
<path d="M318 272.581H319V271.581H318V272.581ZM318 302.581V303.581H319V302.581H318ZM288 273.581H318V271.581H288V273.581ZM317 272.581V302.581H319V272.581H317ZM318 301.581H288V303.581H318V301.581Z" fill="#F7F7F7" mask="url(#path-19-inside-9_955_5766)"/>
<mask id="path-21-inside-10_955_5766" fill="white">
<path d="M318 272.581H348V302.581H318V272.581Z"/>
</mask>
<path d="M348 272.581H349V271.581H348V272.581ZM348 302.581V303.581H349V302.581H348ZM318 273.581H348V271.581H318V273.581ZM347 272.581V302.581H349V272.581H347ZM348 301.581H318V303.581H348V301.581Z" fill="#F7F7F7" mask="url(#path-21-inside-10_955_5766)"/>
<mask id="path-23-inside-11_955_5766" fill="white">
<path d="M348 272.581H378V302.581H348V272.581Z"/>
</mask>
<path d="M378 272.581H379V271.581H378V272.581ZM378 302.581V303.581H379V302.581H378ZM348 273.581H378V271.581H348V273.581ZM377 272.581V302.581H379V272.581H377ZM378 301.581H348V303.581H378V301.581Z" fill="#F7F7F7" mask="url(#path-23-inside-11_955_5766)"/>
<mask id="path-25-inside-12_955_5766" fill="white">
<path d="M48 243.581H78V273.581H48V243.581Z"/>
</mask>
<path d="M48 243.581V242.581H47V243.581H48ZM78 243.581H79V242.581H78V243.581ZM78 273.581V274.581H79V273.581H78ZM48 273.581H47V274.581H48V273.581ZM48 244.581H78V242.581H48V244.581ZM77 243.581V273.581H79V243.581H77ZM78 272.581H48V274.581H78V272.581ZM49 273.581V243.581H47V273.581H49Z" fill="#F7F7F7" mask="url(#path-25-inside-12_955_5766)"/>
<mask id="path-27-inside-13_955_5766" fill="white">
<path d="M78 243.581H108V273.581H78V243.581Z"/>
</mask>
<path d="M108 243.581H109V242.581H108V243.581ZM108 273.581V274.581H109V273.581H108ZM78 244.581H108V242.581H78V244.581ZM107 243.581V273.581H109V243.581H107ZM108 272.581H78V274.581H108V272.581Z" fill="#F7F7F7" mask="url(#path-27-inside-13_955_5766)"/>
<mask id="path-29-inside-14_955_5766" fill="white">
<path d="M108 243.581H138V273.581H108V243.581Z"/>
</mask>
<path d="M138 243.581H139V242.581H138V243.581ZM138 273.581V274.581H139V273.581H138ZM108 244.581H138V242.581H108V244.581ZM137 243.581V273.581H139V243.581H137ZM138 272.581H108V274.581H138V272.581Z" fill="#F7F7F7" mask="url(#path-29-inside-14_955_5766)"/>
<mask id="path-31-inside-15_955_5766" fill="white">
<path d="M138 243.581H168V273.581H138V243.581Z"/>
</mask>
<path d="M168 243.581H169V242.581H168V243.581ZM168 273.581V274.581H169V273.581H168ZM138 244.581H168V242.581H138V244.581ZM167 243.581V273.581H169V243.581H167ZM168 272.581H138V274.581H168V272.581Z" fill="#F7F7F7" mask="url(#path-31-inside-15_955_5766)"/>
<mask id="path-33-inside-16_955_5766" fill="white">
<path d="M168 243.581H198V273.581H168V243.581Z"/>
</mask>
<path d="M198 243.581H199V242.581H198V243.581ZM198 273.581V274.581H199V273.581H198ZM168 244.581H198V242.581H168V244.581ZM197 243.581V273.581H199V243.581H197ZM198 272.581H168V274.581H198V272.581Z" fill="#F7F7F7" mask="url(#path-33-inside-16_955_5766)"/>
<mask id="path-35-inside-17_955_5766" fill="white">
<path d="M198 243.581H228V273.581H198V243.581Z"/>
</mask>
<path d="M228 243.581H229V242.581H228V243.581ZM228 273.581V274.581H229V273.581H228ZM198 244.581H228V242.581H198V244.581ZM227 243.581V273.581H229V243.581H227ZM228 272.581H198V274.581H228V272.581Z" fill="#F7F7F7" mask="url(#path-35-inside-17_955_5766)"/>
<mask id="path-37-inside-18_955_5766" fill="white">
<path d="M228 243.581H258V273.581H228V243.581Z"/>
</mask>
<path d="M258 243.581H259V242.581H258V243.581ZM258 273.581V274.581H259V273.581H258ZM228 244.581H258V242.581H228V244.581ZM257 243.581V273.581H259V243.581H257ZM258 272.581H228V274.581H258V272.581Z" fill="#F7F7F7" mask="url(#path-37-inside-18_955_5766)"/>
<mask id="path-39-inside-19_955_5766" fill="white">
<path d="M258 243.581H288V273.581H258V243.581Z"/>
</mask>
<path d="M288 243.581H289V242.581H288V243.581ZM288 273.581V274.581H289V273.581H288ZM258 244.581H288V242.581H258V244.581ZM287 243.581V273.581H289V243.581H287ZM288 272.581H258V274.581H288V272.581Z" fill="#F7F7F7" mask="url(#path-39-inside-19_955_5766)"/>
<mask id="path-41-inside-20_955_5766" fill="white">
<path d="M288 243.581H318V273.581H288V243.581Z"/>
</mask>
<path d="M318 243.581H319V242.581H318V243.581ZM318 273.581V274.581H319V273.581H318ZM288 244.581H318V242.581H288V244.581ZM317 243.581V273.581H319V243.581H317ZM318 272.581H288V274.581H318V272.581Z" fill="#F7F7F7" mask="url(#path-41-inside-20_955_5766)"/>
<mask id="path-43-inside-21_955_5766" fill="white">
<path d="M318 243.581H348V273.581H318V243.581Z"/>
</mask>
<path d="M348 243.581H349V242.581H348V243.581ZM348 273.581V274.581H349V273.581H348ZM318 244.581H348V242.581H318V244.581ZM347 243.581V273.581H349V243.581H347ZM348 272.581H318V274.581H348V272.581Z" fill="#F7F7F7" mask="url(#path-43-inside-21_955_5766)"/>
<mask id="path-45-inside-22_955_5766" fill="white">
<path d="M348 243.581H378V273.581H348V243.581Z"/>
</mask>
<path d="M378 243.581H379V242.581H378V243.581ZM378 273.581V274.581H379V273.581H378ZM348 244.581H378V242.581H348V244.581ZM377 243.581V273.581H379V243.581H377ZM378 272.581H348V274.581H378V272.581Z" fill="#F7F7F7" mask="url(#path-45-inside-22_955_5766)"/>
<mask id="path-47-inside-23_955_5766" fill="white">
<path d="M48 214.581H78V244.581H48V214.581Z"/>
</mask>
<path d="M48 214.581V213.581H47V214.581H48ZM78 214.581H79V213.581H78V214.581ZM78 244.581V245.581H79V244.581H78ZM48 244.581H47V245.581H48V244.581ZM48 215.581H78V213.581H48V215.581ZM77 214.581V244.581H79V214.581H77ZM78 243.581H48V245.581H78V243.581ZM49 244.581V214.581H47V244.581H49Z" fill="#F7F7F7" mask="url(#path-47-inside-23_955_5766)"/>
<mask id="path-49-inside-24_955_5766" fill="white">
<path d="M78 214.581H108V244.581H78V214.581Z"/>
</mask>
<path d="M108 214.581H109V213.581H108V214.581ZM108 244.581V245.581H109V244.581H108ZM78 215.581H108V213.581H78V215.581ZM107 214.581V244.581H109V214.581H107ZM108 243.581H78V245.581H108V243.581Z" fill="#F7F7F7" mask="url(#path-49-inside-24_955_5766)"/>
<mask id="path-51-inside-25_955_5766" fill="white">
<path d="M108 214.581H138V244.581H108V214.581Z"/>
</mask>
<path d="M138 214.581H139V213.581H138V214.581ZM138 244.581V245.581H139V244.581H138ZM108 215.581H138V213.581H108V215.581ZM137 214.581V244.581H139V214.581H137ZM138 243.581H108V245.581H138V243.581Z" fill="#F7F7F7" mask="url(#path-51-inside-25_955_5766)"/>
<mask id="path-53-inside-26_955_5766" fill="white">
<path d="M138 214.581H168V244.581H138V214.581Z"/>
</mask>
<path d="M168 214.581H169V213.581H168V214.581ZM168 244.581V245.581H169V244.581H168ZM138 215.581H168V213.581H138V215.581ZM167 214.581V244.581H169V214.581H167ZM168 243.581H138V245.581H168V243.581Z" fill="#F7F7F7" mask="url(#path-53-inside-26_955_5766)"/>
<mask id="path-55-inside-27_955_5766" fill="white">
<path d="M168 214.581H198V244.581H168V214.581Z"/>
</mask>
<path d="M198 214.581H199V213.581H198V214.581ZM198 244.581V245.581H199V244.581H198ZM168 215.581H198V213.581H168V215.581ZM197 214.581V244.581H199V214.581H197ZM198 243.581H168V245.581H198V243.581Z" fill="#F7F7F7" mask="url(#path-55-inside-27_955_5766)"/>
<mask id="path-57-inside-28_955_5766" fill="white">
<path d="M198 214.581H228V244.581H198V214.581Z"/>
</mask>
<path d="M228 214.581H229V213.581H228V214.581ZM228 244.581V245.581H229V244.581H228ZM198 215.581H228V213.581H198V215.581ZM227 214.581V244.581H229V214.581H227ZM228 243.581H198V245.581H228V243.581Z" fill="#F7F7F7" mask="url(#path-57-inside-28_955_5766)"/>
<mask id="path-59-inside-29_955_5766" fill="white">
<path d="M228 214.581H258V244.581H228V214.581Z"/>
</mask>
<path d="M258 214.581H259V213.581H258V214.581ZM258 244.581V245.581H259V244.581H258ZM228 215.581H258V213.581H228V215.581ZM257 214.581V244.581H259V214.581H257ZM258 243.581H228V245.581H258V243.581Z" fill="#F7F7F7" mask="url(#path-59-inside-29_955_5766)"/>
<mask id="path-61-inside-30_955_5766" fill="white">
<path d="M258 214.581H288V244.581H258V214.581Z"/>
</mask>
<path d="M288 214.581H289V213.581H288V214.581ZM288 244.581V245.581H289V244.581H288ZM258 215.581H288V213.581H258V215.581ZM287 214.581V244.581H289V214.581H287ZM288 243.581H258V245.581H288V243.581Z" fill="#F7F7F7" mask="url(#path-61-inside-30_955_5766)"/>
<mask id="path-63-inside-31_955_5766" fill="white">
<path d="M288 214.581H318V244.581H288V214.581Z"/>
</mask>
<path d="M318 214.581H319V213.581H318V214.581ZM318 244.581V245.581H319V244.581H318ZM288 215.581H318V213.581H288V215.581ZM317 214.581V244.581H319V214.581H317ZM318 243.581H288V245.581H318V243.581Z" fill="#F7F7F7" mask="url(#path-63-inside-31_955_5766)"/>
<mask id="path-65-inside-32_955_5766" fill="white">
<path d="M318 214.581H348V244.581H318V214.581Z"/>
</mask>
<path d="M348 214.581H349V213.581H348V214.581ZM348 244.581V245.581H349V244.581H348ZM318 215.581H348V213.581H318V215.581ZM347 214.581V244.581H349V214.581H347ZM348 243.581H318V245.581H348V243.581Z" fill="#F7F7F7" mask="url(#path-65-inside-32_955_5766)"/>
<mask id="path-67-inside-33_955_5766" fill="white">
<path d="M348 214.581H378V244.581H348V214.581Z"/>
</mask>
<path d="M378 214.581H379V213.581H378V214.581ZM378 244.581V245.581H379V244.581H378ZM348 215.581H378V213.581H348V215.581ZM377 214.581V244.581H379V214.581H377ZM378 243.581H348V245.581H378V243.581Z" fill="#F7F7F7" mask="url(#path-67-inside-33_955_5766)"/>
<mask id="path-69-inside-34_955_5766" fill="white">
<path d="M48 185.581H78V215.581H48V185.581Z"/>
</mask>
<path d="M48 185.581V184.581H47V185.581H48ZM78 185.581H79V184.581H78V185.581ZM78 215.581V216.581H79V215.581H78ZM48 215.581H47V216.581H48V215.581ZM48 186.581H78V184.581H48V186.581ZM77 185.581V215.581H79V185.581H77ZM78 214.581H48V216.581H78V214.581ZM49 215.581V185.581H47V215.581H49Z" fill="#F7F7F7" mask="url(#path-69-inside-34_955_5766)"/>
<mask id="path-71-inside-35_955_5766" fill="white">
<path d="M78 185.581H108V215.581H78V185.581Z"/>
</mask>
<path d="M108 185.581H109V184.581H108V185.581ZM108 215.581V216.581H109V215.581H108ZM78 186.581H108V184.581H78V186.581ZM107 185.581V215.581H109V185.581H107ZM108 214.581H78V216.581H108V214.581Z" fill="#F7F7F7" mask="url(#path-71-inside-35_955_5766)"/>
<mask id="path-73-inside-36_955_5766" fill="white">
<path d="M108 185.581H138V215.581H108V185.581Z"/>
</mask>
<path d="M138 185.581H139V184.581H138V185.581ZM138 215.581V216.581H139V215.581H138ZM108 186.581H138V184.581H108V186.581ZM137 185.581V215.581H139V185.581H137ZM138 214.581H108V216.581H138V214.581Z" fill="#F7F7F7" mask="url(#path-73-inside-36_955_5766)"/>
<mask id="path-75-inside-37_955_5766" fill="white">
<path d="M138 185.581H168V215.581H138V185.581Z"/>
</mask>
<path d="M168 185.581H169V184.581H168V185.581ZM168 215.581V216.581H169V215.581H168ZM138 186.581H168V184.581H138V186.581ZM167 185.581V215.581H169V185.581H167ZM168 214.581H138V216.581H168V214.581Z" fill="#F7F7F7" mask="url(#path-75-inside-37_955_5766)"/>
<mask id="path-77-inside-38_955_5766" fill="white">
<path d="M168 185.581H198V215.581H168V185.581Z"/>
</mask>
<path d="M198 185.581H199V184.581H198V185.581ZM198 215.581V216.581H199V215.581H198ZM168 186.581H198V184.581H168V186.581ZM197 185.581V215.581H199V185.581H197ZM198 214.581H168V216.581H198V214.581Z" fill="#F7F7F7" mask="url(#path-77-inside-38_955_5766)"/>
<mask id="path-79-inside-39_955_5766" fill="white">
<path d="M198 185.581H228V215.581H198V185.581Z"/>
</mask>
<path d="M228 185.581H229V184.581H228V185.581ZM228 215.581V216.581H229V215.581H228ZM198 186.581H228V184.581H198V186.581ZM227 185.581V215.581H229V185.581H227ZM228 214.581H198V216.581H228V214.581Z" fill="#F7F7F7" mask="url(#path-79-inside-39_955_5766)"/>
<mask id="path-81-inside-40_955_5766" fill="white">
<path d="M228 185.581H258V215.581H228V185.581Z"/>
</mask>
<path d="M258 185.581H259V184.581H258V185.581ZM258 215.581V216.581H259V215.581H258ZM228 186.581H258V184.581H228V186.581ZM257 185.581V215.581H259V185.581H257ZM258 214.581H228V216.581H258V214.581Z" fill="#F7F7F7" mask="url(#path-81-inside-40_955_5766)"/>
<mask id="path-83-inside-41_955_5766" fill="white">
<path d="M258 185.581H288V215.581H258V185.581Z"/>
</mask>
<path d="M288 185.581H289V184.581H288V185.581ZM288 215.581V216.581H289V215.581H288ZM258 186.581H288V184.581H258V186.581ZM287 185.581V215.581H289V185.581H287ZM288 214.581H258V216.581H288V214.581Z" fill="#F7F7F7" mask="url(#path-83-inside-41_955_5766)"/>
<mask id="path-85-inside-42_955_5766" fill="white">
<path d="M288 185.581H318V215.581H288V185.581Z"/>
</mask>
<path d="M318 185.581H319V184.581H318V185.581ZM318 215.581V216.581H319V215.581H318ZM288 186.581H318V184.581H288V186.581ZM317 185.581V215.581H319V185.581H317ZM318 214.581H288V216.581H318V214.581Z" fill="#F7F7F7" mask="url(#path-85-inside-42_955_5766)"/>
<mask id="path-87-inside-43_955_5766" fill="white">
<path d="M318 185.581H348V215.581H318V185.581Z"/>
</mask>
<path d="M348 185.581H349V184.581H348V185.581ZM348 215.581V216.581H349V215.581H348ZM318 186.581H348V184.581H318V186.581ZM347 185.581V215.581H349V185.581H347ZM348 214.581H318V216.581H348V214.581Z" fill="#F7F7F7" mask="url(#path-87-inside-43_955_5766)"/>
<mask id="path-89-inside-44_955_5766" fill="white">
<path d="M348 185.581H378V215.581H348V185.581Z"/>
</mask>
<path d="M378 185.581H379V184.581H378V185.581ZM378 215.581V216.581H379V215.581H378ZM348 186.581H378V184.581H348V186.581ZM377 185.581V215.581H379V185.581H377ZM378 214.581H348V216.581H378V214.581Z" fill="#F7F7F7" mask="url(#path-89-inside-44_955_5766)"/>
<mask id="path-91-inside-45_955_5766" fill="white">
<path d="M48 156.581H78V186.581H48V156.581Z"/>
</mask>
<path d="M48 156.581V155.581H47V156.581H48ZM78 156.581H79V155.581H78V156.581ZM78 186.581V187.581H79V186.581H78ZM48 186.581H47V187.581H48V186.581ZM48 157.581H78V155.581H48V157.581ZM77 156.581V186.581H79V156.581H77ZM78 185.581H48V187.581H78V185.581ZM49 186.581V156.581H47V186.581H49Z" fill="#F7F7F7" mask="url(#path-91-inside-45_955_5766)"/>
<mask id="path-93-inside-46_955_5766" fill="white">
<path d="M78 156.581H108V186.581H78V156.581Z"/>
</mask>
<path d="M108 156.581H109V155.581H108V156.581ZM108 186.581V187.581H109V186.581H108ZM78 157.581H108V155.581H78V157.581ZM107 156.581V186.581H109V156.581H107ZM108 185.581H78V187.581H108V185.581Z" fill="#F7F7F7" mask="url(#path-93-inside-46_955_5766)"/>
<mask id="path-95-inside-47_955_5766" fill="white">
<path d="M108 156.581H138V186.581H108V156.581Z"/>
</mask>
<path d="M138 156.581H139V155.581H138V156.581ZM138 186.581V187.581H139V186.581H138ZM108 157.581H138V155.581H108V157.581ZM137 156.581V186.581H139V156.581H137ZM138 185.581H108V187.581H138V185.581Z" fill="#F7F7F7" mask="url(#path-95-inside-47_955_5766)"/>
<mask id="path-97-inside-48_955_5766" fill="white">
<path d="M138 156.581H168V186.581H138V156.581Z"/>
</mask>
<path d="M168 156.581H169V155.581H168V156.581ZM168 186.581V187.581H169V186.581H168ZM138 157.581H168V155.581H138V157.581ZM167 156.581V186.581H169V156.581H167ZM168 185.581H138V187.581H168V185.581Z" fill="#F7F7F7" mask="url(#path-97-inside-48_955_5766)"/>
<mask id="path-99-inside-49_955_5766" fill="white">
<path d="M168 156.581H198V186.581H168V156.581Z"/>
</mask>
<path d="M198 156.581H199V155.581H198V156.581ZM198 186.581V187.581H199V186.581H198ZM168 157.581H198V155.581H168V157.581ZM197 156.581V186.581H199V156.581H197ZM198 185.581H168V187.581H198V185.581Z" fill="#F7F7F7" mask="url(#path-99-inside-49_955_5766)"/>
<mask id="path-101-inside-50_955_5766" fill="white">
<path d="M198 156.581H228V186.581H198V156.581Z"/>
</mask>
<path d="M228 156.581H229V155.581H228V156.581ZM228 186.581V187.581H229V186.581H228ZM198 157.581H228V155.581H198V157.581ZM227 156.581V186.581H229V156.581H227ZM228 185.581H198V187.581H228V185.581Z" fill="#F7F7F7" mask="url(#path-101-inside-50_955_5766)"/>
<mask id="path-103-inside-51_955_5766" fill="white">
<path d="M228 156.581H258V186.581H228V156.581Z"/>
</mask>
<path d="M258 156.581H259V155.581H258V156.581ZM258 186.581V187.581H259V186.581H258ZM228 157.581H258V155.581H228V157.581ZM257 156.581V186.581H259V156.581H257ZM258 185.581H228V187.581H258V185.581Z" fill="#F7F7F7" mask="url(#path-103-inside-51_955_5766)"/>
<mask id="path-105-inside-52_955_5766" fill="white">
<path d="M258 156.581H288V186.581H258V156.581Z"/>
</mask>
<path d="M288 156.581H289V155.581H288V156.581ZM288 186.581V187.581H289V186.581H288ZM258 157.581H288V155.581H258V157.581ZM287 156.581V186.581H289V156.581H287ZM288 185.581H258V187.581H288V185.581Z" fill="#F7F7F7" mask="url(#path-105-inside-52_955_5766)"/>
<mask id="path-107-inside-53_955_5766" fill="white">
<path d="M288 156.581H318V186.581H288V156.581Z"/>
</mask>
<path d="M318 156.581H319V155.581H318V156.581ZM318 186.581V187.581H319V186.581H318ZM288 157.581H318V155.581H288V157.581ZM317 156.581V186.581H319V156.581H317ZM318 185.581H288V187.581H318V185.581Z" fill="#F7F7F7" mask="url(#path-107-inside-53_955_5766)"/>
<mask id="path-109-inside-54_955_5766" fill="white">
<path d="M318 156.581H348V186.581H318V156.581Z"/>
</mask>
<path d="M348 156.581H349V155.581H348V156.581ZM348 186.581V187.581H349V186.581H348ZM318 157.581H348V155.581H318V157.581ZM347 156.581V186.581H349V156.581H347ZM348 185.581H318V187.581H348V185.581Z" fill="#F7F7F7" mask="url(#path-109-inside-54_955_5766)"/>
<mask id="path-111-inside-55_955_5766" fill="white">
<path d="M348 156.581H378V186.581H348V156.581Z"/>
</mask>
<path d="M378 156.581H379V155.581H378V156.581ZM378 186.581V187.581H379V186.581H378ZM348 157.581H378V155.581H348V157.581ZM377 156.581V186.581H379V156.581H377ZM378 185.581H348V187.581H378V185.581Z" fill="#F7F7F7" mask="url(#path-111-inside-55_955_5766)"/>
<mask id="path-113-inside-56_955_5766" fill="white">
<path d="M48 127.581H78V157.581H48V127.581Z"/>
</mask>
<path d="M48 127.581V126.581H47V127.581H48ZM78 127.581H79V126.581H78V127.581ZM78 157.581V158.581H79V157.581H78ZM48 157.581H47V158.581H48V157.581ZM48 128.581H78V126.581H48V128.581ZM77 127.581V157.581H79V127.581H77ZM78 156.581H48V158.581H78V156.581ZM49 157.581V127.581H47V157.581H49Z" fill="#F7F7F7" mask="url(#path-113-inside-56_955_5766)"/>
<mask id="path-115-inside-57_955_5766" fill="white">
<path d="M78 127.581H108V157.581H78V127.581Z"/>
</mask>
<path d="M108 127.581H109V126.581H108V127.581ZM108 157.581V158.581H109V157.581H108ZM78 128.581H108V126.581H78V128.581ZM107 127.581V157.581H109V127.581H107ZM108 156.581H78V158.581H108V156.581Z" fill="#F7F7F7" mask="url(#path-115-inside-57_955_5766)"/>
<mask id="path-117-inside-58_955_5766" fill="white">
<path d="M108 127.581H138V157.581H108V127.581Z"/>
</mask>
<path d="M138 127.581H139V126.581H138V127.581ZM138 157.581V158.581H139V157.581H138ZM108 128.581H138V126.581H108V128.581ZM137 127.581V157.581H139V127.581H137ZM138 156.581H108V158.581H138V156.581Z" fill="#F7F7F7" mask="url(#path-117-inside-58_955_5766)"/>
<mask id="path-119-inside-59_955_5766" fill="white">
<path d="M138 127.581H168V157.581H138V127.581Z"/>
</mask>
<path d="M168 127.581H169V126.581H168V127.581ZM168 157.581V158.581H169V157.581H168ZM138 128.581H168V126.581H138V128.581ZM167 127.581V157.581H169V127.581H167ZM168 156.581H138V158.581H168V156.581Z" fill="#F7F7F7" mask="url(#path-119-inside-59_955_5766)"/>
<mask id="path-121-inside-60_955_5766" fill="white">
<path d="M168 127.581H198V157.581H168V127.581Z"/>
</mask>
<path d="M198 127.581H199V126.581H198V127.581ZM198 157.581V158.581H199V157.581H198ZM168 128.581H198V126.581H168V128.581ZM197 127.581V157.581H199V127.581H197ZM198 156.581H168V158.581H198V156.581Z" fill="#F7F7F7" mask="url(#path-121-inside-60_955_5766)"/>
<mask id="path-123-inside-61_955_5766" fill="white">
<path d="M198 127.581H228V157.581H198V127.581Z"/>
</mask>
<path d="M228 127.581H229V126.581H228V127.581ZM228 157.581V158.581H229V157.581H228ZM198 128.581H228V126.581H198V128.581ZM227 127.581V157.581H229V127.581H227ZM228 156.581H198V158.581H228V156.581Z" fill="#F7F7F7" mask="url(#path-123-inside-61_955_5766)"/>
<mask id="path-125-inside-62_955_5766" fill="white">
<path d="M228 127.581H258V157.581H228V127.581Z"/>
</mask>
<path d="M258 127.581H259V126.581H258V127.581ZM258 157.581V158.581H259V157.581H258ZM228 128.581H258V126.581H228V128.581ZM257 127.581V157.581H259V127.581H257ZM258 156.581H228V158.581H258V156.581Z" fill="#F7F7F7" mask="url(#path-125-inside-62_955_5766)"/>
<mask id="path-127-inside-63_955_5766" fill="white">
<path d="M258 127.581H288V157.581H258V127.581Z"/>
</mask>
<path d="M288 127.581H289V126.581H288V127.581ZM288 157.581V158.581H289V157.581H288ZM258 128.581H288V126.581H258V128.581ZM287 127.581V157.581H289V127.581H287ZM288 156.581H258V158.581H288V156.581Z" fill="#F7F7F7" mask="url(#path-127-inside-63_955_5766)"/>
<mask id="path-129-inside-64_955_5766" fill="white">
<path d="M288 127.581H318V157.581H288V127.581Z"/>
</mask>
<path d="M318 127.581H319V126.581H318V127.581ZM318 157.581V158.581H319V157.581H318ZM288 128.581H318V126.581H288V128.581ZM317 127.581V157.581H319V127.581H317ZM318 156.581H288V158.581H318V156.581Z" fill="#F7F7F7" mask="url(#path-129-inside-64_955_5766)"/>
<mask id="path-131-inside-65_955_5766" fill="white">
<path d="M318 127.581H348V157.581H318V127.581Z"/>
</mask>
<path d="M348 127.581H349V126.581H348V127.581ZM348 157.581V158.581H349V157.581H348ZM318 128.581H348V126.581H318V128.581ZM347 127.581V157.581H349V127.581H347ZM348 156.581H318V158.581H348V156.581Z" fill="#F7F7F7" mask="url(#path-131-inside-65_955_5766)"/>
<mask id="path-133-inside-66_955_5766" fill="white">
<path d="M348 127.581H378V157.581H348V127.581Z"/>
</mask>
<path d="M378 127.581H379V126.581H378V127.581ZM378 157.581V158.581H379V157.581H378ZM348 128.581H378V126.581H348V128.581ZM377 127.581V157.581H379V127.581H377ZM378 156.581H348V158.581H378V156.581Z" fill="#F7F7F7" mask="url(#path-133-inside-66_955_5766)"/>
<mask id="path-135-inside-67_955_5766" fill="white">
<path d="M48 98.5811H78V128.581H48V98.5811Z"/>
</mask>
<path d="M48 98.5811V97.5811H47V98.5811H48ZM78 98.5811H79V97.5811H78V98.5811ZM78 128.581V129.581H79V128.581H78ZM48 128.581H47V129.581H48V128.581ZM48 99.5811H78V97.5811H48V99.5811ZM77 98.5811V128.581H79V98.5811H77ZM78 127.581H48V129.581H78V127.581ZM49 128.581V98.5811H47V128.581H49Z" fill="#F7F7F7" mask="url(#path-135-inside-67_955_5766)"/>
<mask id="path-137-inside-68_955_5766" fill="white">
<path d="M78 98.5811H108V128.581H78V98.5811Z"/>
</mask>
<path d="M108 98.5811H109V97.5811H108V98.5811ZM108 128.581V129.581H109V128.581H108ZM78 99.5811H108V97.5811H78V99.5811ZM107 98.5811V128.581H109V98.5811H107ZM108 127.581H78V129.581H108V127.581Z" fill="#F7F7F7" mask="url(#path-137-inside-68_955_5766)"/>
<mask id="path-139-inside-69_955_5766" fill="white">
<path d="M108 98.5811H138V128.581H108V98.5811Z"/>
</mask>
<path d="M138 98.5811H139V97.5811H138V98.5811ZM138 128.581V129.581H139V128.581H138ZM108 99.5811H138V97.5811H108V99.5811ZM137 98.5811V128.581H139V98.5811H137ZM138 127.581H108V129.581H138V127.581Z" fill="#F7F7F7" mask="url(#path-139-inside-69_955_5766)"/>
<mask id="path-141-inside-70_955_5766" fill="white">
<path d="M138 98.5811H168V128.581H138V98.5811Z"/>
</mask>
<path d="M168 98.5811H169V97.5811H168V98.5811ZM168 128.581V129.581H169V128.581H168ZM138 99.5811H168V97.5811H138V99.5811ZM167 98.5811V128.581H169V98.5811H167ZM168 127.581H138V129.581H168V127.581Z" fill="#F7F7F7" mask="url(#path-141-inside-70_955_5766)"/>
<mask id="path-143-inside-71_955_5766" fill="white">
<path d="M168 98.5811H198V128.581H168V98.5811Z"/>
</mask>
<path d="M198 98.5811H199V97.5811H198V98.5811ZM198 128.581V129.581H199V128.581H198ZM168 99.5811H198V97.5811H168V99.5811ZM197 98.5811V128.581H199V98.5811H197ZM198 127.581H168V129.581H198V127.581Z" fill="#F7F7F7" mask="url(#path-143-inside-71_955_5766)"/>
<mask id="path-145-inside-72_955_5766" fill="white">
<path d="M198 98.5811H228V128.581H198V98.5811Z"/>
</mask>
<path d="M228 98.5811H229V97.5811H228V98.5811ZM228 128.581V129.581H229V128.581H228ZM198 99.5811H228V97.5811H198V99.5811ZM227 98.5811V128.581H229V98.5811H227ZM228 127.581H198V129.581H228V127.581Z" fill="#F7F7F7" mask="url(#path-145-inside-72_955_5766)"/>
<mask id="path-147-inside-73_955_5766" fill="white">
<path d="M228 98.5811H258V128.581H228V98.5811Z"/>
</mask>
<path d="M258 98.5811H259V97.5811H258V98.5811ZM258 128.581V129.581H259V128.581H258ZM228 99.5811H258V97.5811H228V99.5811ZM257 98.5811V128.581H259V98.5811H257ZM258 127.581H228V129.581H258V127.581Z" fill="#F7F7F7" mask="url(#path-147-inside-73_955_5766)"/>
<mask id="path-149-inside-74_955_5766" fill="white">
<path d="M258 98.5811H288V128.581H258V98.5811Z"/>
</mask>
<path d="M288 98.5811H289V97.5811H288V98.5811ZM288 128.581V129.581H289V128.581H288ZM258 99.5811H288V97.5811H258V99.5811ZM287 98.5811V128.581H289V98.5811H287ZM288 127.581H258V129.581H288V127.581Z" fill="#F7F7F7" mask="url(#path-149-inside-74_955_5766)"/>
<mask id="path-151-inside-75_955_5766" fill="white">
<path d="M288 98.5811H318V128.581H288V98.5811Z"/>
</mask>
<path d="M318 98.5811H319V97.5811H318V98.5811ZM318 128.581V129.581H319V128.581H318ZM288 99.5811H318V97.5811H288V99.5811ZM317 98.5811V128.581H319V98.5811H317ZM318 127.581H288V129.581H318V127.581Z" fill="#F7F7F7" mask="url(#path-151-inside-75_955_5766)"/>
<mask id="path-153-inside-76_955_5766" fill="white">
<path d="M318 98.5811H348V128.581H318V98.5811Z"/>
</mask>
<path d="M348 98.5811H349V97.5811H348V98.5811ZM348 128.581V129.581H349V128.581H348ZM318 99.5811H348V97.5811H318V99.5811ZM347 98.5811V128.581H349V98.5811H347ZM348 127.581H318V129.581H348V127.581Z" fill="#F7F7F7" mask="url(#path-153-inside-76_955_5766)"/>
<mask id="path-155-inside-77_955_5766" fill="white">
<path d="M348 98.5811H378V128.581H348V98.5811Z"/>
</mask>
<path d="M378 98.5811H379V97.5811H378V98.5811ZM378 128.581V129.581H379V128.581H378ZM348 99.5811H378V97.5811H348V99.5811ZM377 98.5811V128.581H379V98.5811H377ZM378 127.581H348V129.581H378V127.581Z" fill="#F7F7F7" mask="url(#path-155-inside-77_955_5766)"/>
<mask id="path-157-inside-78_955_5766" fill="white">
<path d="M48 69.5811H78V99.5811H48V69.5811Z"/>
</mask>
<path d="M48 69.5811V68.5811H47V69.5811H48ZM78 69.5811H79V68.5811H78V69.5811ZM78 99.5811V100.581H79V99.5811H78ZM48 99.5811H47V100.581H48V99.5811ZM48 70.5811H78V68.5811H48V70.5811ZM77 69.5811V99.5811H79V69.5811H77ZM78 98.5811H48V100.581H78V98.5811ZM49 99.5811V69.5811H47V99.5811H49Z" fill="#F7F7F7" mask="url(#path-157-inside-78_955_5766)"/>
<mask id="path-159-inside-79_955_5766" fill="white">
<path d="M78 69.5811H108V99.5811H78V69.5811Z"/>
</mask>
<path d="M108 69.5811H109V68.5811H108V69.5811ZM108 99.5811V100.581H109V99.5811H108ZM78 70.5811H108V68.5811H78V70.5811ZM107 69.5811V99.5811H109V69.5811H107ZM108 98.5811H78V100.581H108V98.5811Z" fill="#F7F7F7" mask="url(#path-159-inside-79_955_5766)"/>
<mask id="path-161-inside-80_955_5766" fill="white">
<path d="M108 69.5811H138V99.5811H108V69.5811Z"/>
</mask>
<path d="M138 69.5811H139V68.5811H138V69.5811ZM138 99.5811V100.581H139V99.5811H138ZM108 70.5811H138V68.5811H108V70.5811ZM137 69.5811V99.5811H139V69.5811H137ZM138 98.5811H108V100.581H138V98.5811Z" fill="#F7F7F7" mask="url(#path-161-inside-80_955_5766)"/>
<mask id="path-163-inside-81_955_5766" fill="white">
<path d="M138 69.5811H168V99.5811H138V69.5811Z"/>
</mask>
<path d="M168 69.5811H169V68.5811H168V69.5811ZM168 99.5811V100.581H169V99.5811H168ZM138 70.5811H168V68.5811H138V70.5811ZM167 69.5811V99.5811H169V69.5811H167ZM168 98.5811H138V100.581H168V98.5811Z" fill="#F7F7F7" mask="url(#path-163-inside-81_955_5766)"/>
<mask id="path-165-inside-82_955_5766" fill="white">
<path d="M168 69.5811H198V99.5811H168V69.5811Z"/>
</mask>
<path d="M198 69.5811H199V68.5811H198V69.5811ZM198 99.5811V100.581H199V99.5811H198ZM168 70.5811H198V68.5811H168V70.5811ZM197 69.5811V99.5811H199V69.5811H197ZM198 98.5811H168V100.581H198V98.5811Z" fill="#F7F7F7" mask="url(#path-165-inside-82_955_5766)"/>
<mask id="path-167-inside-83_955_5766" fill="white">
<path d="M198 69.5811H228V99.5811H198V69.5811Z"/>
</mask>
<path d="M228 69.5811H229V68.5811H228V69.5811ZM228 99.5811V100.581H229V99.5811H228ZM198 70.5811H228V68.5811H198V70.5811ZM227 69.5811V99.5811H229V69.5811H227ZM228 98.5811H198V100.581H228V98.5811Z" fill="#F7F7F7" mask="url(#path-167-inside-83_955_5766)"/>
<mask id="path-169-inside-84_955_5766" fill="white">
<path d="M228 69.5811H258V99.5811H228V69.5811Z"/>
</mask>
<path d="M258 69.5811H259V68.5811H258V69.5811ZM258 99.5811V100.581H259V99.5811H258ZM228 70.5811H258V68.5811H228V70.5811ZM257 69.5811V99.5811H259V69.5811H257ZM258 98.5811H228V100.581H258V98.5811Z" fill="#F7F7F7" mask="url(#path-169-inside-84_955_5766)"/>
<mask id="path-171-inside-85_955_5766" fill="white">
<path d="M258 69.5811H288V99.5811H258V69.5811Z"/>
</mask>
<path d="M288 69.5811H289V68.5811H288V69.5811ZM288 99.5811V100.581H289V99.5811H288ZM258 70.5811H288V68.5811H258V70.5811ZM287 69.5811V99.5811H289V69.5811H287ZM288 98.5811H258V100.581H288V98.5811Z" fill="#F7F7F7" mask="url(#path-171-inside-85_955_5766)"/>
<mask id="path-173-inside-86_955_5766" fill="white">
<path d="M288 69.5811H318V99.5811H288V69.5811Z"/>
</mask>
<path d="M318 69.5811H319V68.5811H318V69.5811ZM318 99.5811V100.581H319V99.5811H318ZM288 70.5811H318V68.5811H288V70.5811ZM317 69.5811V99.5811H319V69.5811H317ZM318 98.5811H288V100.581H318V98.5811Z" fill="#F7F7F7" mask="url(#path-173-inside-86_955_5766)"/>
<mask id="path-175-inside-87_955_5766" fill="white">
<path d="M318 69.5811H348V99.5811H318V69.5811Z"/>
</mask>
<path d="M348 69.5811H349V68.5811H348V69.5811ZM348 99.5811V100.581H349V99.5811H348ZM318 70.5811H348V68.5811H318V70.5811ZM347 69.5811V99.5811H349V69.5811H347ZM348 98.5811H318V100.581H348V98.5811Z" fill="#F7F7F7" mask="url(#path-175-inside-87_955_5766)"/>
<mask id="path-177-inside-88_955_5766" fill="white">
<path d="M348 69.5811H378V99.5811H348V69.5811Z"/>
</mask>
<path d="M378 69.5811H379V68.5811H378V69.5811ZM378 99.5811V100.581H379V99.5811H378ZM348 70.5811H378V68.5811H348V70.5811ZM377 69.5811V99.5811H379V69.5811H377ZM378 98.5811H348V100.581H378V98.5811Z" fill="#F7F7F7" mask="url(#path-177-inside-88_955_5766)"/>
<g clip-path="url(#clip0_955_5766)">
<path d="M49 301.581L77.5 272.581L107.5 185.081L167.5 156.581L197.5 185.581L227.5 167.081L288 156.581L317.5 127.581L380.5 158.081" stroke="#FAB49E" stroke-width="7"/>
<path d="M49 411.581L77.5 382.581L107.5 295.081L137.5 290.081L167.5 273.081L227.5 277.581L287.5 270.081L317.5 273.081L382 283.081" stroke="#FE5433" stroke-width="7"/>
</g>
<mask id="path-181-inside-89_955_5766" fill="white">
<path d="M48 69.5811H378V302.581H48V69.5811Z"/>
</mask>
<path d="M48 302.581H47V303.581H48V302.581ZM378 301.581H48V303.581H378V301.581ZM49 302.581V69.5811H47V302.581H49Z" fill="#D9D9D9" mask="url(#path-181-inside-89_955_5766)"/>
<path d="M41.506 314.677C40.85 314.677 40.262 314.509 39.742 314.173C39.23 313.837 38.822 313.349 38.518 312.709C38.222 312.069 38.074 311.293 38.074 310.381C38.074 309.469 38.222 308.693 38.518 308.053C38.822 307.413 39.23 306.925 39.742 306.589C40.262 306.253 40.85 306.085 41.506 306.085C42.154 306.085 42.738 306.253 43.258 306.589C43.778 306.925 44.186 307.413 44.482 308.053C44.778 308.693 44.926 309.469 44.926 310.381C44.926 311.293 44.778 312.069 44.482 312.709C44.186 313.349 43.778 313.837 43.258 314.173C42.738 314.509 42.154 314.677 41.506 314.677ZM41.506 313.609C41.946 313.609 42.33 313.489 42.658 313.249C42.994 313.009 43.254 312.649 43.438 312.169C43.63 311.689 43.726 311.093 43.726 310.381C43.726 309.669 43.63 309.073 43.438 308.593C43.254 308.113 42.994 307.753 42.658 307.513C42.33 307.273 41.946 307.153 41.506 307.153C41.066 307.153 40.678 307.273 40.342 307.513C40.006 307.753 39.742 308.113 39.55 308.593C39.366 309.073 39.274 309.669 39.274 310.381C39.274 311.093 39.366 311.689 39.55 312.169C39.742 312.649 40.006 313.009 40.342 313.249C40.678 313.489 41.066 313.609 41.506 313.609Z" fill="#737373"/>
<path d="M41.3427 276.677C40.7507 276.677 40.1747 276.585 39.6147 276.401C39.0627 276.217 38.6107 275.969 38.2587 275.657L38.8107 274.709C39.0907 274.973 39.4547 275.189 39.9027 275.357C40.3507 275.525 40.8267 275.609 41.3307 275.609C41.9707 275.609 42.4627 275.473 42.8067 275.201C43.1507 274.929 43.3227 274.565 43.3227 274.109C43.3227 273.797 43.2467 273.525 43.0947 273.293C42.9427 273.061 42.6787 272.885 42.3027 272.765C41.9347 272.637 41.4267 272.573 40.7787 272.573H38.8707L39.3147 268.181H44.0547V269.225H39.7587L40.3827 268.637L40.0347 272.105L39.4107 271.529H41.0307C41.8707 271.529 42.5467 271.637 43.0587 271.853C43.5707 272.069 43.9427 272.369 44.1747 272.753C44.4067 273.129 44.5227 273.565 44.5227 274.061C44.5227 274.541 44.4067 274.981 44.1747 275.381C43.9427 275.773 43.5907 276.089 43.1187 276.329C42.6547 276.561 42.0627 276.677 41.3427 276.677Z" fill="#737373"/>
<path d="M34.2693 247.581V239.661L34.7853 240.225H32.3733V239.181H35.4573V247.581H34.2693ZM40.7268 247.677C40.0708 247.677 39.4828 247.509 38.9628 247.173C38.4508 246.837 38.0428 246.349 37.7388 245.709C37.4428 245.069 37.2948 244.293 37.2948 243.381C37.2948 242.469 37.4428 241.693 37.7388 241.053C38.0428 240.413 38.4508 239.925 38.9628 239.589C39.4828 239.253 40.0708 239.085 40.7268 239.085C41.3748 239.085 41.9588 239.253 42.4788 239.589C42.9988 239.925 43.4068 240.413 43.7028 241.053C43.9988 241.693 44.1468 242.469 44.1468 243.381C44.1468 244.293 43.9988 245.069 43.7028 245.709C43.4068 246.349 42.9988 246.837 42.4788 247.173C41.9588 247.509 41.3748 247.677 40.7268 247.677ZM40.7268 246.609C41.1668 246.609 41.5508 246.489 41.8788 246.249C42.2148 246.009 42.4748 245.649 42.6588 245.169C42.8508 244.689 42.9468 244.093 42.9468 243.381C42.9468 242.669 42.8508 242.073 42.6588 241.593C42.4748 241.113 42.2148 240.753 41.8788 240.513C41.5508 240.273 41.1668 240.153 40.7268 240.153C40.2868 240.153 39.8988 240.273 39.5628 240.513C39.2268 240.753 38.9628 241.113 38.7708 241.593C38.5868 242.073 38.4948 242.669 38.4948 243.381C38.4948 244.093 38.5868 244.689 38.7708 245.169C38.9628 245.649 39.2268 246.009 39.5628 246.249C39.8988 246.489 40.2868 246.609 40.7268 246.609Z" fill="#737373"/>
<path d="M35.326 218.581V210.661L35.842 211.225H33.43V210.181H36.514V218.581H35.326ZM41.0634 218.677C40.4714 218.677 39.8954 218.585 39.3354 218.401C38.7834 218.217 38.3314 217.969 37.9794 217.657L38.5314 216.709C38.8114 216.973 39.1754 217.189 39.6234 217.357C40.0714 217.525 40.5474 217.609 41.0514 217.609C41.6914 217.609 42.1834 217.473 42.5274 217.201C42.8714 216.929 43.0434 216.565 43.0434 216.109C43.0434 215.797 42.9674 215.525 42.8154 215.293C42.6634 215.061 42.3994 214.885 42.0234 214.765C41.6554 214.637 41.1474 214.573 40.4994 214.573H38.5914L39.0354 210.181H43.7754V211.225H39.4794L40.1034 210.637L39.7554 214.105L39.1314 213.529H40.7514C41.5914 213.529 42.2674 213.637 42.7794 213.853C43.2914 214.069 43.6634 214.369 43.8954 214.753C44.1274 215.129 44.2434 215.565 44.2434 216.061C44.2434 216.541 44.1274 216.981 43.8954 217.381C43.6634 217.773 43.3114 218.089 42.8394 218.329C42.3754 218.561 41.7834 218.677 41.0634 218.677Z" fill="#737373"/>
<path d="M30.5026 189.581V188.765L33.9226 185.465C34.2266 185.177 34.4506 184.925 34.5946 184.709C34.7466 184.485 34.8466 184.281 34.8946 184.097C34.9506 183.905 34.9786 183.721 34.9786 183.545C34.9786 183.113 34.8266 182.773 34.5226 182.525C34.2186 182.277 33.7746 182.153 33.1906 182.153C32.7426 182.153 32.3386 182.229 31.9786 182.381C31.6186 182.525 31.3066 182.753 31.0426 183.065L30.2266 182.357C30.5466 181.949 30.9746 181.637 31.5106 181.421C32.0546 181.197 32.6506 181.085 33.2986 181.085C33.8826 181.085 34.3906 181.181 34.8226 181.373C35.2546 181.557 35.5866 181.825 35.8186 182.177C36.0586 182.529 36.1786 182.945 36.1786 183.425C36.1786 183.697 36.1426 183.965 36.0706 184.229C35.9986 184.493 35.8626 184.773 35.6626 185.069C35.4626 185.365 35.1746 185.697 34.7986 186.065L31.7506 189.005L31.4626 188.537H36.5386V189.581H30.5026ZM40.9455 189.677C40.2895 189.677 39.7015 189.509 39.1815 189.173C38.6695 188.837 38.2615 188.349 37.9575 187.709C37.6615 187.069 37.5135 186.293 37.5135 185.381C37.5135 184.469 37.6615 183.693 37.9575 183.053C38.2615 182.413 38.6695 181.925 39.1815 181.589C39.7015 181.253 40.2895 181.085 40.9455 181.085C41.5935 181.085 42.1775 181.253 42.6975 181.589C43.2175 181.925 43.6255 182.413 43.9215 183.053C44.2175 183.693 44.3655 184.469 44.3655 185.381C44.3655 186.293 44.2175 187.069 43.9215 187.709C43.6255 188.349 43.2175 188.837 42.6975 189.173C42.1775 189.509 41.5935 189.677 40.9455 189.677ZM40.9455 188.609C41.3855 188.609 41.7695 188.489 42.0975 188.249C42.4335 188.009 42.6935 187.649 42.8775 187.169C43.0695 186.689 43.1655 186.093 43.1655 185.381C43.1655 184.669 43.0695 184.073 42.8775 183.593C42.6935 183.113 42.4335 182.753 42.0975 182.513C41.7695 182.273 41.3855 182.153 40.9455 182.153C40.5055 182.153 40.1175 182.273 39.7815 182.513C39.4455 182.753 39.1815 183.113 38.9895 183.593C38.8055 184.073 38.7135 184.669 38.7135 185.381C38.7135 186.093 38.8055 186.689 38.9895 187.169C39.1815 187.649 39.4455 188.009 39.7815 188.249C40.1175 188.489 40.5055 188.609 40.9455 188.609Z" fill="#737373"/>
<path d="M31.5534 160.581V159.765L34.9734 156.465C35.2774 156.177 35.5014 155.925 35.6454 155.709C35.7974 155.485 35.8974 155.281 35.9454 155.097C36.0014 154.905 36.0294 154.721 36.0294 154.545C36.0294 154.113 35.8774 153.773 35.5734 153.525C35.2694 153.277 34.8254 153.153 34.2414 153.153C33.7934 153.153 33.3894 153.229 33.0294 153.381C32.6694 153.525 32.3574 153.753 32.0934 154.065L31.2774 153.357C31.5974 152.949 32.0254 152.637 32.5614 152.421C33.1054 152.197 33.7014 152.085 34.3494 152.085C34.9334 152.085 35.4414 152.181 35.8734 152.373C36.3054 152.557 36.6374 152.825 36.8694 153.177C37.1094 153.529 37.2294 153.945 37.2294 154.425C37.2294 154.697 37.1934 154.965 37.1214 155.229C37.0494 155.493 36.9134 155.773 36.7134 156.069C36.5134 156.365 36.2254 156.697 35.8494 157.065L32.8014 160.005L32.5134 159.537H37.5894V160.581H31.5534ZM41.288 160.677C40.696 160.677 40.12 160.585 39.56 160.401C39.008 160.217 38.556 159.969 38.204 159.657L38.756 158.709C39.036 158.973 39.4 159.189 39.848 159.357C40.296 159.525 40.772 159.609 41.276 159.609C41.916 159.609 42.408 159.473 42.752 159.201C43.096 158.929 43.268 158.565 43.268 158.109C43.268 157.797 43.192 157.525 43.04 157.293C42.888 157.061 42.624 156.885 42.248 156.765C41.88 156.637 41.372 156.573 40.724 156.573H38.816L39.26 152.181H44V153.225H39.704L40.328 152.637L39.98 156.105L39.356 155.529H40.976C41.816 155.529 42.492 155.637 43.004 155.853C43.516 156.069 43.888 156.369 44.12 156.753C44.352 157.129 44.468 157.565 44.468 158.061C44.468 158.541 44.352 158.981 44.12 159.381C43.888 159.773 43.536 160.089 43.064 160.329C42.6 160.561 42.008 160.677 41.288 160.677Z" fill="#737373"/>
<path d="M33.2085 131.677C32.6165 131.677 32.0405 131.585 31.4805 131.401C30.9285 131.217 30.4765 130.969 30.1245 130.657L30.6765 129.709C30.9565 129.973 31.3205 130.189 31.7685 130.357C32.2165 130.525 32.6965 130.609 33.2085 130.609C33.8325 130.609 34.3165 130.477 34.6605 130.213C35.0125 129.941 35.1885 129.577 35.1885 129.121C35.1885 128.681 35.0205 128.329 34.6845 128.065C34.3565 127.793 33.8325 127.657 33.1125 127.657H32.4405V126.817L34.9365 123.745L35.1045 124.225H30.5085V123.181H36.0525V123.997L33.5685 127.057L32.9445 126.685H33.3405C34.3565 126.685 35.1165 126.913 35.6205 127.369C36.1325 127.825 36.3885 128.405 36.3885 129.109C36.3885 129.581 36.2725 130.013 36.0405 130.405C35.8085 130.797 35.4565 131.109 34.9845 131.341C34.5205 131.565 33.9285 131.677 33.2085 131.677ZM40.9396 131.677C40.2836 131.677 39.6956 131.509 39.1756 131.173C38.6636 130.837 38.2556 130.349 37.9516 129.709C37.6556 129.069 37.5076 128.293 37.5076 127.381C37.5076 126.469 37.6556 125.693 37.9516 125.053C38.2556 124.413 38.6636 123.925 39.1756 123.589C39.6956 123.253 40.2836 123.085 40.9396 123.085C41.5876 123.085 42.1716 123.253 42.6916 123.589C43.2116 123.925 43.6196 124.413 43.9156 125.053C44.2116 125.693 44.3596 126.469 44.3596 127.381C44.3596 128.293 44.2116 129.069 43.9156 129.709C43.6196 130.349 43.2116 130.837 42.6916 131.173C42.1716 131.509 41.5876 131.677 40.9396 131.677ZM40.9396 130.609C41.3796 130.609 41.7636 130.489 42.0916 130.249C42.4276 130.009 42.6876 129.649 42.8716 129.169C43.0636 128.689 43.1596 128.093 43.1596 127.381C43.1596 126.669 43.0636 126.073 42.8716 125.593C42.6876 125.113 42.4276 124.753 42.0916 124.513C41.7636 124.273 41.3796 124.153 40.9396 124.153C40.4996 124.153 40.1116 124.273 39.7756 124.513C39.4396 124.753 39.1756 125.113 38.9836 125.593C38.7996 126.073 38.7076 126.669 38.7076 127.381C38.7076 128.093 38.7996 128.689 38.9836 129.169C39.1756 129.649 39.4396 130.009 39.7756 130.249C40.1116 130.489 40.4996 130.609 40.9396 130.609Z" fill="#737373"/>
<path d="M33.3237 102.677C32.7317 102.677 32.1557 102.585 31.5957 102.401C31.0437 102.217 30.5917 101.969 30.2397 101.657L30.7917 100.709C31.0717 100.973 31.4357 101.189 31.8837 101.357C32.3317 101.525 32.8117 101.609 33.3237 101.609C33.9477 101.609 34.4317 101.477 34.7757 101.213C35.1277 100.941 35.3037 100.577 35.3037 100.121C35.3037 99.6811 35.1357 99.3291 34.7997 99.0651C34.4717 98.7931 33.9477 98.6571 33.2277 98.6571H32.5557V97.8171L35.0517 94.7451L35.2197 95.2251H30.6237V94.1811H36.1677V94.9971L33.6837 98.0571L33.0597 97.6851H33.4557C34.4717 97.6851 35.2317 97.9131 35.7357 98.3691C36.2477 98.8251 36.5037 99.4051 36.5037 100.109C36.5037 100.581 36.3877 101.013 36.1557 101.405C35.9237 101.797 35.5717 102.109 35.0997 102.341C34.6357 102.565 34.0437 102.677 33.3237 102.677ZM40.2177 102.677C39.6257 102.677 39.0497 102.585 38.4897 102.401C37.9377 102.217 37.4857 101.969 37.1337 101.657L37.6857 100.709C37.9657 100.973 38.3297 101.189 38.7777 101.357C39.2257 101.525 39.7017 101.609 40.2057 101.609C40.8457 101.609 41.3377 101.473 41.6817 101.201C42.0257 100.929 42.1977 100.565 42.1977 100.109C42.1977 99.7971 42.1217 99.5251 41.9697 99.2931C41.8177 99.0611 41.5537 98.8851 41.1777 98.7651C40.8097 98.6371 40.3017 98.5731 39.6537 98.5731H37.7457L38.1897 94.1811H42.9297V95.2251H38.6337L39.2577 94.6371L38.9097 98.1051L38.2857 97.5291H39.9057C40.7457 97.5291 41.4217 97.6371 41.9337 97.8531C42.4457 98.0691 42.8177 98.3691 43.0497 98.7531C43.2817 99.1291 43.3977 99.5651 43.3977 100.061C43.3977 100.541 43.2817 100.981 43.0497 101.381C42.8177 101.773 42.4657 102.089 41.9937 102.329C41.5297 102.561 40.9377 102.677 40.2177 102.677Z" fill="#737373"/>
<path d="M27.9404 71.5171V70.6771L32.2364 65.1811H33.5324L29.2724 70.6771L28.6604 70.4851H35.3684V71.5171H27.9404ZM32.6084 73.5811V71.5171L32.6444 70.4851V68.6611H33.7724V73.5811H32.6084ZM39.5197 73.6771C38.8637 73.6771 38.2757 73.5091 37.7557 73.1731C37.2437 72.8371 36.8357 72.3491 36.5317 71.7091C36.2357 71.0691 36.0877 70.2931 36.0877 69.3811C36.0877 68.4691 36.2357 67.6931 36.5317 67.0531C36.8357 66.4131 37.2437 65.9251 37.7557 65.5891C38.2757 65.2531 38.8637 65.0851 39.5197 65.0851C40.1677 65.0851 40.7517 65.2531 41.2717 65.5891C41.7917 65.9251 42.1997 66.4131 42.4957 67.0531C42.7917 67.6931 42.9397 68.4691 42.9397 69.3811C42.9397 70.2931 42.7917 71.0691 42.4957 71.7091C42.1997 72.3491 41.7917 72.8371 41.2717 73.1731C40.7517 73.5091 40.1677 73.6771 39.5197 73.6771ZM39.5197 72.6091C39.9597 72.6091 40.3437 72.4891 40.6717 72.2491C41.0077 72.0091 41.2677 71.6491 41.4517 71.1691C41.6437 70.6891 41.7397 70.0931 41.7397 69.3811C41.7397 68.6691 41.6437 68.0731 41.4517 67.5931C41.2677 67.1131 41.0077 66.7531 40.6717 66.5131C40.3437 66.2731 39.9597 66.1531 39.5197 66.1531C39.0797 66.1531 38.6917 66.2731 38.3557 66.5131C38.0197 66.7531 37.7557 67.1131 37.5637 67.5931C37.3797 68.0731 37.2877 68.6691 37.2877 69.3811C37.2877 70.0931 37.3797 70.6891 37.5637 71.1691C37.7557 71.6491 38.0197 72.0091 38.3557 72.2491C38.6917 72.4891 39.0797 72.6091 39.5197 72.6091Z" fill="#737373"/>
<path d="M209.326 314.581V306.661L209.842 307.225H207.43V306.181H210.514V314.581H209.326ZM215.063 314.677C214.471 314.677 213.895 314.585 213.335 314.401C212.783 314.217 212.331 313.969 211.979 313.657L212.531 312.709C212.811 312.973 213.175 313.189 213.623 313.357C214.071 313.525 214.547 313.609 215.051 313.609C215.691 313.609 216.183 313.473 216.527 313.201C216.871 312.929 217.043 312.565 217.043 312.109C217.043 311.797 216.967 311.525 216.815 311.293C216.663 311.061 216.399 310.885 216.023 310.765C215.655 310.637 215.147 310.573 214.499 310.573H212.591L213.035 306.181H217.775V307.225H213.479L214.103 306.637L213.755 310.105L213.131 309.529H214.751C215.591 309.529 216.267 309.637 216.779 309.853C217.291 310.069 217.663 310.369 217.895 310.753C218.127 311.129 218.243 311.565 218.243 312.061C218.243 312.541 218.127 312.981 217.895 313.381C217.663 313.773 217.311 314.089 216.839 314.329C216.375 314.561 215.783 314.677 215.063 314.677Z" fill="#737373"/>
<path d="M366.208 314.677C365.616 314.677 365.04 314.585 364.48 314.401C363.928 314.217 363.476 313.969 363.124 313.657L363.676 312.709C363.956 312.973 364.32 313.189 364.768 313.357C365.216 313.525 365.696 313.609 366.208 313.609C366.832 313.609 367.316 313.477 367.66 313.213C368.012 312.941 368.188 312.577 368.188 312.121C368.188 311.681 368.02 311.329 367.684 311.065C367.356 310.793 366.832 310.657 366.112 310.657H365.44V309.817L367.936 306.745L368.104 307.225H363.508V306.181H369.052V306.997L366.568 310.057L365.944 309.685H366.34C367.356 309.685 368.116 309.913 368.62 310.369C369.132 310.825 369.388 311.405 369.388 312.109C369.388 312.581 369.272 313.013 369.04 313.405C368.808 313.797 368.456 314.109 367.984 314.341C367.52 314.565 366.928 314.677 366.208 314.677ZM373.94 314.677C373.284 314.677 372.696 314.509 372.176 314.173C371.664 313.837 371.256 313.349 370.952 312.709C370.656 312.069 370.508 311.293 370.508 310.381C370.508 309.469 370.656 308.693 370.952 308.053C371.256 307.413 371.664 306.925 372.176 306.589C372.696 306.253 373.284 306.085 373.94 306.085C374.588 306.085 375.172 306.253 375.692 306.589C376.212 306.925 376.62 307.413 376.916 308.053C377.212 308.693 377.36 309.469 377.36 310.381C377.36 311.293 377.212 312.069 376.916 312.709C376.62 313.349 376.212 313.837 375.692 314.173C375.172 314.509 374.588 314.677 373.94 314.677ZM373.94 313.609C374.38 313.609 374.764 313.489 375.092 313.249C375.428 313.009 375.688 312.649 375.872 312.169C376.064 311.689 376.16 311.093 376.16 310.381C376.16 309.669 376.064 309.073 375.872 308.593C375.688 308.113 375.428 307.753 375.092 307.513C374.764 307.273 374.38 307.153 373.94 307.153C373.5 307.153 373.112 307.273 372.776 307.513C372.44 307.753 372.176 308.113 371.984 308.593C371.8 309.073 371.708 309.669 371.708 310.381C371.708 311.093 371.8 311.689 371.984 312.169C372.176 312.649 372.44 313.009 372.776 313.249C373.112 313.489 373.5 313.609 373.94 313.609Z" fill="#737373"/>
<circle cx="113" cy="42.5811" r="3.5" fill="#FAB49E"/>
<path d="M130.284 48.5811C130.103 48.1011 129.932 47.6317 129.772 47.1731C129.612 46.7037 129.447 46.2291 129.276 45.7491H124.252L123.244 48.5811H121.628C122.055 47.4077 122.455 46.3251 122.828 45.3331C123.201 44.3304 123.564 43.3811 123.916 42.4851C124.279 41.5891 124.636 40.7357 124.988 39.9251C125.34 39.1037 125.708 38.2931 126.092 37.4931H127.516C127.9 38.2931 128.268 39.1037 128.62 39.9251C128.972 40.7357 129.324 41.5891 129.676 42.4851C130.039 43.3811 130.407 44.3304 130.78 45.3331C131.153 46.3251 131.553 47.4077 131.98 48.5811H130.284ZM128.828 44.4691C128.487 43.5411 128.145 42.6451 127.804 41.7811C127.473 40.9064 127.127 40.0691 126.764 39.2691C126.391 40.0691 126.033 40.9064 125.692 41.7811C125.361 42.6451 125.031 43.5411 124.7 44.4691H128.828ZM133.389 40.5011C133.731 40.4157 134.184 40.3251 134.749 40.2291C135.315 40.1331 135.965 40.0851 136.701 40.0851C137.363 40.0851 137.912 40.1811 138.349 40.3731C138.787 40.5544 139.133 40.8157 139.389 41.1571C139.656 41.4877 139.843 41.8877 139.949 42.3571C140.056 42.8264 140.109 43.3437 140.109 43.9091V48.5811H138.621V44.2291C138.621 43.7171 138.584 43.2797 138.509 42.9171C138.445 42.5544 138.333 42.2611 138.173 42.0371C138.013 41.8131 137.8 41.6531 137.533 41.5571C137.267 41.4504 136.936 41.3971 136.541 41.3971C136.381 41.3971 136.216 41.4024 136.045 41.4131C135.875 41.4237 135.709 41.4397 135.549 41.4611C135.4 41.4717 135.261 41.4877 135.133 41.5091C135.016 41.5304 134.931 41.5464 134.877 41.5571V48.5811H133.389V40.5011ZM145.393 47.5091C145.745 47.5091 146.054 47.5037 146.321 47.4931C146.598 47.4717 146.828 47.4397 147.009 47.3971V44.9171C146.902 44.8637 146.726 44.8211 146.481 44.7891C146.246 44.7464 145.958 44.7251 145.617 44.7251C145.393 44.7251 145.153 44.7411 144.897 44.7731C144.652 44.8051 144.422 44.8744 144.209 44.9811C144.006 45.0771 143.836 45.2157 143.697 45.3971C143.558 45.5677 143.489 45.7971 143.489 46.0851C143.489 46.6184 143.66 46.9917 144.001 47.2051C144.342 47.4077 144.806 47.5091 145.393 47.5091ZM145.265 40.0531C145.862 40.0531 146.364 40.1331 146.769 40.2931C147.185 40.4424 147.516 40.6611 147.761 40.9491C148.017 41.2264 148.198 41.5624 148.305 41.9571C148.412 42.3411 148.465 42.7677 148.465 43.2371V48.4371C148.337 48.4584 148.156 48.4904 147.921 48.5331C147.697 48.5651 147.441 48.5971 147.153 48.6291C146.865 48.6611 146.55 48.6877 146.209 48.7091C145.878 48.7411 145.548 48.7571 145.217 48.7571C144.748 48.7571 144.316 48.7091 143.921 48.6131C143.526 48.5171 143.185 48.3677 142.897 48.1651C142.609 47.9517 142.385 47.6744 142.225 47.3331C142.065 46.9917 141.985 46.5811 141.985 46.1011C141.985 45.6424 142.076 45.2477 142.257 44.9171C142.449 44.5864 142.705 44.3197 143.025 44.1171C143.345 43.9144 143.718 43.7651 144.145 43.6691C144.572 43.5731 145.02 43.5251 145.489 43.5251C145.638 43.5251 145.793 43.5357 145.953 43.5571C146.113 43.5677 146.262 43.5891 146.401 43.6211C146.55 43.6424 146.678 43.6637 146.785 43.6851C146.892 43.7064 146.966 43.7224 147.009 43.7331V43.3171C147.009 43.0717 146.982 42.8317 146.929 42.5971C146.876 42.3517 146.78 42.1384 146.641 41.9571C146.502 41.7651 146.31 41.6157 146.065 41.5091C145.83 41.3917 145.521 41.3331 145.137 41.3331C144.646 41.3331 144.214 41.3704 143.841 41.4451C143.478 41.5091 143.206 41.5784 143.025 41.6531L142.849 40.4211C143.041 40.3357 143.361 40.2557 143.809 40.1811C144.257 40.0957 144.742 40.0531 145.265 40.0531ZM147.441 37.1091L145.185 39.3011L144.433 38.6291L146.481 36.1651L147.441 37.1091ZM153.432 48.7411C152.515 48.7197 151.864 48.5224 151.48 48.1491C151.096 47.7757 150.904 47.1944 150.904 46.4051V36.4211L152.392 36.1651V46.1651C152.392 46.4104 152.414 46.6131 152.456 46.7731C152.499 46.9331 152.568 47.0611 152.664 47.1571C152.76 47.2531 152.888 47.3277 153.048 47.3811C153.208 47.4237 153.406 47.4611 153.64 47.4931L153.432 48.7411ZM156.799 48.5811H155.311V40.2611H156.799V48.5811ZM156.047 38.7571C155.781 38.7571 155.551 38.6717 155.359 38.5011C155.178 38.3197 155.087 38.0797 155.087 37.7811C155.087 37.4824 155.178 37.2477 155.359 37.0771C155.551 36.8957 155.781 36.8051 156.047 36.8051C156.314 36.8051 156.538 36.8957 156.719 37.0771C156.911 37.2477 157.007 37.4824 157.007 37.7811C157.007 38.0797 156.911 38.3197 156.719 38.5011C156.538 38.6717 156.314 38.7571 156.047 38.7571ZM161.294 47.5091C161.902 47.5091 162.35 47.4291 162.638 47.2691C162.937 47.1091 163.086 46.8531 163.086 46.5011C163.086 46.1384 162.942 45.8504 162.654 45.6371C162.366 45.4237 161.891 45.1837 161.23 44.9171C160.91 44.7891 160.601 44.6611 160.302 44.5331C160.014 44.3944 159.763 44.2344 159.55 44.0531C159.337 43.8717 159.166 43.6531 159.038 43.3971C158.91 43.1411 158.846 42.8264 158.846 42.4531C158.846 41.7171 159.118 41.1357 159.662 40.7091C160.206 40.2717 160.947 40.0531 161.886 40.0531C162.121 40.0531 162.355 40.0691 162.59 40.1011C162.825 40.1224 163.043 40.1544 163.246 40.1971C163.449 40.2291 163.625 40.2664 163.774 40.3091C163.934 40.3517 164.057 40.3891 164.142 40.4211L163.87 41.7011C163.71 41.6157 163.459 41.5304 163.118 41.4451C162.777 41.3491 162.366 41.3011 161.886 41.3011C161.47 41.3011 161.107 41.3864 160.798 41.5571C160.489 41.7171 160.334 41.9731 160.334 42.3251C160.334 42.5064 160.366 42.6664 160.43 42.8051C160.505 42.9437 160.611 43.0717 160.75 43.1891C160.899 43.2957 161.081 43.3971 161.294 43.4931C161.507 43.5891 161.763 43.6904 162.062 43.7971C162.457 43.9464 162.809 44.0957 163.118 44.2451C163.427 44.3837 163.689 44.5491 163.902 44.7411C164.126 44.9331 164.297 45.1677 164.414 45.4451C164.531 45.7117 164.59 46.0424 164.59 46.4371C164.59 47.2051 164.302 47.7864 163.726 48.1811C163.161 48.5757 162.35 48.7731 161.294 48.7731C160.558 48.7731 159.982 48.7091 159.566 48.5811C159.15 48.4637 158.867 48.3731 158.718 48.3091L158.99 47.0291C159.161 47.0931 159.433 47.1891 159.806 47.3171C160.179 47.4451 160.675 47.5091 161.294 47.5091ZM166.035 44.4371C166.035 43.7011 166.141 43.0611 166.355 42.5171C166.568 41.9624 166.851 41.5037 167.203 41.1411C167.555 40.7784 167.96 40.5064 168.419 40.3251C168.877 40.1437 169.347 40.0531 169.827 40.0531C170.947 40.0531 171.805 40.4051 172.403 41.1091C173 41.8024 173.299 42.8637 173.299 44.2931C173.299 44.3571 173.299 44.4424 173.299 44.5491C173.299 44.6451 173.293 44.7357 173.283 44.8211H167.587C167.651 45.6851 167.901 46.3411 168.339 46.7891C168.776 47.2371 169.459 47.4611 170.387 47.4611C170.909 47.4611 171.347 47.4184 171.699 47.3331C172.061 47.2371 172.333 47.1464 172.515 47.0611L172.723 48.3091C172.541 48.4051 172.221 48.5064 171.763 48.6131C171.315 48.7197 170.803 48.7731 170.227 48.7731C169.501 48.7731 168.872 48.6664 168.339 48.4531C167.816 48.2291 167.384 47.9251 167.043 47.5411C166.701 47.1571 166.445 46.7037 166.275 46.1811C166.115 45.6477 166.035 45.0664 166.035 44.4371ZM171.747 43.6211C171.757 42.9491 171.587 42.3997 171.235 41.9731C170.893 41.5357 170.419 41.3171 169.811 41.3171C169.469 41.3171 169.165 41.3864 168.899 41.5251C168.643 41.6531 168.424 41.8237 168.243 42.0371C168.061 42.2504 167.917 42.4957 167.811 42.7731C167.715 43.0504 167.651 43.3331 167.619 43.6211H171.747ZM177.372 47.5091C177.98 47.5091 178.428 47.4291 178.716 47.2691C179.015 47.1091 179.164 46.8531 179.164 46.5011C179.164 46.1384 179.02 45.8504 178.732 45.6371C178.444 45.4237 177.97 45.1837 177.308 44.9171C176.988 44.7891 176.679 44.6611 176.38 44.5331C176.092 44.3944 175.842 44.2344 175.628 44.0531C175.415 43.8717 175.244 43.6531 175.116 43.3971C174.988 43.1411 174.924 42.8264 174.924 42.4531C174.924 41.7171 175.196 41.1357 175.74 40.7091C176.284 40.2717 177.026 40.0531 177.964 40.0531C178.199 40.0531 178.434 40.0691 178.668 40.1011C178.903 40.1224 179.122 40.1544 179.324 40.1971C179.527 40.2291 179.703 40.2664 179.852 40.3091C180.012 40.3517 180.135 40.3891 180.22 40.4211L179.948 41.7011C179.788 41.6157 179.538 41.5304 179.196 41.4451C178.855 41.3491 178.444 41.3011 177.964 41.3011C177.548 41.3011 177.186 41.3864 176.876 41.5571C176.567 41.7171 176.412 41.9731 176.412 42.3251C176.412 42.5064 176.444 42.6664 176.508 42.8051C176.583 42.9437 176.69 43.0717 176.828 43.1891C176.978 43.2957 177.159 43.3971 177.372 43.4931C177.586 43.5891 177.842 43.6904 178.14 43.7971C178.535 43.9464 178.887 44.0957 179.196 44.2451C179.506 44.3837 179.767 44.5491 179.98 44.7411C180.204 44.9331 180.375 45.1677 180.492 45.4451C180.61 45.7117 180.668 46.0424 180.668 46.4371C180.668 47.2051 180.38 47.7864 179.804 48.1811C179.239 48.5757 178.428 48.7731 177.372 48.7731C176.636 48.7731 176.06 48.7091 175.644 48.5811C175.228 48.4637 174.946 48.3731 174.796 48.3091L175.068 47.0291C175.239 47.0931 175.511 47.1891 175.884 47.3171C176.258 47.4451 176.754 47.5091 177.372 47.5091Z" fill="#292929"/>
<circle cx="197" cy="42.5811" r="3.5" fill="#FE5433"/>
<path d="M211.644 48.8211C210.865 48.8211 210.156 48.6931 209.516 48.4371C208.876 48.1811 208.327 47.8077 207.868 47.3171C207.409 46.8264 207.052 46.2237 206.796 45.5091C206.551 44.7837 206.428 43.9571 206.428 43.0291C206.428 42.1011 206.567 41.2797 206.844 40.5651C207.132 39.8397 207.516 39.2317 207.996 38.7411C208.476 38.2504 209.036 37.8771 209.676 37.6211C210.316 37.3651 210.999 37.2371 211.724 37.2371C212.183 37.2371 212.593 37.2691 212.956 37.3331C213.329 37.3971 213.649 37.4717 213.916 37.5571C214.193 37.6424 214.417 37.7277 214.588 37.8131C214.759 37.8984 214.876 37.9624 214.94 38.0051L214.492 39.2851C214.396 39.2211 214.257 39.1517 214.076 39.0771C213.895 39.0024 213.687 38.9277 213.452 38.8531C213.228 38.7784 212.977 38.7197 212.7 38.6771C212.433 38.6237 212.161 38.5971 211.884 38.5971C211.297 38.5971 210.769 38.6984 210.3 38.9011C209.831 39.1037 209.431 39.3971 209.1 39.7811C208.769 40.1651 208.513 40.6344 208.332 41.1891C208.161 41.7331 208.076 42.3464 208.076 43.0291C208.076 43.6904 208.151 44.2931 208.3 44.8371C208.46 45.3811 208.695 45.8504 209.004 46.2451C209.313 46.6291 209.697 46.9277 210.156 47.1411C210.625 47.3544 211.169 47.4611 211.788 47.4611C212.503 47.4611 213.095 47.3864 213.564 47.2371C214.033 47.0877 214.385 46.9544 214.62 46.8371L215.02 48.1171C214.945 48.1704 214.812 48.2397 214.62 48.3251C214.428 48.3997 214.188 48.4744 213.9 48.5491C213.612 48.6237 213.276 48.6877 212.892 48.7411C212.508 48.7944 212.092 48.8211 211.644 48.8211ZM219.518 47.5091C219.87 47.5091 220.179 47.5037 220.446 47.4931C220.723 47.4717 220.953 47.4397 221.134 47.3971V44.9171C221.027 44.8637 220.851 44.8211 220.606 44.7891C220.371 44.7464 220.083 44.7251 219.742 44.7251C219.518 44.7251 219.278 44.7411 219.022 44.7731C218.777 44.8051 218.547 44.8744 218.334 44.9811C218.131 45.0771 217.961 45.2157 217.822 45.3971C217.683 45.5677 217.614 45.7971 217.614 46.0851C217.614 46.6184 217.785 46.9917 218.126 47.2051C218.467 47.4077 218.931 47.5091 219.518 47.5091ZM219.39 40.0531C219.987 40.0531 220.489 40.1331 220.894 40.2931C221.31 40.4424 221.641 40.6611 221.886 40.9491C222.142 41.2264 222.323 41.5624 222.43 41.9571C222.537 42.3411 222.59 42.7677 222.59 43.2371V48.4371C222.462 48.4584 222.281 48.4904 222.046 48.5331C221.822 48.5651 221.566 48.5971 221.278 48.6291C220.99 48.6611 220.675 48.6877 220.334 48.7091C220.003 48.7411 219.673 48.7571 219.342 48.7571C218.873 48.7571 218.441 48.7091 218.046 48.6131C217.651 48.5171 217.31 48.3677 217.022 48.1651C216.734 47.9517 216.51 47.6744 216.35 47.3331C216.19 46.9917 216.11 46.5811 216.11 46.1011C216.11 45.6424 216.201 45.2477 216.382 44.9171C216.574 44.5864 216.83 44.3197 217.15 44.1171C217.47 43.9144 217.843 43.7651 218.27 43.6691C218.697 43.5731 219.145 43.5251 219.614 43.5251C219.763 43.5251 219.918 43.5357 220.078 43.5571C220.238 43.5677 220.387 43.5891 220.526 43.6211C220.675 43.6424 220.803 43.6637 220.91 43.6851C221.017 43.7064 221.091 43.7224 221.134 43.7331V43.3171C221.134 43.0717 221.107 42.8317 221.054 42.5971C221.001 42.3517 220.905 42.1384 220.766 41.9571C220.627 41.7651 220.435 41.6157 220.19 41.5091C219.955 41.3917 219.646 41.3331 219.262 41.3331C218.771 41.3331 218.339 41.3704 217.966 41.4451C217.603 41.5091 217.331 41.5784 217.15 41.6531L216.974 40.4211C217.166 40.3357 217.486 40.2557 217.934 40.1811C218.382 40.0957 218.867 40.0531 219.39 40.0531ZM226.997 47.5091C227.605 47.5091 228.053 47.4291 228.341 47.2691C228.64 47.1091 228.789 46.8531 228.789 46.5011C228.789 46.1384 228.645 45.8504 228.357 45.6371C228.069 45.4237 227.595 45.1837 226.933 44.9171C226.613 44.7891 226.304 44.6611 226.005 44.5331C225.717 44.3944 225.467 44.2344 225.253 44.0531C225.04 43.8717 224.869 43.6531 224.741 43.3971C224.613 43.1411 224.549 42.8264 224.549 42.4531C224.549 41.7171 224.821 41.1357 225.365 40.7091C225.909 40.2717 226.651 40.0531 227.589 40.0531C227.824 40.0531 228.059 40.0691 228.293 40.1011C228.528 40.1224 228.747 40.1544 228.949 40.1971C229.152 40.2291 229.328 40.2664 229.477 40.3091C229.637 40.3517 229.76 40.3891 229.845 40.4211L229.573 41.7011C229.413 41.6157 229.163 41.5304 228.821 41.4451C228.48 41.3491 228.069 41.3011 227.589 41.3011C227.173 41.3011 226.811 41.3864 226.501 41.5571C226.192 41.7171 226.037 41.9731 226.037 42.3251C226.037 42.5064 226.069 42.6664 226.133 42.8051C226.208 42.9437 226.315 43.0717 226.453 43.1891C226.603 43.2957 226.784 43.3971 226.997 43.4931C227.211 43.5891 227.467 43.6904 227.765 43.7971C228.16 43.9464 228.512 44.0957 228.821 44.2451C229.131 44.3837 229.392 44.5491 229.605 44.7411C229.829 44.9331 230 45.1677 230.117 45.4451C230.235 45.7117 230.293 46.0424 230.293 46.4371C230.293 47.2051 230.005 47.7864 229.429 48.1811C228.864 48.5757 228.053 48.7731 226.997 48.7731C226.261 48.7731 225.685 48.7091 225.269 48.5811C224.853 48.4637 224.571 48.3731 224.421 48.3091L224.693 47.0291C224.864 47.0931 225.136 47.1891 225.509 47.3171C225.883 47.4451 226.379 47.5091 226.997 47.5091ZM239.546 44.4211C239.546 45.0824 239.45 45.6797 239.258 46.2131C239.066 46.7464 238.794 47.2051 238.442 47.5891C238.101 47.9731 237.69 48.2717 237.21 48.4851C236.73 48.6877 236.207 48.7891 235.642 48.7891C235.077 48.7891 234.554 48.6877 234.074 48.4851C233.594 48.2717 233.178 47.9731 232.826 47.5891C232.485 47.2051 232.218 46.7464 232.026 46.2131C231.834 45.6797 231.738 45.0824 231.738 44.4211C231.738 43.7704 231.834 43.1784 232.026 42.6451C232.218 42.1011 232.485 41.6371 232.826 41.2531C233.178 40.8691 233.594 40.5757 234.074 40.3731C234.554 40.1597 235.077 40.0531 235.642 40.0531C236.207 40.0531 236.73 40.1597 237.21 40.3731C237.69 40.5757 238.101 40.8691 238.442 41.2531C238.794 41.6371 239.066 42.1011 239.258 42.6451C239.45 43.1784 239.546 43.7704 239.546 44.4211ZM237.994 44.4211C237.994 43.4824 237.781 42.7411 237.354 42.1971C236.938 41.6424 236.367 41.3651 235.642 41.3651C234.917 41.3651 234.341 41.6424 233.914 42.1971C233.498 42.7411 233.29 43.4824 233.29 44.4211C233.29 45.3597 233.498 46.1064 233.914 46.6611C234.341 47.2051 234.917 47.4771 235.642 47.4771C236.367 47.4771 236.938 47.2051 237.354 46.6611C237.781 46.1064 237.994 45.3597 237.994 44.4211ZM243.575 47.5091C244.183 47.5091 244.631 47.4291 244.919 47.2691C245.218 47.1091 245.367 46.8531 245.367 46.5011C245.367 46.1384 245.223 45.8504 244.935 45.6371C244.647 45.4237 244.173 45.1837 243.511 44.9171C243.191 44.7891 242.882 44.6611 242.583 44.5331C242.295 44.3944 242.045 44.2344 241.831 44.0531C241.618 43.8717 241.447 43.6531 241.319 43.3971C241.191 43.1411 241.127 42.8264 241.127 42.4531C241.127 41.7171 241.399 41.1357 241.943 40.7091C242.487 40.2717 243.229 40.0531 244.167 40.0531C244.402 40.0531 244.637 40.0691 244.871 40.1011C245.106 40.1224 245.325 40.1544 245.527 40.1971C245.73 40.2291 245.906 40.2664 246.055 40.3091C246.215 40.3517 246.338 40.3891 246.423 40.4211L246.151 41.7011C245.991 41.6157 245.741 41.5304 245.399 41.4451C245.058 41.3491 244.647 41.3011 244.167 41.3011C243.751 41.3011 243.389 41.3864 243.079 41.5571C242.77 41.7171 242.615 41.9731 242.615 42.3251C242.615 42.5064 242.647 42.6664 242.711 42.8051C242.786 42.9437 242.893 43.0717 243.031 43.1891C243.181 43.2957 243.362 43.3971 243.575 43.4931C243.789 43.5891 244.045 43.6904 244.343 43.7971C244.738 43.9464 245.09 44.0957 245.399 44.2451C245.709 44.3837 245.97 44.5491 246.183 44.7411C246.407 44.9331 246.578 45.1677 246.695 45.4451C246.813 45.7117 246.871 46.0424 246.871 46.4371C246.871 47.2051 246.583 47.7864 246.007 48.1811C245.442 48.5757 244.631 48.7731 243.575 48.7731C242.839 48.7731 242.263 48.7091 241.847 48.5811C241.431 48.4637 241.149 48.3731 240.999 48.3091L241.271 47.0291C241.442 47.0931 241.714 47.1891 242.087 47.3171C242.461 47.4451 242.957 47.5091 243.575 47.5091ZM258.259 44.4371C258.259 43.4664 258.019 42.7197 257.539 42.1971C257.059 41.6744 256.419 41.4131 255.619 41.4131C255.171 41.4131 254.819 41.4291 254.563 41.4611C254.318 41.4931 254.12 41.5304 253.971 41.5731V46.8211C254.152 46.9704 254.414 47.1144 254.755 47.2531C255.096 47.3917 255.47 47.4611 255.875 47.4611C256.302 47.4611 256.664 47.3864 256.963 47.2371C257.272 47.0771 257.523 46.8637 257.715 46.5971C257.907 46.3197 258.046 45.9997 258.131 45.6371C258.216 45.2637 258.259 44.8637 258.259 44.4371ZM259.811 44.4371C259.811 45.0664 259.726 45.6477 259.555 46.1811C259.395 46.7144 259.155 47.1731 258.835 47.5571C258.515 47.9411 258.12 48.2397 257.651 48.4531C257.192 48.6664 256.664 48.7731 256.067 48.7731C255.587 48.7731 255.16 48.7091 254.787 48.5811C254.424 48.4531 254.152 48.3304 253.971 48.2131V51.5411H252.483V40.5171C252.835 40.4317 253.272 40.3411 253.795 40.2451C254.328 40.1384 254.942 40.0851 255.635 40.0851C256.275 40.0851 256.851 40.1864 257.363 40.3891C257.875 40.5917 258.312 40.8797 258.675 41.2531C259.038 41.6264 259.315 42.0851 259.507 42.6291C259.71 43.1624 259.811 43.7651 259.811 44.4371ZM269.249 44.4211C269.249 45.0824 269.153 45.6797 268.961 46.2131C268.769 46.7464 268.497 47.2051 268.145 47.5891C267.804 47.9731 267.393 48.2717 266.913 48.4851C266.433 48.6877 265.91 48.7891 265.345 48.7891C264.78 48.7891 264.257 48.6877 263.777 48.4851C263.297 48.2717 262.881 47.9731 262.529 47.5891C262.188 47.2051 261.921 46.7464 261.729 46.2131C261.537 45.6797 261.441 45.0824 261.441 44.4211C261.441 43.7704 261.537 43.1784 261.729 42.6451C261.921 42.1011 262.188 41.6371 262.529 41.2531C262.881 40.8691 263.297 40.5757 263.777 40.3731C264.257 40.1597 264.78 40.0531 265.345 40.0531C265.91 40.0531 266.433 40.1597 266.913 40.3731C267.393 40.5757 267.804 40.8691 268.145 41.2531C268.497 41.6371 268.769 42.1011 268.961 42.6451C269.153 43.1784 269.249 43.7704 269.249 44.4211ZM267.697 44.4211C267.697 43.4824 267.484 42.7411 267.057 42.1971C266.641 41.6424 266.07 41.3651 265.345 41.3651C264.62 41.3651 264.044 41.6424 263.617 42.1971C263.201 42.7411 262.993 43.4824 262.993 44.4211C262.993 45.3597 263.201 46.1064 263.617 46.6611C264.044 47.2051 264.62 47.4771 265.345 47.4771C266.07 47.4771 266.641 47.2051 267.057 46.6611C267.484 46.1064 267.697 45.3597 267.697 44.4211ZM273.279 47.5091C273.887 47.5091 274.335 47.4291 274.623 47.2691C274.921 47.1091 275.071 46.8531 275.071 46.5011C275.071 46.1384 274.927 45.8504 274.639 45.6371C274.351 45.4237 273.876 45.1837 273.215 44.9171C272.895 44.7891 272.585 44.6611 272.287 44.5331C271.999 44.3944 271.748 44.2344 271.535 44.0531C271.321 43.8717 271.151 43.6531 271.023 43.3971C270.895 43.1411 270.831 42.8264 270.831 42.4531C270.831 41.7171 271.103 41.1357 271.647 40.7091C272.191 40.2717 272.932 40.0531 273.871 40.0531C274.105 40.0531 274.34 40.0691 274.575 40.1011C274.809 40.1224 275.028 40.1544 275.231 40.1971C275.433 40.2291 275.609 40.2664 275.759 40.3091C275.919 40.3517 276.041 40.3891 276.127 40.4211L275.855 41.7011C275.695 41.6157 275.444 41.5304 275.103 41.4451C274.761 41.3491 274.351 41.3011 273.871 41.3011C273.455 41.3011 273.092 41.3864 272.783 41.5571C272.473 41.7171 272.319 41.9731 272.319 42.3251C272.319 42.5064 272.351 42.6664 272.414 42.8051C272.489 42.9437 272.596 43.0717 272.735 43.1891C272.884 43.2957 273.065 43.3971 273.279 43.4931C273.492 43.5891 273.748 43.6904 274.047 43.7971C274.441 43.9464 274.793 44.0957 275.103 44.2451C275.412 44.3837 275.673 44.5491 275.887 44.7411C276.111 44.9331 276.281 45.1677 276.399 45.4451C276.516 45.7117 276.575 46.0424 276.575 46.4371C276.575 47.2051 276.287 47.7864 275.711 48.1811C275.145 48.5757 274.335 48.7731 273.279 48.7731C272.543 48.7731 271.967 48.7091 271.551 48.5811C271.135 48.4637 270.852 48.3731 270.703 48.3091L270.975 47.0291C271.145 47.0931 271.417 47.1891 271.791 47.3171C272.164 47.4451 272.66 47.5091 273.279 47.5091ZM279.971 48.5811H278.483V40.2611H279.971V48.5811ZM279.219 38.7571C278.952 38.7571 278.723 38.6717 278.531 38.5011C278.35 38.3197 278.259 38.0797 278.259 37.7811C278.259 37.4824 278.35 37.2477 278.531 37.0771C278.723 36.8957 278.952 36.8051 279.219 36.8051C279.486 36.8051 279.71 36.8957 279.891 37.0771C280.083 37.2477 280.179 37.4824 280.179 37.7811C280.179 38.0797 280.083 38.3197 279.891 38.5011C279.71 38.6717 279.486 38.7571 279.219 38.7571ZM283.922 40.2611H287.074V41.5091H283.922V45.3491C283.922 45.7651 283.954 46.1117 284.018 46.3891C284.082 46.6557 284.178 46.8691 284.306 47.0291C284.434 47.1784 284.594 47.2851 284.786 47.3491C284.978 47.4131 285.202 47.4451 285.458 47.4451C285.906 47.4451 286.263 47.3971 286.53 47.3011C286.807 47.1944 286.999 47.1197 287.106 47.0771L287.394 48.3091C287.245 48.3837 286.983 48.4744 286.61 48.5811C286.237 48.6984 285.81 48.7571 285.33 48.7571C284.765 48.7571 284.295 48.6877 283.922 48.5491C283.559 48.3997 283.266 48.1811 283.042 47.8931C282.818 47.6051 282.658 47.2531 282.562 46.8371C282.477 46.4104 282.434 45.9197 282.434 45.3651V37.9411L283.922 37.6851V40.2611ZM290.456 48.5811H288.968V40.2611H290.456V48.5811ZM289.704 38.7571C289.437 38.7571 289.208 38.6717 289.016 38.5011C288.834 38.3197 288.743 38.0797 288.743 37.7811C288.743 37.4824 288.834 37.2477 289.016 37.0771C289.208 36.8957 289.437 36.8051 289.704 36.8051C289.97 36.8051 290.194 36.8957 290.376 37.0771C290.568 37.2477 290.664 37.4824 290.664 37.7811C290.664 38.0797 290.568 38.3197 290.376 38.5011C290.194 38.6717 289.97 38.7571 289.704 38.7571ZM299.51 40.2611C299.094 41.8184 298.604 43.3117 298.038 44.7411C297.484 46.1704 296.945 47.4504 296.422 48.5811H295.078C294.556 47.4504 294.012 46.1704 293.446 44.7411C292.892 43.3117 292.406 41.8184 291.99 40.2611H293.59C293.718 40.7837 293.868 41.3437 294.038 41.9411C294.22 42.5277 294.406 43.1144 294.598 43.7011C294.801 44.2771 295.004 44.8371 295.206 45.3811C295.409 45.9251 295.601 46.4104 295.782 46.8371C295.964 46.4104 296.156 45.9251 296.358 45.3811C296.561 44.8371 296.758 44.2771 296.95 43.7011C297.153 43.1144 297.34 42.5277 297.51 41.9411C297.692 41.3437 297.846 40.7837 297.974 40.2611H299.51ZM308.171 44.4211C308.171 45.0824 308.075 45.6797 307.883 46.2131C307.691 46.7464 307.419 47.2051 307.067 47.5891C306.726 47.9731 306.315 48.2717 305.835 48.4851C305.355 48.6877 304.832 48.7891 304.267 48.7891C303.702 48.7891 303.179 48.6877 302.699 48.4851C302.219 48.2717 301.803 47.9731 301.451 47.5891C301.11 47.2051 300.843 46.7464 300.651 46.2131C300.459 45.6797 300.363 45.0824 300.363 44.4211C300.363 43.7704 300.459 43.1784 300.651 42.6451C300.843 42.1011 301.11 41.6371 301.451 41.2531C301.803 40.8691 302.219 40.5757 302.699 40.3731C303.179 40.1597 303.702 40.0531 304.267 40.0531C304.832 40.0531 305.355 40.1597 305.835 40.3731C306.315 40.5757 306.726 40.8691 307.067 41.2531C307.419 41.6371 307.691 42.1011 307.883 42.6451C308.075 43.1784 308.171 43.7704 308.171 44.4211ZM306.619 44.4211C306.619 43.4824 306.406 42.7411 305.979 42.1971C305.563 41.6424 304.992 41.3651 304.267 41.3651C303.542 41.3651 302.966 41.6424 302.539 42.1971C302.123 42.7411 301.915 43.4824 301.915 44.4211C301.915 45.3597 302.123 46.1064 302.539 46.6611C302.966 47.2051 303.542 47.4771 304.267 47.4771C304.992 47.4771 305.563 47.2051 305.979 46.6611C306.406 46.1064 306.619 45.3597 306.619 44.4211ZM312.2 47.5091C312.808 47.5091 313.256 47.4291 313.544 47.2691C313.843 47.1091 313.992 46.8531 313.992 46.5011C313.992 46.1384 313.848 45.8504 313.56 45.6371C313.272 45.4237 312.798 45.1837 312.136 44.9171C311.816 44.7891 311.507 44.6611 311.208 44.5331C310.92 44.3944 310.67 44.2344 310.456 44.0531C310.243 43.8717 310.072 43.6531 309.944 43.3971C309.816 43.1411 309.752 42.8264 309.752 42.4531C309.752 41.7171 310.024 41.1357 310.568 40.7091C311.112 40.2717 311.854 40.0531 312.792 40.0531C313.027 40.0531 313.262 40.0691 313.496 40.1011C313.731 40.1224 313.95 40.1544 314.152 40.1971C314.355 40.2291 314.531 40.2664 314.68 40.3091C314.84 40.3517 314.963 40.3891 315.048 40.4211L314.776 41.7011C314.616 41.6157 314.366 41.5304 314.024 41.4451C313.683 41.3491 313.272 41.3011 312.792 41.3011C312.376 41.3011 312.014 41.3864 311.704 41.5571C311.395 41.7171 311.24 41.9731 311.24 42.3251C311.24 42.5064 311.272 42.6664 311.336 42.8051C311.411 42.9437 311.518 43.0717 311.656 43.1891C311.806 43.2957 311.987 43.3971 312.2 43.4931C312.414 43.5891 312.67 43.6904 312.968 43.7971C313.363 43.9464 313.715 44.0957 314.024 44.2451C314.334 44.3837 314.595 44.5491 314.808 44.7411C315.032 44.9331 315.203 45.1677 315.32 45.4451C315.438 45.7117 315.496 46.0424 315.496 46.4371C315.496 47.2051 315.208 47.7864 314.632 48.1811C314.067 48.5757 313.256 48.7731 312.2 48.7731C311.464 48.7731 310.888 48.7091 310.472 48.5811C310.056 48.4637 309.774 48.3731 309.624 48.3091L309.896 47.0291C310.067 47.0931 310.339 47.1891 310.712 47.3171C311.086 47.4451 311.582 47.5091 312.2 47.5091Z" fill="#292929"/>
</g>
<defs>
<filter id="filter0_d_955_5766" x="0" y="0.581055" width="426" height="341" filterUnits="userSpaceOnUse" color-interpolation-filters="sRGB">
<feFlood flood-opacity="0" result="BackgroundImageFix"/>
<feColorMatrix in="SourceAlpha" type="matrix" values="0 0 0 0 0 0 0 0 0 0 0 0 0 0 0 0 0 0 127 0" result="hardAlpha"/>
<feOffset/>
<feGaussianBlur stdDeviation="8"/>
<feComposite in2="hardAlpha" operator="out"/>
<feColorMatrix type="matrix" values="0 0 0 0 0 0 0 0 0 0 0 0 0 0 0 0 0 0 0.08 0"/>
<feBlend mode="normal" in2="BackgroundImageFix" result="effect1_dropShadow_955_5766"/>
<feBlend mode="normal" in="SourceGraphic" in2="effect1_dropShadow_955_5766" result="shape"/>
</filter>
<clipPath id="clip0_955_5766">
<rect width="329" height="233" fill="white" transform="translate(49 69.5811)"/>
</clipPath>
</defs>
</svg>
