<svg width="428" height="636" viewBox="0 0 428 636" fill="none" xmlns="http://www.w3.org/2000/svg">
<g clip-path="url(#clip0_973_607)">
<path d="M304.357 56.071L302.486 54.8454H300.248H127.752H125.602L123.779 55.9836L8.2648 128.107C8.12784 128.193 8.05603 128.195 8.02032 128.196C7.95972 128.196 7.86404 128.179 7.75751 128.12C7.65097 128.061 7.586 127.989 7.55429 127.937C7.53561 127.907 7.5 127.844 7.5 127.683V-152.951V-577.931H420.5V-152.951V131.199C420.5 131.365 420.463 131.427 420.445 131.456C420.414 131.507 420.347 131.579 420.238 131.639C420.128 131.698 420.031 131.713 419.971 131.712C419.937 131.711 419.865 131.708 419.726 131.617L304.357 56.071Z" fill="#9D2D15" stroke="#9D2D15" stroke-width="15"/>
<mask id="mask0_973_607" style="mask-type:luminance" maskUnits="userSpaceOnUse" x="376" y="60" width="35" height="35">
<path d="M411 60H376V95H411V60Z" fill="white"/>
</mask>
<g mask="url(#mask0_973_607)">
<path d="M393.5 81.875C395.916 81.875 397.875 79.9162 397.875 77.5C397.875 75.0838 395.916 73.125 393.5 73.125C391.084 73.125 389.125 75.0838 389.125 77.5C389.125 79.9162 391.084 81.875 393.5 81.875Z" stroke="white" stroke-width="3" stroke-linecap="round" stroke-linejoin="round"/>
<path d="M404.292 81.8752C404.098 82.315 404.04 82.8029 404.125 83.276C404.211 83.7491 404.437 84.1856 404.773 84.5293L404.86 84.6168C405.132 84.8877 405.347 85.2094 405.494 85.5635C405.64 85.9175 405.716 86.2971 405.716 86.6804C405.716 87.0637 405.64 87.4432 405.494 87.7973C405.347 88.1514 405.132 88.473 404.86 88.7439C404.59 89.0151 404.268 89.2302 403.914 89.377C403.56 89.5238 403.18 89.5993 402.797 89.5993C402.414 89.5993 402.034 89.5238 401.68 89.377C401.326 89.2302 401.004 89.0151 400.733 88.7439L400.646 88.6564C400.302 88.3202 399.866 88.0947 399.393 88.0089C398.919 87.9231 398.432 87.981 397.992 88.1752C397.56 88.36 397.192 88.667 396.933 89.0582C396.674 89.4495 396.535 89.908 396.533 90.3772V90.6252C396.533 91.3987 396.226 92.1406 395.679 92.6876C395.132 93.2345 394.39 93.5418 393.617 93.5418C392.843 93.5418 392.101 93.2345 391.554 92.6876C391.007 92.1406 390.7 91.3987 390.7 90.6252V90.4939C390.689 90.0112 390.532 89.5431 390.252 89.1504C389.971 88.7576 389.578 88.4585 389.125 88.2918C388.685 88.0977 388.197 88.0398 387.724 88.1256C387.251 88.2113 386.815 88.4369 386.471 88.7731L386.383 88.8606C386.112 89.1318 385.791 89.3469 385.437 89.4937C385.083 89.6404 384.703 89.716 384.32 89.716C383.937 89.716 383.557 89.6404 383.203 89.4937C382.849 89.3469 382.527 89.1318 382.256 88.8606C381.985 88.5897 381.77 88.268 381.623 87.9139C381.476 87.5599 381.401 87.1803 381.401 86.797C381.401 86.4137 381.476 86.0342 381.623 85.6801C381.77 85.326 381.985 85.0044 382.256 84.7335L382.344 84.646C382.68 84.3023 382.905 83.8658 382.991 83.3927C383.077 82.9196 383.019 82.4317 382.825 81.9918C382.64 81.5605 382.333 81.1926 381.942 80.9335C381.551 80.6744 381.092 80.5354 380.623 80.5335H380.375C379.601 80.5335 378.86 80.2262 378.313 79.6792C377.766 79.1322 377.458 78.3904 377.458 77.6168C377.458 76.8433 377.766 76.1014 378.313 75.5544C378.86 75.0075 379.601 74.7002 380.375 74.7002H380.506C380.989 74.6889 381.457 74.5326 381.85 74.2517C382.243 73.9709 382.542 73.5783 382.708 73.1252C382.902 72.6853 382.96 72.1974 382.875 71.7243C382.789 71.2512 382.563 70.8147 382.227 70.471L382.14 70.3835C381.868 70.1126 381.653 69.7909 381.507 69.4369C381.36 69.0828 381.284 68.7032 381.284 68.32C381.284 67.9367 381.36 67.5571 381.507 67.203C381.653 66.849 381.868 66.5273 382.14 66.2564C382.41 65.9852 382.732 65.7701 383.086 65.6233C383.44 65.4765 383.82 65.401 384.203 65.401C384.586 65.401 384.966 65.4765 385.32 65.6233C385.674 65.7701 385.996 65.9852 386.267 66.2564L386.354 66.3439C386.698 66.6801 387.134 66.9056 387.607 66.9914C388.081 67.0772 388.568 67.0193 389.008 66.8252H389.125C389.556 66.6403 389.924 66.3333 390.183 65.9421C390.442 65.5508 390.581 65.0924 390.583 64.6231V64.3752C390.583 63.6016 390.891 62.8597 391.438 62.3128C391.985 61.7658 392.726 61.4585 393.5 61.4585C394.274 61.4585 395.015 61.7658 395.562 62.3128C396.109 62.8597 396.417 63.6016 396.417 64.3752V64.5064C396.419 64.9757 396.558 65.4342 396.817 65.8254C397.076 66.2167 397.444 66.5236 397.875 66.7085C398.315 66.9026 398.803 66.9605 399.276 66.8748C399.749 66.789 400.185 66.5634 400.529 66.2272L400.617 66.1397C400.888 65.8686 401.209 65.6534 401.563 65.5067C401.917 65.3599 402.297 65.2843 402.68 65.2843C403.064 65.2843 403.443 65.3599 403.797 65.5067C404.151 65.6534 404.473 65.8686 404.744 66.1397C405.015 66.4106 405.23 66.7323 405.377 67.0864C405.524 67.4405 405.599 67.82 405.599 68.2033C405.599 68.5866 405.524 68.9661 405.377 69.3202C405.23 69.6743 405.015 69.9959 404.744 70.2668L404.656 70.3543C404.32 70.698 404.095 71.1346 404.009 71.6076C403.923 72.0807 403.981 72.5686 404.175 73.0085V73.1252C404.36 73.5565 404.667 73.9244 405.058 74.1835C405.449 74.4426 405.908 74.5816 406.377 74.5835H406.625C407.399 74.5835 408.14 74.8908 408.687 75.4378C409.234 75.9847 409.542 76.7266 409.542 77.5002C409.542 78.2737 409.234 79.0156 408.687 79.5626C408.14 80.1095 407.399 80.4168 406.625 80.4168H406.494C406.024 80.4187 405.566 80.5577 405.175 80.8169C404.783 81.076 404.477 81.4438 404.292 81.8752Z" stroke="white" stroke-width="3" stroke-linecap="round" stroke-linejoin="round"/>
</g>
<path d="M403 150.5H25C23.067 150.5 21.5 152.067 21.5 154V202C21.5 203.933 23.067 205.5 25 205.5H403C404.933 205.5 406.5 203.933 406.5 202V154C406.5 152.067 404.933 150.5 403 150.5Z" stroke="#D8491D"/>
<mask id="mask1_973_607" style="mask-type:luminance" maskUnits="userSpaceOnUse" x="25" y="158" width="40" height="40">
<path d="M65 178C65 166.954 56.0457 158 45 158C33.9543 158 25 166.954 25 178C25 189.046 33.9543 198 45 198C56.0457 198 65 189.046 65 178Z" fill="white"/>
</mask>
<g mask="url(#mask1_973_607)">
<path fill-rule="evenodd" clip-rule="evenodd" d="M47.76 179.27L53.49 185L52 186.49L46.27 180.76C45.2 181.53 43.91 182 42.5 182C38.91 182 36 179.09 36 175.5C36 171.91 38.91 169 42.5 169C46.09 169 49 171.91 49 175.5C49 176.91 48.53 178.2 47.76 179.27ZM42.5 171C40.01 171 38 173.01 38 175.5C38 177.99 40.01 180 42.5 180C44.99 180 47 177.99 47 175.5C47 173.01 44.99 171 42.5 171Z" fill="#292929"/>
</g>
<path d="M73.86 172.4C75.612 172.4 76.956 172.736 77.892 173.408C78.84 174.068 79.314 175.058 79.314 176.378C79.314 177.098 79.182 177.716 78.918 178.232C78.666 178.736 78.294 179.15 77.802 179.474C77.322 179.786 76.734 180.014 76.038 180.158C75.342 180.302 74.556 180.374 73.68 180.374H72.294V185H70.548V172.706C71.04 172.586 71.586 172.508 72.186 172.472C72.798 172.424 73.356 172.4 73.86 172.4ZM74.004 173.93C73.26 173.93 72.69 173.948 72.294 173.984V178.88H73.608C74.208 178.88 74.748 178.844 75.228 178.772C75.708 178.688 76.11 178.556 76.434 178.376C76.77 178.184 77.028 177.926 77.208 177.602C77.388 177.278 77.478 176.864 77.478 176.36C77.478 175.88 77.382 175.484 77.19 175.172C77.01 174.86 76.758 174.614 76.434 174.434C76.122 174.242 75.756 174.11 75.336 174.038C74.916 173.966 74.472 173.93 74.004 173.93ZM84.7252 183.794C85.1212 183.794 85.4692 183.788 85.7692 183.776C86.0812 183.752 86.3392 183.716 86.5432 183.668V180.878C86.4232 180.818 86.2252 180.77 85.9492 180.734C85.6852 180.686 85.3612 180.662 84.9772 180.662C84.7252 180.662 84.4552 180.68 84.1672 180.716C83.8912 180.752 83.6332 180.83 83.3932 180.95C83.1652 181.058 82.9732 181.214 82.8172 181.418C82.6612 181.61 82.5832 181.868 82.5832 182.192C82.5832 182.792 82.7752 183.212 83.1592 183.452C83.5432 183.68 84.0652 183.794 84.7252 183.794ZM84.5812 175.406C85.2532 175.406 85.8172 175.496 86.2732 175.676C86.7412 175.844 87.1132 176.09 87.3892 176.414C87.6772 176.726 87.8812 177.104 88.0012 177.548C88.1212 177.98 88.1812 178.46 88.1812 178.988V184.838C88.0372 184.862 87.8332 184.898 87.5692 184.946C87.3172 184.982 87.0292 185.018 86.7052 185.054C86.3812 185.09 86.0272 185.12 85.6432 185.144C85.2712 185.18 84.8992 185.198 84.5272 185.198C83.9992 185.198 83.5132 185.144 83.0692 185.036C82.6252 184.928 82.2412 184.76 81.9172 184.532C81.5932 184.292 81.3412 183.98 81.1612 183.596C80.9812 183.212 80.8912 182.75 80.8912 182.21C80.8912 181.694 80.9932 181.25 81.1972 180.878C81.4132 180.506 81.7012 180.206 82.0612 179.978C82.4212 179.75 82.8412 179.582 83.3212 179.474C83.8012 179.366 84.3052 179.312 84.8332 179.312C85.0012 179.312 85.1752 179.324 85.3552 179.348C85.5352 179.36 85.7032 179.384 85.8592 179.42C86.0272 179.444 86.1712 179.468 86.2912 179.492C86.4112 179.516 86.4952 179.534 86.5432 179.546V179.078C86.5432 178.802 86.5132 178.532 86.4532 178.268C86.3932 177.992 86.2852 177.752 86.1292 177.548C85.9732 177.332 85.7572 177.164 85.4812 177.044C85.2172 176.912 84.8692 176.846 84.4372 176.846C83.8852 176.846 83.3992 176.888 82.9792 176.972C82.5712 177.044 82.2652 177.122 82.0612 177.206L81.8632 175.82C82.0792 175.724 82.4392 175.634 82.9432 175.55C83.4472 175.454 83.9932 175.406 84.5812 175.406ZM98.9135 184.73C98.5295 184.826 98.0195 184.928 97.3835 185.036C96.7595 185.144 96.0335 185.198 95.2055 185.198C94.4855 185.198 93.8795 185.096 93.3875 184.892C92.8955 184.676 92.4995 184.376 92.1995 183.992C91.8995 183.608 91.6835 183.158 91.5515 182.642C91.4195 182.114 91.3535 181.532 91.3535 180.896V175.64H93.0275V180.536C93.0275 181.676 93.2075 182.492 93.5675 182.984C93.9275 183.476 94.5335 183.722 95.3855 183.722C95.5655 183.722 95.7515 183.716 95.9435 183.704C96.1355 183.692 96.3155 183.68 96.4835 183.668C96.6515 183.644 96.8015 183.626 96.9335 183.614C97.0775 183.59 97.1795 183.566 97.2395 183.542V175.64H98.9135V184.73ZM105.105 185.18C104.073 185.156 103.341 184.934 102.909 184.514C102.477 184.094 102.261 183.44 102.261 182.552V171.32L103.935 171.032V182.282C103.935 182.558 103.959 182.786 104.007 182.966C104.055 183.146 104.133 183.29 104.241 183.398C104.349 183.506 104.493 183.59 104.673 183.65C104.853 183.698 105.075 183.74 105.339 183.776L105.105 185.18ZM109.393 185H107.719V175.64H109.393V185ZM108.547 173.948C108.247 173.948 107.989 173.852 107.773 173.66C107.569 173.456 107.467 173.186 107.467 172.85C107.467 172.514 107.569 172.25 107.773 172.058C107.989 171.854 108.247 171.752 108.547 171.752C108.847 171.752 109.099 171.854 109.303 172.058C109.519 172.25 109.627 172.514 109.627 172.85C109.627 173.186 109.519 173.456 109.303 173.66C109.099 173.852 108.847 173.948 108.547 173.948ZM112.772 175.91C113.156 175.814 113.666 175.712 114.302 175.604C114.938 175.496 115.67 175.442 116.498 175.442C117.242 175.442 117.86 175.55 118.352 175.766C118.844 175.97 119.234 176.264 119.522 176.648C119.822 177.02 120.032 177.47 120.152 177.998C120.272 178.526 120.332 179.108 120.332 179.744V185H118.658V180.104C118.658 179.528 118.616 179.036 118.532 178.628C118.46 178.22 118.334 177.89 118.154 177.638C117.974 177.386 117.734 177.206 117.434 177.098C117.134 176.978 116.762 176.918 116.318 176.918C116.138 176.918 115.952 176.924 115.76 176.936C115.568 176.948 115.382 176.966 115.202 176.99C115.034 177.002 114.878 177.02 114.734 177.044C114.602 177.068 114.506 177.086 114.446 177.098V185H112.772V175.91ZM123.608 185V171.32L125.282 171.032V175.82C125.594 175.7 125.924 175.61 126.272 175.55C126.632 175.478 126.986 175.442 127.334 175.442C128.078 175.442 128.696 175.55 129.188 175.766C129.68 175.97 130.07 176.264 130.358 176.648C130.658 177.02 130.868 177.47 130.988 177.998C131.108 178.526 131.168 179.108 131.168 179.744V185H129.494V180.104C129.494 179.528 129.452 179.036 129.368 178.628C129.296 178.22 129.17 177.89 128.99 177.638C128.81 177.386 128.57 177.206 128.27 177.098C127.97 176.978 127.598 176.918 127.154 176.918C126.974 176.918 126.788 176.93 126.596 176.954C126.404 176.978 126.218 177.008 126.038 177.044C125.87 177.068 125.714 177.098 125.57 177.134C125.438 177.17 125.342 177.2 125.282 177.224V185H123.608ZM142.653 180.32C142.653 181.064 142.545 181.736 142.329 182.336C142.113 182.936 141.807 183.452 141.411 183.884C141.027 184.316 140.565 184.652 140.025 184.892C139.485 185.12 138.897 185.234 138.261 185.234C137.625 185.234 137.037 185.12 136.497 184.892C135.957 184.652 135.489 184.316 135.093 183.884C134.709 183.452 134.409 182.936 134.193 182.336C133.977 181.736 133.869 181.064 133.869 180.32C133.869 179.588 133.977 178.922 134.193 178.322C134.409 177.71 134.709 177.188 135.093 176.756C135.489 176.324 135.957 175.994 136.497 175.766C137.037 175.526 137.625 175.406 138.261 175.406C138.897 175.406 139.485 175.526 140.025 175.766C140.565 175.994 141.027 176.324 141.411 176.756C141.807 177.188 142.113 177.71 142.329 178.322C142.545 178.922 142.653 179.588 142.653 180.32ZM140.907 180.32C140.907 179.264 140.667 178.43 140.187 177.818C139.719 177.194 139.077 176.882 138.261 176.882C137.445 176.882 136.797 177.194 136.317 177.818C135.849 178.43 135.615 179.264 135.615 180.32C135.615 181.376 135.849 182.216 136.317 182.84C136.797 183.452 137.445 183.758 138.261 183.758C139.077 183.758 139.719 183.452 140.187 182.84C140.667 182.216 140.907 181.376 140.907 180.32Z" fill="#292929"/>
<path d="M78 142H33V158H78V142Z" fill="white"/>
<path d="M40.276 154.072C40.108 154.072 39.924 154.068 39.724 154.06C39.532 154.052 39.336 154.04 39.136 154.024C38.944 154.008 38.752 153.988 38.56 153.964C38.368 153.94 38.192 153.908 38.032 153.868V145.804C38.192 145.764 38.368 145.732 38.56 145.708C38.752 145.684 38.944 145.664 39.136 145.648C39.336 145.632 39.532 145.62 39.724 145.612C39.916 145.604 40.096 145.6 40.264 145.6C40.744 145.6 41.192 145.636 41.608 145.708C42.032 145.78 42.396 145.904 42.7 146.08C43.012 146.248 43.256 146.472 43.432 146.752C43.608 147.032 43.696 147.376 43.696 147.784C43.696 148.24 43.588 148.616 43.372 148.912C43.156 149.2 42.868 149.416 42.508 149.56C42.996 149.704 43.384 149.932 43.672 150.244C43.96 150.556 44.104 150.996 44.104 151.564C44.104 152.396 43.796 153.024 43.18 153.448C42.572 153.864 41.604 154.072 40.276 154.072ZM39.184 150.124V153.052C39.272 153.06 39.376 153.068 39.496 153.076C39.6 153.084 39.72 153.092 39.856 153.1C40 153.1 40.164 153.1 40.348 153.1C40.692 153.1 41.016 153.08 41.32 153.04C41.632 152.992 41.904 152.912 42.136 152.8C42.368 152.688 42.552 152.532 42.688 152.332C42.832 152.132 42.904 151.88 42.904 151.576C42.904 151.304 42.852 151.076 42.748 150.892C42.644 150.7 42.492 150.548 42.292 150.436C42.1 150.324 41.868 150.244 41.596 150.196C41.324 150.148 41.02 150.124 40.684 150.124H39.184ZM39.184 149.188H40.408C40.696 149.188 40.968 149.168 41.224 149.128C41.48 149.088 41.7 149.016 41.884 148.912C42.076 148.808 42.224 148.672 42.328 148.504C42.44 148.336 42.496 148.124 42.496 147.868C42.496 147.628 42.44 147.428 42.328 147.268C42.216 147.1 42.06 146.968 41.86 146.872C41.668 146.768 41.44 146.692 41.176 146.644C40.912 146.596 40.632 146.572 40.336 146.572C40.04 146.572 39.808 146.576 39.64 146.584C39.472 146.592 39.32 146.604 39.184 146.62V149.188ZM50.6389 153.82C50.3829 153.884 50.0429 153.952 49.6189 154.024C49.2029 154.096 48.7189 154.132 48.1669 154.132C47.6869 154.132 47.2829 154.064 46.9549 153.928C46.6269 153.784 46.3629 153.584 46.1629 153.328C45.9629 153.072 45.8189 152.772 45.7309 152.428C45.6429 152.076 45.5989 151.688 45.5989 151.264V147.76H46.7149V151.024C46.7149 151.784 46.8349 152.328 47.0749 152.656C47.3149 152.984 47.7189 153.148 48.2869 153.148C48.4069 153.148 48.5309 153.144 48.6589 153.136C48.7869 153.128 48.9069 153.12 49.0189 153.112C49.1309 153.096 49.2309 153.084 49.3189 153.076C49.4149 153.06 49.4829 153.044 49.5229 153.028V147.76H50.6389V153.82ZM54.0136 153.196C54.4696 153.196 54.8056 153.136 55.0216 153.016C55.2456 152.896 55.3576 152.704 55.3576 152.44C55.3576 152.168 55.2496 151.952 55.0336 151.792C54.8176 151.632 54.4616 151.452 53.9656 151.252C53.7256 151.156 53.4936 151.06 53.2696 150.964C53.0536 150.86 52.8656 150.74 52.7056 150.604C52.5456 150.468 52.4176 150.304 52.3216 150.112C52.2256 149.92 52.1776 149.684 52.1776 149.404C52.1776 148.852 52.3816 148.416 52.7896 148.096C53.1976 147.768 53.7536 147.604 54.4576 147.604C54.6336 147.604 54.8096 147.616 54.9856 147.64C55.1616 147.656 55.3256 147.68 55.4776 147.712C55.6296 147.736 55.7616 147.764 55.8736 147.796C55.9936 147.828 56.0856 147.856 56.1496 147.88L55.9456 148.84C55.8256 148.776 55.6376 148.712 55.3816 148.648C55.1256 148.576 54.8176 148.54 54.4576 148.54C54.1456 148.54 53.8736 148.604 53.6416 148.732C53.4096 148.852 53.2936 149.044 53.2936 149.308C53.2936 149.444 53.3176 149.564 53.3656 149.668C53.4216 149.772 53.5016 149.868 53.6056 149.956C53.7176 150.036 53.8536 150.112 54.0136 150.184C54.1736 150.256 54.3656 150.332 54.5896 150.412C54.8856 150.524 55.1496 150.636 55.3816 150.748C55.6136 150.852 55.8096 150.976 55.9696 151.12C56.1376 151.264 56.2656 151.44 56.3536 151.648C56.4416 151.848 56.4856 152.096 56.4856 152.392C56.4856 152.968 56.2696 153.404 55.8376 153.7C55.4136 153.996 54.8056 154.144 54.0136 154.144C53.4616 154.144 53.0296 154.096 52.7176 154C52.4056 153.912 52.1936 153.844 52.0816 153.796L52.2856 152.836C52.4136 152.884 52.6176 152.956 52.8976 153.052C53.1776 153.148 53.5496 153.196 54.0136 153.196ZM60.629 154.144C60.125 154.144 59.681 154.064 59.297 153.904C58.921 153.744 58.601 153.52 58.337 153.232C58.081 152.944 57.889 152.604 57.761 152.212C57.633 151.812 57.569 151.372 57.569 150.892C57.569 150.412 57.637 149.972 57.773 149.572C57.917 149.172 58.117 148.828 58.373 148.54C58.629 148.244 58.941 148.016 59.309 147.856C59.685 147.688 60.101 147.604 60.557 147.604C60.837 147.604 61.117 147.628 61.397 147.676C61.677 147.724 61.945 147.8 62.201 147.904L61.949 148.852C61.781 148.772 61.585 148.708 61.361 148.66C61.145 148.612 60.913 148.588 60.665 148.588C60.041 148.588 59.561 148.784 59.225 149.176C58.897 149.568 58.733 150.14 58.733 150.892C58.733 151.228 58.769 151.536 58.841 151.816C58.921 152.096 59.041 152.336 59.201 152.536C59.369 152.736 59.581 152.892 59.837 153.004C60.093 153.108 60.405 153.16 60.773 153.16C61.069 153.16 61.337 153.132 61.577 153.076C61.817 153.02 62.005 152.96 62.141 152.896L62.297 153.832C62.233 153.872 62.141 153.912 62.021 153.952C61.901 153.984 61.765 154.012 61.613 154.036C61.461 154.068 61.297 154.092 61.121 154.108C60.953 154.132 60.789 154.144 60.629 154.144ZM65.6072 153.196C65.8712 153.196 66.1032 153.192 66.3032 153.184C66.5112 153.168 66.6832 153.144 66.8192 153.112V151.252C66.7392 151.212 66.6072 151.18 66.4232 151.156C66.2472 151.124 66.0312 151.108 65.7752 151.108C65.6072 151.108 65.4272 151.12 65.2352 151.144C65.0512 151.168 64.8792 151.22 64.7192 151.3C64.5672 151.372 64.4392 151.476 64.3352 151.612C64.2312 151.74 64.1792 151.912 64.1792 152.128C64.1792 152.528 64.3072 152.808 64.5632 152.968C64.8192 153.12 65.1672 153.196 65.6072 153.196ZM65.5112 147.604C65.9592 147.604 66.3352 147.664 66.6392 147.784C66.9512 147.896 67.1992 148.06 67.3832 148.276C67.5752 148.484 67.7112 148.736 67.7912 149.032C67.8712 149.32 67.9112 149.64 67.9112 149.992V153.892C67.8152 153.908 67.6792 153.932 67.5032 153.964C67.3352 153.988 67.1432 154.012 66.9272 154.036C66.7112 154.06 66.4752 154.08 66.2192 154.096C65.9712 154.12 65.7232 154.132 65.4752 154.132C65.1232 154.132 64.7992 154.096 64.5032 154.024C64.2072 153.952 63.9512 153.84 63.7352 153.688C63.5192 153.528 63.3512 153.32 63.2312 153.064C63.1112 152.808 63.0512 152.5 63.0512 152.14C63.0512 151.796 63.1192 151.5 63.2552 151.252C63.3992 151.004 63.5912 150.804 63.8312 150.652C64.0712 150.5 64.3512 150.388 64.6712 150.316C64.9912 150.244 65.3272 150.208 65.6792 150.208C65.7912 150.208 65.9072 150.216 66.0272 150.232C66.1472 150.24 66.2592 150.256 66.3632 150.28C66.4752 150.296 66.5712 150.312 66.6512 150.328C66.7312 150.344 66.7872 150.356 66.8192 150.364V150.052C66.8192 149.868 66.7992 149.688 66.7592 149.512C66.7192 149.328 66.6472 149.168 66.5432 149.032C66.4392 148.888 66.2952 148.776 66.1112 148.696C65.9352 148.608 65.7032 148.564 65.4152 148.564C65.0472 148.564 64.7232 148.592 64.4432 148.648C64.1712 148.696 63.9672 148.748 63.8312 148.804L63.6992 147.88C63.8432 147.816 64.0832 147.756 64.4192 147.7C64.7552 147.636 65.1192 147.604 65.5112 147.604ZM72.0687 147.628C72.1647 147.628 72.2727 147.636 72.3927 147.652C72.5207 147.66 72.6447 147.676 72.7647 147.7C72.8847 147.716 72.9927 147.736 73.0887 147.76C73.1927 147.776 73.2687 147.792 73.3167 147.808L73.1247 148.78C73.0367 148.748 72.8887 148.712 72.6807 148.672C72.4807 148.624 72.2207 148.6 71.9007 148.6C71.6927 148.6 71.4847 148.624 71.2767 148.672C71.0767 148.712 70.9447 148.74 70.8807 148.756V154H69.7647V148.024C70.0287 147.928 70.3567 147.84 70.7487 147.76C71.1407 147.672 71.5807 147.628 72.0687 147.628Z" fill="#FE5433"/>
<mask id="mask2_973_607" style="mask-type:luminance" maskUnits="userSpaceOnUse" x="363" y="158" width="40" height="40">
<path d="M403 178C403 166.954 394.046 158 383 158C371.954 158 363 166.954 363 178C363 189.046 371.954 198 383 198C394.046 198 403 189.046 403 178Z" fill="white"/>
</mask>
<g mask="url(#mask2_973_607)">
<path fill-rule="evenodd" clip-rule="evenodd" d="M383 168C377.47 168 373 172.47 373 178C373 183.53 377.47 188 383 188C388.53 188 393 183.53 393 178C393 172.47 388.53 168 383 168ZM383 186C378.59 186 375 182.41 375 178C375 173.59 378.59 170 383 170C387.41 170 391 173.59 391 178C391 182.41 387.41 186 383 186ZM383 176.59L386.59 173L388 174.41L384.41 178L388 181.59L386.59 183L383 179.41L379.41 183L378 181.59L381.59 178L378 174.41L379.41 173L383 176.59Z" fill="#FF4545"/>
</g>
<path d="M125 230H37C28.1634 230 21 237.163 21 246V248C21 256.837 28.1634 264 37 264H125C133.837 264 141 256.837 141 248V246C141 237.163 133.837 230 125 230Z" fill="#FE5433"/>
<path d="M50.018 252.308C50.834 252.308 51.428 252.17 51.8 251.894C52.172 251.618 52.358 251.228 52.358 250.724C52.358 250.424 52.292 250.166 52.16 249.95C52.04 249.734 51.86 249.542 51.62 249.374C51.392 249.194 51.11 249.032 50.774 248.888C50.438 248.732 50.054 248.582 49.622 248.438C49.19 248.282 48.77 248.114 48.362 247.934C47.966 247.742 47.612 247.508 47.3 247.232C47 246.956 46.754 246.626 46.562 246.242C46.382 245.858 46.292 245.396 46.292 244.856C46.292 243.728 46.682 242.846 47.462 242.21C48.242 241.562 49.304 241.238 50.648 241.238C51.428 241.238 52.118 241.328 52.718 241.508C53.33 241.676 53.81 241.862 54.158 242.066L53.456 243.902C53.048 243.674 52.598 243.5 52.106 243.38C51.626 243.26 51.128 243.2 50.612 243.2C50 243.2 49.52 243.326 49.172 243.578C48.836 243.83 48.668 244.184 48.668 244.64C48.668 244.916 48.722 245.156 48.83 245.36C48.95 245.552 49.112 245.726 49.316 245.882C49.532 246.038 49.778 246.182 50.054 246.314C50.342 246.446 50.654 246.572 50.99 246.692C51.578 246.908 52.1 247.13 52.556 247.358C53.024 247.574 53.414 247.838 53.726 248.15C54.05 248.45 54.296 248.81 54.464 249.23C54.632 249.638 54.716 250.136 54.716 250.724C54.716 251.852 54.314 252.728 53.51 253.352C52.718 253.964 51.554 254.27 50.018 254.27C49.502 254.27 49.028 254.234 48.596 254.162C48.176 254.102 47.798 254.024 47.462 253.928C47.138 253.832 46.856 253.736 46.616 253.64C46.376 253.532 46.184 253.436 46.04 253.352L46.706 251.498C47.03 251.678 47.468 251.858 48.02 252.038C48.572 252.218 49.238 252.308 50.018 252.308ZM56.0847 249.338C56.0847 248.51 56.2047 247.784 56.4447 247.16C56.6967 246.536 57.0267 246.02 57.4347 245.612C57.8427 245.192 58.3107 244.88 58.8387 244.676C59.3667 244.46 59.9067 244.352 60.4587 244.352C61.7547 244.352 62.7627 244.754 63.4827 245.558C64.2147 246.362 64.5807 247.562 64.5807 249.158C64.5807 249.278 64.5747 249.416 64.5627 249.572C64.5627 249.716 64.5567 249.848 64.5447 249.968H58.3347C58.3947 250.724 58.6587 251.312 59.1267 251.732C59.6067 252.14 60.2967 252.344 61.1967 252.344C61.7247 252.344 62.2047 252.296 62.6367 252.2C63.0807 252.104 63.4287 252.002 63.6807 251.894L63.9687 253.676C63.8487 253.736 63.6807 253.802 63.4647 253.874C63.2607 253.934 63.0207 253.988 62.7447 254.036C62.4807 254.096 62.1927 254.144 61.8807 254.18C61.5687 254.216 61.2507 254.234 60.9267 254.234C60.0987 254.234 59.3787 254.114 58.7667 253.874C58.1547 253.622 57.6507 253.28 57.2547 252.848C56.8587 252.404 56.5647 251.888 56.3727 251.3C56.1807 250.7 56.0847 250.046 56.0847 249.338ZM62.4027 248.366C62.4027 248.066 62.3607 247.784 62.2767 247.52C62.1927 247.244 62.0667 247.01 61.8987 246.818C61.7427 246.614 61.5447 246.458 61.3047 246.35C61.0767 246.23 60.8007 246.17 60.4767 246.17C60.1407 246.17 59.8467 246.236 59.5947 246.368C59.3427 246.488 59.1267 246.65 58.9467 246.854C58.7787 247.058 58.6467 247.292 58.5507 247.556C58.4547 247.82 58.3887 248.09 58.3527 248.366H62.4027ZM72.2539 249.05C72.2539 248.066 72.1279 247.358 71.8759 246.926C71.6359 246.482 71.1799 246.26 70.5079 246.26C70.2679 246.26 70.0039 246.278 69.7159 246.314C69.4279 246.35 69.2119 246.38 69.0679 246.404V254H66.8899V244.892C67.3099 244.772 67.8559 244.658 68.5279 244.55C69.2119 244.442 69.9319 244.388 70.6879 244.388C71.3359 244.388 71.8639 244.472 72.2719 244.64C72.6919 244.808 73.0399 245.03 73.3159 245.306C73.4479 245.21 73.6159 245.108 73.8199 245C74.0239 244.892 74.2519 244.796 74.5039 244.712C74.7559 244.616 75.0199 244.538 75.2959 244.478C75.5839 244.418 75.8719 244.388 76.1599 244.388C76.8919 244.388 77.4919 244.496 77.9599 244.712C78.4399 244.916 78.8119 245.21 79.0759 245.594C79.3519 245.966 79.5379 246.422 79.6339 246.962C79.7419 247.49 79.7959 248.072 79.7959 248.708V254H77.6179V249.05C77.6179 248.066 77.4979 247.358 77.2579 246.926C77.0179 246.482 76.5559 246.26 75.8719 246.26C75.5239 246.26 75.1939 246.32 74.8819 246.44C74.5699 246.548 74.3359 246.656 74.1799 246.764C74.2759 247.064 74.3419 247.382 74.3779 247.718C74.4139 248.054 74.4319 248.414 74.4319 248.798V254H72.2539V249.05ZM85.7761 252.47C86.4481 252.47 86.9581 252.434 87.3061 252.362V249.95C87.1861 249.914 87.0121 249.878 86.7841 249.842C86.5561 249.806 86.3041 249.788 86.0281 249.788C85.7881 249.788 85.5421 249.806 85.2901 249.842C85.0501 249.878 84.8281 249.944 84.6241 250.04C84.4321 250.136 84.2761 250.274 84.1561 250.454C84.0361 250.622 83.9761 250.838 83.9761 251.102C83.9761 251.618 84.1381 251.978 84.4621 252.182C84.7861 252.374 85.2241 252.47 85.7761 252.47ZM85.5961 244.352C86.3161 244.352 86.9221 244.442 87.4141 244.622C87.9061 244.802 88.2961 245.054 88.5841 245.378C88.8841 245.702 89.0941 246.098 89.2141 246.566C89.3461 247.022 89.4121 247.526 89.4121 248.078V253.784C89.0761 253.856 88.5661 253.94 87.8821 254.036C87.2101 254.144 86.4481 254.198 85.5961 254.198C85.0321 254.198 84.5161 254.144 84.0481 254.036C83.5801 253.928 83.1781 253.754 82.8421 253.514C82.5181 253.274 82.2601 252.962 82.0681 252.578C81.8881 252.194 81.7981 251.72 81.7981 251.156C81.7981 250.616 81.9001 250.16 82.1041 249.788C82.3201 249.416 82.6081 249.116 82.9681 248.888C83.3281 248.648 83.7421 248.48 84.2101 248.384C84.6901 248.276 85.1881 248.222 85.7041 248.222C85.9441 248.222 86.1961 248.24 86.4601 248.276C86.7241 248.3 87.0061 248.348 87.3061 248.42V248.06C87.3061 247.808 87.2761 247.568 87.2161 247.34C87.1561 247.112 87.0481 246.914 86.8921 246.746C86.7481 246.566 86.5501 246.428 86.2981 246.332C86.0581 246.236 85.7521 246.188 85.3801 246.188C84.8761 246.188 84.4141 246.224 83.9941 246.296C83.5741 246.368 83.2321 246.452 82.9681 246.548L82.6981 244.784C82.9741 244.688 83.3761 244.592 83.9041 244.496C84.4321 244.4 84.9961 244.352 85.5961 244.352ZM92.0794 244.892C92.4994 244.772 93.0454 244.658 93.7174 244.55C94.3894 244.442 95.1334 244.388 95.9494 244.388C96.7174 244.388 97.3594 244.496 97.8754 244.712C98.3914 244.916 98.7994 245.21 99.0994 245.594C99.4114 245.966 99.6274 246.422 99.7474 246.962C99.8794 247.49 99.9454 248.072 99.9454 248.708V254H97.7674V249.05C97.7674 248.546 97.7314 248.12 97.6594 247.772C97.5994 247.412 97.4914 247.124 97.3354 246.908C97.1914 246.68 96.9874 246.518 96.7234 246.422C96.4714 246.314 96.1594 246.26 95.7874 246.26C95.5114 246.26 95.2234 246.278 94.9234 246.314C94.6234 246.35 94.4014 246.38 94.2574 246.404V254H92.0794V244.892ZM105.921 252.47C106.593 252.47 107.103 252.434 107.451 252.362V249.95C107.331 249.914 107.157 249.878 106.929 249.842C106.701 249.806 106.449 249.788 106.173 249.788C105.933 249.788 105.687 249.806 105.435 249.842C105.195 249.878 104.973 249.944 104.769 250.04C104.577 250.136 104.421 250.274 104.301 250.454C104.181 250.622 104.121 250.838 104.121 251.102C104.121 251.618 104.283 251.978 104.607 252.182C104.931 252.374 105.369 252.47 105.921 252.47ZM105.741 244.352C106.461 244.352 107.067 244.442 107.559 244.622C108.051 244.802 108.441 245.054 108.729 245.378C109.029 245.702 109.239 246.098 109.359 246.566C109.491 247.022 109.557 247.526 109.557 248.078V253.784C109.221 253.856 108.711 253.94 108.027 254.036C107.355 254.144 106.593 254.198 105.741 254.198C105.177 254.198 104.661 254.144 104.193 254.036C103.725 253.928 103.323 253.754 102.987 253.514C102.663 253.274 102.405 252.962 102.213 252.578C102.033 252.194 101.943 251.72 101.943 251.156C101.943 250.616 102.045 250.16 102.249 249.788C102.465 249.416 102.753 249.116 103.113 248.888C103.473 248.648 103.887 248.48 104.355 248.384C104.835 248.276 105.333 248.222 105.849 248.222C106.089 248.222 106.341 248.24 106.605 248.276C106.869 248.3 107.151 248.348 107.451 248.42V248.06C107.451 247.808 107.421 247.568 107.361 247.34C107.301 247.112 107.193 246.914 107.037 246.746C106.893 246.566 106.695 246.428 106.443 246.332C106.203 246.236 105.897 246.188 105.525 246.188C105.021 246.188 104.559 246.224 104.139 246.296C103.719 246.368 103.377 246.452 103.113 246.548L102.843 244.784C103.119 244.688 103.521 244.592 104.049 244.496C104.577 244.4 105.141 244.352 105.741 244.352ZM115.5 254.18C114.852 254.168 114.312 254.096 113.88 253.964C113.46 253.832 113.124 253.646 112.872 253.406C112.62 253.154 112.44 252.848 112.332 252.488C112.236 252.116 112.188 251.696 112.188 251.228V240.392L114.366 240.032V250.814C114.366 251.078 114.384 251.3 114.42 251.48C114.468 251.66 114.546 251.816 114.654 251.948C114.762 252.068 114.906 252.164 115.086 252.236C115.278 252.296 115.518 252.344 115.806 252.38L115.5 254.18Z" fill="white"/>
<path d="M258 230H170C161.163 230 154 237.163 154 246V248C154 256.837 161.163 264 170 264H258C266.837 264 274 256.837 274 248V246C274 237.163 266.837 230 258 230Z" fill="#FE5433" fill-opacity="0.1"/>
<path d="M188.212 241.526C188.476 241.982 188.77 242.54 189.094 243.2C189.418 243.86 189.748 244.556 190.084 245.288C190.42 246.008 190.75 246.746 191.074 247.502C191.41 248.246 191.716 248.936 191.992 249.572C192.268 248.936 192.568 248.246 192.892 247.502C193.216 246.746 193.546 246.008 193.882 245.288C194.218 244.556 194.548 243.86 194.872 243.2C195.196 242.54 195.49 241.982 195.754 241.526H197.806C197.914 242.438 198.016 243.41 198.112 244.442C198.208 245.462 198.292 246.512 198.364 247.592C198.448 248.66 198.52 249.74 198.58 250.832C198.652 251.912 198.712 252.968 198.76 254H196.528C196.48 252.548 196.42 251.054 196.348 249.518C196.288 247.982 196.192 246.494 196.06 245.054C195.928 245.33 195.772 245.66 195.592 246.044C195.412 246.428 195.22 246.848 195.016 247.304C194.812 247.748 194.602 248.21 194.386 248.69C194.182 249.17 193.978 249.638 193.774 250.094C193.582 250.538 193.402 250.958 193.234 251.354C193.066 251.738 192.922 252.068 192.802 252.344H191.11C190.99 252.068 190.846 251.732 190.678 251.336C190.51 250.94 190.324 250.52 190.12 250.076C189.928 249.62 189.724 249.152 189.508 248.672C189.304 248.192 189.1 247.73 188.896 247.286C188.692 246.842 188.5 246.428 188.32 246.044C188.14 245.648 187.984 245.318 187.852 245.054C187.72 246.494 187.618 247.982 187.546 249.518C187.486 251.054 187.432 252.548 187.384 254H185.152C185.2 252.968 185.254 251.9 185.314 250.796C185.386 249.692 185.458 248.6 185.53 247.52C185.614 246.428 185.704 245.372 185.8 244.352C185.896 243.332 185.998 242.39 186.106 241.526H188.212ZM200.772 249.338C200.772 248.51 200.892 247.784 201.132 247.16C201.384 246.536 201.714 246.02 202.122 245.612C202.53 245.192 202.998 244.88 203.526 244.676C204.054 244.46 204.594 244.352 205.146 244.352C206.442 244.352 207.45 244.754 208.17 245.558C208.902 246.362 209.268 247.562 209.268 249.158C209.268 249.278 209.262 249.416 209.25 249.572C209.25 249.716 209.244 249.848 209.232 249.968H203.022C203.082 250.724 203.346 251.312 203.814 251.732C204.294 252.14 204.984 252.344 205.884 252.344C206.412 252.344 206.892 252.296 207.324 252.2C207.768 252.104 208.116 252.002 208.368 251.894L208.656 253.676C208.536 253.736 208.368 253.802 208.152 253.874C207.948 253.934 207.708 253.988 207.432 254.036C207.168 254.096 206.88 254.144 206.568 254.18C206.256 254.216 205.938 254.234 205.614 254.234C204.786 254.234 204.066 254.114 203.454 253.874C202.842 253.622 202.338 253.28 201.942 252.848C201.546 252.404 201.252 251.888 201.06 251.3C200.868 250.7 200.772 250.046 200.772 249.338ZM207.09 248.366C207.09 248.066 207.048 247.784 206.964 247.52C206.88 247.244 206.754 247.01 206.586 246.818C206.43 246.614 206.232 246.458 205.992 246.35C205.764 246.23 205.488 246.17 205.164 246.17C204.828 246.17 204.534 246.236 204.282 246.368C204.03 246.488 203.814 246.65 203.634 246.854C203.466 247.058 203.334 247.292 203.238 247.556C203.142 247.82 203.076 248.09 203.04 248.366H207.09ZM211.577 244.892C211.997 244.772 212.543 244.658 213.215 244.55C213.887 244.442 214.631 244.388 215.447 244.388C216.215 244.388 216.857 244.496 217.373 244.712C217.889 244.916 218.297 245.21 218.597 245.594C218.909 245.966 219.125 246.422 219.245 246.962C219.377 247.49 219.443 248.072 219.443 248.708V254H217.265V249.05C217.265 248.546 217.229 248.12 217.157 247.772C217.097 247.412 216.989 247.124 216.833 246.908C216.689 246.68 216.485 246.518 216.221 246.422C215.969 246.314 215.657 246.26 215.285 246.26C215.009 246.26 214.721 246.278 214.421 246.314C214.121 246.35 213.899 246.38 213.755 246.404V254H211.577V244.892ZM224.465 252.434C225.041 252.434 225.461 252.368 225.725 252.236C225.989 252.092 226.121 251.852 226.121 251.516C226.121 251.204 225.977 250.946 225.689 250.742C225.413 250.538 224.951 250.316 224.303 250.076C223.907 249.932 223.541 249.782 223.205 249.626C222.881 249.458 222.599 249.266 222.359 249.05C222.119 248.834 221.927 248.576 221.783 248.276C221.651 247.964 221.585 247.586 221.585 247.142C221.585 246.278 221.903 245.6 222.539 245.108C223.175 244.604 224.039 244.352 225.131 244.352C225.683 244.352 226.211 244.406 226.715 244.514C227.219 244.61 227.597 244.706 227.849 244.802L227.453 246.566C227.213 246.458 226.907 246.362 226.535 246.278C226.163 246.182 225.731 246.134 225.239 246.134C224.795 246.134 224.435 246.212 224.159 246.368C223.883 246.512 223.745 246.74 223.745 247.052C223.745 247.208 223.769 247.346 223.817 247.466C223.877 247.586 223.973 247.7 224.105 247.808C224.237 247.904 224.411 248.006 224.627 248.114C224.843 248.21 225.107 248.312 225.419 248.42C225.935 248.612 226.373 248.804 226.733 248.996C227.093 249.176 227.387 249.386 227.615 249.626C227.855 249.854 228.029 250.118 228.137 250.418C228.245 250.718 228.299 251.078 228.299 251.498C228.299 252.398 227.963 253.082 227.291 253.55C226.631 254.006 225.683 254.234 224.447 254.234C223.619 254.234 222.953 254.162 222.449 254.018C221.945 253.886 221.591 253.778 221.387 253.694L221.765 251.876C222.089 252.008 222.473 252.134 222.917 252.254C223.373 252.374 223.889 252.434 224.465 252.434ZM233.645 252.47C234.317 252.47 234.827 252.434 235.175 252.362V249.95C235.055 249.914 234.881 249.878 234.653 249.842C234.425 249.806 234.173 249.788 233.897 249.788C233.657 249.788 233.411 249.806 233.159 249.842C232.919 249.878 232.697 249.944 232.493 250.04C232.301 250.136 232.145 250.274 232.025 250.454C231.905 250.622 231.845 250.838 231.845 251.102C231.845 251.618 232.007 251.978 232.331 252.182C232.655 252.374 233.093 252.47 233.645 252.47ZM233.465 244.352C234.185 244.352 234.791 244.442 235.283 244.622C235.775 244.802 236.165 245.054 236.453 245.378C236.753 245.702 236.963 246.098 237.083 246.566C237.215 247.022 237.281 247.526 237.281 248.078V253.784C236.945 253.856 236.435 253.94 235.751 254.036C235.079 254.144 234.317 254.198 233.465 254.198C232.901 254.198 232.385 254.144 231.917 254.036C231.449 253.928 231.047 253.754 230.711 253.514C230.387 253.274 230.129 252.962 229.937 252.578C229.757 252.194 229.667 251.72 229.667 251.156C229.667 250.616 229.769 250.16 229.973 249.788C230.189 249.416 230.477 249.116 230.837 248.888C231.197 248.648 231.611 248.48 232.079 248.384C232.559 248.276 233.057 248.222 233.573 248.222C233.813 248.222 234.065 248.24 234.329 248.276C234.593 248.3 234.875 248.348 235.175 248.42V248.06C235.175 247.808 235.145 247.568 235.085 247.34C235.025 247.112 234.917 246.914 234.761 246.746C234.617 246.566 234.419 246.428 234.167 246.332C233.927 246.236 233.621 246.188 233.249 246.188C232.745 246.188 232.283 246.224 231.863 246.296C231.443 246.368 231.101 246.452 230.837 246.548L230.567 244.784C230.843 244.688 231.245 244.592 231.773 244.496C232.301 244.4 232.865 244.352 233.465 244.352ZM243.225 254.18C242.577 254.168 242.037 254.096 241.605 253.964C241.185 253.832 240.849 253.646 240.597 253.406C240.345 253.154 240.165 252.848 240.057 252.488C239.961 252.116 239.913 251.696 239.913 251.228V240.392L242.091 240.032V250.814C242.091 251.078 242.109 251.3 242.145 251.48C242.193 251.66 242.271 251.816 242.379 251.948C242.487 252.068 242.631 252.164 242.811 252.236C243.003 252.296 243.243 252.344 243.531 252.38L243.225 254.18Z" fill="#FE5433"/>
<path d="M391 230H303C294.163 230 287 237.163 287 246V248C287 256.837 294.163 264 303 264H391C399.837 264 407 256.837 407 248V246C407 237.163 399.837 230 391 230Z" fill="#FE5433" fill-opacity="0.1"/>
<path d="M332.274 254C332.106 253.508 331.932 253.022 331.752 252.542C331.572 252.062 331.398 251.57 331.23 251.066H325.974C325.806 251.57 325.632 252.068 325.452 252.56C325.284 253.04 325.116 253.52 324.948 254H322.59C323.058 252.668 323.502 251.438 323.922 250.31C324.342 249.182 324.75 248.114 325.146 247.106C325.554 246.098 325.956 245.138 326.352 244.226C326.748 243.314 327.156 242.414 327.576 241.526H329.718C330.138 242.414 330.546 243.314 330.942 244.226C331.338 245.138 331.734 246.098 332.13 247.106C332.538 248.114 332.952 249.182 333.372 250.31C333.804 251.438 334.254 252.668 334.722 254H332.274ZM328.602 243.938C328.326 244.574 328.008 245.348 327.648 246.26C327.3 247.172 326.934 248.162 326.55 249.23H330.654C330.27 248.162 329.898 247.166 329.538 246.242C329.178 245.318 328.866 244.55 328.602 243.938ZM336.191 244.892C336.611 244.772 337.157 244.658 337.829 244.55C338.501 244.442 339.245 244.388 340.061 244.388C340.829 244.388 341.471 244.496 341.987 244.712C342.503 244.916 342.911 245.21 343.211 245.594C343.523 245.966 343.739 246.422 343.859 246.962C343.991 247.49 344.057 248.072 344.057 248.708V254H341.879V249.05C341.879 248.546 341.843 248.12 341.771 247.772C341.711 247.412 341.603 247.124 341.447 246.908C341.303 246.68 341.099 246.518 340.835 246.422C340.583 246.314 340.271 246.26 339.899 246.26C339.623 246.26 339.335 246.278 339.035 246.314C338.735 246.35 338.513 246.38 338.369 246.404V254H336.191V244.892ZM354.442 253.712C354.022 253.82 353.476 253.928 352.804 254.036C352.132 254.156 351.394 254.216 350.59 254.216C349.834 254.216 349.198 254.108 348.682 253.892C348.178 253.676 347.77 253.376 347.458 252.992C347.158 252.608 346.942 252.152 346.81 251.624C346.678 251.084 346.612 250.496 346.612 249.86V244.586H348.79V249.518C348.79 250.526 348.934 251.246 349.222 251.678C349.522 252.11 350.038 252.326 350.77 252.326C351.034 252.326 351.31 252.314 351.598 252.29C351.898 252.266 352.12 252.236 352.264 252.2V244.586H354.442V253.712ZM360.526 252.47C361.198 252.47 361.708 252.434 362.056 252.362V249.95C361.936 249.914 361.762 249.878 361.534 249.842C361.306 249.806 361.054 249.788 360.778 249.788C360.538 249.788 360.292 249.806 360.04 249.842C359.8 249.878 359.578 249.944 359.374 250.04C359.182 250.136 359.026 250.274 358.906 250.454C358.786 250.622 358.726 250.838 358.726 251.102C358.726 251.618 358.888 251.978 359.212 252.182C359.536 252.374 359.974 252.47 360.526 252.47ZM360.346 244.352C361.066 244.352 361.672 244.442 362.164 244.622C362.656 244.802 363.046 245.054 363.334 245.378C363.634 245.702 363.844 246.098 363.964 246.566C364.096 247.022 364.162 247.526 364.162 248.078V253.784C363.826 253.856 363.316 253.94 362.632 254.036C361.96 254.144 361.198 254.198 360.346 254.198C359.782 254.198 359.266 254.144 358.798 254.036C358.33 253.928 357.928 253.754 357.592 253.514C357.268 253.274 357.01 252.962 356.818 252.578C356.638 252.194 356.548 251.72 356.548 251.156C356.548 250.616 356.65 250.16 356.854 249.788C357.07 249.416 357.358 249.116 357.718 248.888C358.078 248.648 358.492 248.48 358.96 248.384C359.44 248.276 359.938 248.222 360.454 248.222C360.694 248.222 360.946 248.24 361.21 248.276C361.474 248.3 361.756 248.348 362.056 248.42V248.06C362.056 247.808 362.026 247.568 361.966 247.34C361.906 247.112 361.798 246.914 361.642 246.746C361.498 246.566 361.3 246.428 361.048 246.332C360.808 246.236 360.502 246.188 360.13 246.188C359.626 246.188 359.164 246.224 358.744 246.296C358.324 246.368 357.982 246.452 357.718 246.548L357.448 244.784C357.724 244.688 358.126 244.592 358.654 244.496C359.182 244.4 359.746 244.352 360.346 244.352ZM370.105 254.18C369.457 254.168 368.917 254.096 368.485 253.964C368.065 253.832 367.729 253.646 367.477 253.406C367.225 253.154 367.045 252.848 366.937 252.488C366.841 252.116 366.793 251.696 366.793 251.228V240.392L368.971 240.032V250.814C368.971 251.078 368.989 251.3 369.025 251.48C369.073 251.66 369.151 251.816 369.259 251.948C369.367 252.068 369.511 252.164 369.691 252.236C369.883 252.296 370.123 252.344 370.411 252.38L370.105 254.18Z" fill="#FE5433"/>
<g filter="url(#filter0_d_973_607)">
<path d="M21 464H407V588C407 592.418 403.418 596 399 596H29C24.5817 596 21 592.418 21 588V464Z" fill="white"/>
<path d="M33.5601 502V500.608L38.0081 496.384C38.3814 496.032 38.6588 495.723 38.8401 495.456C39.0214 495.189 39.1388 494.944 39.1921 494.72C39.2561 494.485 39.2881 494.267 39.2881 494.064C39.2881 493.552 39.1121 493.157 38.7601 492.88C38.4081 492.592 37.8908 492.448 37.2081 492.448C36.6641 492.448 36.1681 492.544 35.7201 492.736C35.2828 492.928 34.9041 493.221 34.5841 493.616L33.1281 492.496C33.5654 491.909 34.1521 491.456 34.8881 491.136C35.6348 490.805 36.4668 490.64 37.3841 490.64C38.1948 490.64 38.8988 490.773 39.4961 491.04C40.1041 491.296 40.5681 491.664 40.8881 492.144C41.2188 492.624 41.3841 493.195 41.3841 493.856C41.3841 494.219 41.3361 494.581 41.2401 494.944C41.1441 495.296 40.9628 495.669 40.6961 496.064C40.4294 496.459 40.0401 496.901 39.5281 497.392L35.7041 501.024L35.2721 500.24H41.8161V502H33.5601ZM46.7286 502.16C45.9393 502.16 45.1659 502.048 44.4086 501.824C43.6619 501.589 43.0326 501.269 42.5206 500.864L43.4006 499.248C43.8059 499.579 44.2966 499.845 44.8726 500.048C45.4593 500.251 46.0673 500.352 46.6966 500.352C47.4326 500.352 48.0086 500.197 48.4246 499.888C48.8513 499.579 49.0646 499.163 49.0646 498.64C49.0646 498.288 48.9739 497.979 48.7926 497.712C48.6219 497.445 48.3126 497.243 47.8646 497.104C47.4273 496.965 46.8246 496.896 46.0566 496.896H43.3526L43.9286 490.8H50.5046V492.544H44.6966L45.7846 491.552L45.3526 496.112L44.2646 495.136H46.5206C47.6299 495.136 48.5206 495.285 49.1926 495.584C49.8753 495.872 50.3713 496.277 50.6806 496.8C51.0006 497.312 51.1606 497.899 51.1606 498.56C51.1606 499.211 51.0006 499.808 50.6806 500.352C50.3606 500.896 49.8699 501.333 49.2086 501.664C48.5579 501.995 47.7313 502.16 46.7286 502.16ZM51.1763 503.6L56.4564 488.528H58.2484L52.9684 503.6H51.1763ZM60.5742 502V491.6L61.4862 492.544H58.2062V490.8H62.6542V502H60.5742ZM69.548 502.16C68.6626 502.16 67.8626 501.936 67.148 501.488C66.444 501.04 65.8893 500.389 65.484 499.536C65.0786 498.672 64.876 497.627 64.876 496.4C64.876 495.173 65.0786 494.133 65.484 493.28C65.8893 492.416 66.444 491.76 67.148 491.312C67.8626 490.864 68.6626 490.64 69.548 490.64C70.444 490.64 71.244 490.864 71.948 491.312C72.652 491.76 73.2066 492.416 73.612 493.28C74.028 494.133 74.236 495.173 74.236 496.4C74.236 497.627 74.028 498.672 73.612 499.536C73.2066 500.389 72.652 501.04 71.948 501.488C71.244 501.936 70.444 502.16 69.548 502.16ZM69.548 500.352C70.0706 500.352 70.524 500.213 70.908 499.936C71.292 499.648 71.5906 499.211 71.804 498.624C72.028 498.037 72.14 497.296 72.14 496.4C72.14 495.493 72.028 494.752 71.804 494.176C71.5906 493.589 71.292 493.157 70.908 492.88C70.524 492.592 70.0706 492.448 69.548 492.448C69.0466 492.448 68.5986 492.592 68.204 492.88C67.82 493.157 67.516 493.589 67.292 494.176C67.0786 494.752 66.972 495.493 66.972 496.4C66.972 497.296 67.0786 498.037 67.292 498.624C67.516 499.211 67.82 499.648 68.204 499.936C68.5986 500.213 69.0466 500.352 69.548 500.352ZM74.1451 503.6L79.4251 488.528H81.2171L75.937 503.6H74.1451ZM81.1226 502V500.608L85.5706 496.384C85.9439 496.032 86.2212 495.723 86.4025 495.456C86.5838 495.189 86.7013 494.944 86.7546 494.72C86.8186 494.485 86.8506 494.267 86.8506 494.064C86.8506 493.552 86.6746 493.157 86.3226 492.88C85.9706 492.592 85.4533 492.448 84.7706 492.448C84.2266 492.448 83.7306 492.544 83.2826 492.736C82.8453 492.928 82.4666 493.221 82.1466 493.616L80.6906 492.496C81.1279 491.909 81.7146 491.456 82.4506 491.136C83.1973 490.805 84.0293 490.64 84.9466 490.64C85.7573 490.64 86.4613 490.773 87.0586 491.04C87.6666 491.296 88.1306 491.664 88.4506 492.144C88.7813 492.624 88.9466 493.195 88.9466 493.856C88.9466 494.219 88.8986 494.581 88.8026 494.944C88.7066 495.296 88.5253 495.669 88.2586 496.064C87.9919 496.459 87.6026 496.901 87.0906 497.392L83.2666 501.024L82.8346 500.24H89.3786V502H81.1226ZM95.2511 502.16C94.3658 502.16 93.5658 501.936 92.8511 501.488C92.1471 501.04 91.5923 500.389 91.187 499.536C90.7817 498.672 90.5791 497.627 90.5791 496.4C90.5791 495.173 90.7817 494.133 91.187 493.28C91.5923 492.416 92.1471 491.76 92.8511 491.312C93.5658 490.864 94.3658 490.64 95.2511 490.64C96.1471 490.64 96.9471 490.864 97.6511 491.312C98.3551 491.76 98.9098 492.416 99.3151 493.28C99.7311 494.133 99.9391 495.173 99.9391 496.4C99.9391 497.627 99.7311 498.672 99.3151 499.536C98.9098 500.389 98.3551 501.04 97.6511 501.488C96.9471 501.936 96.1471 502.16 95.2511 502.16ZM95.2511 500.352C95.7738 500.352 96.2271 500.213 96.6111 499.936C96.9951 499.648 97.2938 499.211 97.5071 498.624C97.7311 498.037 97.8431 497.296 97.8431 496.4C97.8431 495.493 97.7311 494.752 97.5071 494.176C97.2938 493.589 96.9951 493.157 96.6111 492.88C96.2271 492.592 95.7738 492.448 95.2511 492.448C94.7498 492.448 94.3018 492.592 93.9071 492.88C93.5231 493.157 93.2191 493.589 92.9951 494.176C92.7818 494.752 92.6751 495.493 92.6751 496.4C92.6751 497.296 92.7818 498.037 92.9951 498.624C93.2191 499.211 93.5231 499.648 93.9071 499.936C94.3018 500.213 94.7498 500.352 95.2511 500.352ZM101.185 502V500.608L105.633 496.384C106.006 496.032 106.284 495.723 106.465 495.456C106.646 495.189 106.764 494.944 106.817 494.72C106.881 494.485 106.913 494.267 106.913 494.064C106.913 493.552 106.737 493.157 106.385 492.88C106.033 492.592 105.516 492.448 104.833 492.448C104.289 492.448 103.793 492.544 103.345 492.736C102.908 492.928 102.529 493.221 102.209 493.616L100.753 492.496C101.19 491.909 101.777 491.456 102.513 491.136C103.26 490.805 104.092 490.64 105.009 490.64C105.82 490.64 106.524 490.773 107.121 491.04C107.729 491.296 108.193 491.664 108.513 492.144C108.844 492.624 109.009 493.195 109.009 493.856C109.009 494.219 108.961 494.581 108.865 494.944C108.769 495.296 108.588 495.669 108.321 496.064C108.054 496.459 107.665 496.901 107.153 497.392L103.329 501.024L102.897 500.24H109.441V502H101.185ZM114.161 502.16C113.372 502.16 112.599 502.048 111.842 501.824C111.095 501.589 110.466 501.269 109.954 500.864L110.85 499.248C111.255 499.579 111.746 499.845 112.322 500.048C112.898 500.251 113.5 500.352 114.13 500.352C114.876 500.352 115.458 500.203 115.874 499.904C116.29 499.595 116.498 499.179 116.498 498.656C116.498 498.144 116.306 497.739 115.922 497.44C115.538 497.141 114.919 496.992 114.066 496.992H113.042V495.568L116.242 491.76L116.514 492.544H110.498V490.8H118.13V492.192L114.93 496L113.842 495.36H114.466C115.842 495.36 116.871 495.669 117.554 496.288C118.247 496.896 118.594 497.68 118.594 498.64C118.594 499.269 118.434 499.851 118.114 500.384C117.794 500.917 117.303 501.349 116.642 501.68C115.991 502 115.164 502.16 114.161 502.16Z" fill="#7C7C7C"/>
<path d="M312.91 502L318.58 489.4H320.884L326.572 502H324.124L319.246 490.642H320.182L315.322 502H312.91ZM315.52 499.084L316.15 497.248H322.954L323.584 499.084H315.52ZM333.412 492.28C334.18 492.28 334.864 492.43 335.464 492.73C336.076 493.03 336.556 493.492 336.904 494.116C337.252 494.728 337.426 495.52 337.426 496.492V502H335.176V496.78C335.176 495.928 334.972 495.292 334.564 494.872C334.168 494.452 333.61 494.242 332.89 494.242C332.362 494.242 331.894 494.35 331.486 494.566C331.078 494.782 330.76 495.106 330.532 495.538C330.316 495.958 330.208 496.492 330.208 497.14V502H327.958V492.388H330.1V494.98L329.722 494.188C330.058 493.576 330.544 493.108 331.18 492.784C331.828 492.448 332.572 492.28 333.412 492.28ZM344.618 502.126C343.634 502.126 342.758 501.916 341.99 501.496C341.222 501.064 340.616 500.476 340.172 499.732C339.728 498.988 339.506 498.142 339.506 497.194C339.506 496.234 339.728 495.388 340.172 494.656C340.616 493.912 341.222 493.33 341.99 492.91C342.758 492.49 343.634 492.28 344.618 492.28C345.614 492.28 346.496 492.49 347.264 492.91C348.044 493.33 348.65 493.906 349.082 494.638C349.526 495.37 349.748 496.222 349.748 497.194C349.748 498.142 349.526 498.988 349.082 499.732C348.65 500.476 348.044 501.064 347.264 501.496C346.496 501.916 345.614 502.126 344.618 502.126ZM344.618 500.2C345.17 500.2 345.662 500.08 346.094 499.84C346.526 499.6 346.862 499.252 347.102 498.796C347.354 498.34 347.48 497.806 347.48 497.194C347.48 496.57 347.354 496.036 347.102 495.592C346.862 495.136 346.526 494.788 346.094 494.548C345.662 494.308 345.176 494.188 344.636 494.188C344.084 494.188 343.592 494.308 343.16 494.548C342.74 494.788 342.404 495.136 342.152 495.592C341.9 496.036 341.774 496.57 341.774 497.194C341.774 497.806 341.9 498.34 342.152 498.796C342.404 499.252 342.74 499.6 343.16 499.84C343.592 500.08 344.078 500.2 344.618 500.2ZM341.162 491.074L343.574 488.608H345.626L348.038 491.074H346.184L343.736 489.004H345.464L343.016 491.074H341.162ZM357.354 492.28C358.122 492.28 358.806 492.43 359.406 492.73C360.018 493.03 360.498 493.492 360.846 494.116C361.194 494.728 361.368 495.52 361.368 496.492V502H359.118V496.78C359.118 495.928 358.914 495.292 358.506 494.872C358.11 494.452 357.552 494.242 356.832 494.242C356.304 494.242 355.836 494.35 355.428 494.566C355.02 494.782 354.702 495.106 354.474 495.538C354.258 495.958 354.15 496.492 354.15 497.14V502H351.9V492.388H354.042V494.98L353.664 494.188C354 493.576 354.486 493.108 355.122 492.784C355.77 492.448 356.514 492.28 357.354 492.28ZM364.222 502V492.388H366.472V502H364.222ZM365.356 490.804C364.936 490.804 364.588 490.672 364.312 490.408C364.048 490.144 363.916 489.826 363.916 489.454C363.916 489.07 364.048 488.752 364.312 488.5C364.588 488.236 364.936 488.104 365.356 488.104C365.776 488.104 366.118 488.23 366.382 488.482C366.658 488.722 366.796 489.028 366.796 489.4C366.796 489.796 366.664 490.132 366.4 490.408C366.136 490.672 365.788 490.804 365.356 490.804ZM381.557 492.28C382.325 492.28 383.003 492.43 383.591 492.73C384.191 493.03 384.659 493.492 384.995 494.116C385.331 494.728 385.499 495.52 385.499 496.492V502H383.249V496.78C383.249 495.928 383.063 495.292 382.691 494.872C382.319 494.452 381.785 494.242 381.089 494.242C380.597 494.242 380.159 494.35 379.775 494.566C379.403 494.782 379.109 495.1 378.893 495.52C378.689 495.94 378.587 496.474 378.587 497.122V502H376.337V496.78C376.337 495.928 376.151 495.292 375.779 494.872C375.407 494.452 374.873 494.242 374.177 494.242C373.685 494.242 373.247 494.35 372.863 494.566C372.491 494.782 372.197 495.1 371.981 495.52C371.777 495.94 371.675 496.474 371.675 497.122V502H369.425V492.388H371.567V494.944L371.189 494.188C371.513 493.564 371.981 493.09 372.593 492.766C373.217 492.442 373.925 492.28 374.717 492.28C375.617 492.28 376.397 492.502 377.057 492.946C377.729 493.39 378.173 494.062 378.389 494.962L377.507 494.656C377.819 493.936 378.335 493.36 379.055 492.928C379.775 492.496 380.609 492.28 381.557 492.28ZM392.712 502.126C391.728 502.126 390.852 501.916 390.084 501.496C389.316 501.064 388.71 500.476 388.266 499.732C387.822 498.988 387.6 498.142 387.6 497.194C387.6 496.234 387.822 495.388 388.266 494.656C388.71 493.912 389.316 493.33 390.084 492.91C390.852 492.49 391.728 492.28 392.712 492.28C393.708 492.28 394.59 492.49 395.358 492.91C396.138 493.33 396.744 493.906 397.176 494.638C397.62 495.37 397.842 496.222 397.842 497.194C397.842 498.142 397.62 498.988 397.176 499.732C396.744 500.476 396.138 501.064 395.358 501.496C394.59 501.916 393.708 502.126 392.712 502.126ZM392.712 500.2C393.264 500.2 393.756 500.08 394.188 499.84C394.62 499.6 394.956 499.252 395.196 498.796C395.448 498.34 395.574 497.806 395.574 497.194C395.574 496.57 395.448 496.036 395.196 495.592C394.956 495.136 394.62 494.788 394.188 494.548C393.756 494.308 393.27 494.188 392.73 494.188C392.178 494.188 391.686 494.308 391.254 494.548C390.834 494.788 390.498 495.136 390.246 495.592C389.994 496.036 389.868 496.57 389.868 497.194C389.868 497.806 389.994 498.34 390.246 498.796C390.498 499.252 390.834 499.6 391.254 499.84C391.686 500.08 392.172 500.2 392.712 500.2Z" fill="#292929"/>
<path d="M34.504 536V524.8H39.4C40.616 524.8 41.6827 525.035 42.6 525.504C43.5173 525.973 44.232 526.624 44.744 527.456C45.256 528.288 45.512 529.269 45.512 530.4C45.512 531.52 45.256 532.501 44.744 533.344C44.232 534.176 43.5173 534.827 42.6 535.296C41.6827 535.765 40.616 536 39.4 536H34.504ZM36.584 534.24H39.304C40.1467 534.24 40.872 534.08 41.48 533.76C42.0987 533.44 42.5733 532.992 42.904 532.416C43.2453 531.84 43.416 531.168 43.416 530.4C43.416 529.621 43.2453 528.949 42.904 528.384C42.5733 527.808 42.0987 527.36 41.48 527.04C40.872 526.72 40.1467 526.56 39.304 526.56H36.584V534.24ZM47.5308 536V527.456H49.5308V536H47.5308ZM48.5388 526.048C48.1654 526.048 47.8561 525.931 47.6108 525.696C47.3761 525.461 47.2588 525.179 47.2588 524.848C47.2588 524.507 47.3761 524.224 47.6108 524C47.8561 523.765 48.1654 523.648 48.5388 523.648C48.9121 523.648 49.2161 523.76 49.4508 523.984C49.6961 524.197 49.8188 524.469 49.8188 524.8C49.8188 525.152 49.7014 525.451 49.4668 525.696C49.2321 525.931 48.9228 526.048 48.5388 526.048ZM57.4198 536V534.272L57.3078 533.904V530.88C57.3078 530.293 57.1318 529.84 56.7798 529.52C56.4278 529.189 55.8944 529.024 55.1798 529.024C54.6998 529.024 54.2251 529.099 53.7558 529.248C53.2971 529.397 52.9078 529.605 52.5878 529.872L51.8038 528.416C52.2624 528.064 52.8064 527.803 53.4358 527.632C54.0758 527.451 54.7371 527.36 55.4198 527.36C56.6571 527.36 57.6118 527.659 58.2838 528.256C58.9664 528.843 59.3078 529.755 59.3078 530.992V536H57.4198ZM54.7318 536.112C54.0918 536.112 53.5318 536.005 53.0518 535.792C52.5718 535.568 52.1984 535.264 51.9318 534.88C51.6758 534.485 51.5478 534.043 51.5478 533.552C51.5478 533.072 51.6598 532.64 51.8838 532.256C52.1184 531.872 52.4971 531.568 53.0198 531.344C53.5424 531.12 54.2358 531.008 55.0998 531.008H57.5798V532.336H55.2438C54.5611 532.336 54.1024 532.448 53.8678 532.672C53.6331 532.885 53.5158 533.152 53.5158 533.472C53.5158 533.835 53.6598 534.123 53.9478 534.336C54.2358 534.549 54.6358 534.656 55.1478 534.656C55.6384 534.656 56.0758 534.544 56.4598 534.32C56.8544 534.096 57.1371 533.765 57.3078 533.328L57.6438 534.528C57.4518 535.029 57.1051 535.419 56.6038 535.696C56.1131 535.973 55.4891 536.112 54.7318 536.112ZM65.7621 539.216C64.9728 539.216 64.1995 539.109 63.4421 538.896C62.6955 538.693 62.0821 538.395 61.6021 538L62.4981 536.496C62.8715 536.805 63.3408 537.051 63.9061 537.232C64.4821 537.424 65.0635 537.52 65.6501 537.52C66.5888 537.52 67.2768 537.301 67.7141 536.864C68.1515 536.437 68.3701 535.792 68.3701 534.928V533.408L68.5301 531.472L68.4661 529.536V527.456H70.3701V534.704C70.3701 536.251 69.9755 537.387 69.1861 538.112C68.3968 538.848 67.2555 539.216 65.7621 539.216ZM65.5061 535.616C64.6955 535.616 63.9595 535.445 63.2981 535.104C62.6475 534.752 62.1301 534.267 61.7461 533.648C61.3728 533.029 61.1861 532.304 61.1861 531.472C61.1861 530.651 61.3728 529.931 61.7461 529.312C62.1301 528.693 62.6475 528.213 63.2981 527.872C63.9595 527.531 64.6955 527.36 65.5061 527.36C66.2315 527.36 66.8821 527.504 67.4581 527.792C68.0341 528.08 68.4928 528.528 68.8341 529.136C69.1861 529.744 69.3621 530.523 69.3621 531.472C69.3621 532.421 69.1861 533.205 68.8341 533.824C68.4928 534.432 68.0341 534.885 67.4581 535.184C66.8821 535.472 66.2315 535.616 65.5061 535.616ZM65.8101 533.92C66.3115 533.92 66.7595 533.819 67.1541 533.616C67.5488 533.403 67.8528 533.115 68.0661 532.752C68.2901 532.379 68.4021 531.952 68.4021 531.472C68.4021 530.992 68.2901 530.571 68.0661 530.208C67.8528 529.835 67.5488 529.552 67.1541 529.36C66.7595 529.157 66.3115 529.056 65.8101 529.056C65.3088 529.056 64.8555 529.157 64.4501 529.36C64.0555 529.552 63.7461 529.835 63.5221 530.208C63.3088 530.571 63.2021 530.992 63.2021 531.472C63.2021 531.952 63.3088 532.379 63.5221 532.752C63.7461 533.115 64.0555 533.403 64.4501 533.616C64.8555 533.819 65.3088 533.92 65.8101 533.92ZM77.8475 527.36C78.5302 527.36 79.1382 527.493 79.6715 527.76C80.2155 528.027 80.6422 528.437 80.9515 528.992C81.2608 529.536 81.4155 530.24 81.4155 531.104V536H79.4155V531.36C79.4155 530.603 79.2342 530.037 78.8715 529.664C78.5195 529.291 78.0235 529.104 77.3835 529.104C76.9142 529.104 76.4982 529.2 76.1355 529.392C75.7728 529.584 75.4902 529.872 75.2875 530.256C75.0955 530.629 74.9995 531.104 74.9995 531.68V536H72.9995V527.456H74.9035V529.76L74.5675 529.056C74.8662 528.512 75.2982 528.096 75.8635 527.808C76.4395 527.509 77.1008 527.36 77.8475 527.36ZM87.8083 536.112C86.9336 536.112 86.1549 535.925 85.4723 535.552C84.7896 535.168 84.2509 534.645 83.8563 533.984C83.4616 533.323 83.2643 532.571 83.2643 531.728C83.2643 530.875 83.4616 530.123 83.8563 529.472C84.2509 528.811 84.7896 528.293 85.4723 527.92C86.1549 527.547 86.9336 527.36 87.8083 527.36C88.6936 527.36 89.4776 527.547 90.1603 527.92C90.8536 528.293 91.3923 528.805 91.7763 529.456C92.1709 530.107 92.3683 530.864 92.3683 531.728C92.3683 532.571 92.1709 533.323 91.7763 533.984C91.3923 534.645 90.8536 535.168 90.1603 535.552C89.4776 535.925 88.6936 536.112 87.8083 536.112ZM87.8083 534.4C88.2989 534.4 88.7363 534.293 89.1203 534.08C89.5043 533.867 89.8029 533.557 90.0163 533.152C90.2403 532.747 90.3523 532.272 90.3523 531.728C90.3523 531.173 90.2403 530.699 90.0163 530.304C89.8029 529.899 89.5043 529.589 89.1203 529.376C88.7363 529.163 88.3043 529.056 87.8243 529.056C87.3336 529.056 86.8963 529.163 86.5123 529.376C86.1389 529.589 85.8403 529.899 85.6163 530.304C85.3923 530.699 85.2803 531.173 85.2803 531.728C85.2803 532.272 85.3923 532.747 85.6163 533.152C85.8403 533.557 86.1389 533.867 86.5123 534.08C86.8963 534.293 87.3283 534.4 87.8083 534.4ZM86.4483 526.288L88.6083 524.096H90.9603L88.1763 526.288H86.4483ZM96.9208 536.112C96.2061 536.112 95.5181 536.021 94.8568 535.84C94.2061 535.648 93.6888 535.419 93.3048 535.152L94.0728 533.632C94.4568 533.877 94.9154 534.08 95.4488 534.24C95.9821 534.4 96.5154 534.48 97.0488 534.48C97.6781 534.48 98.1314 534.395 98.4088 534.224C98.6968 534.053 98.8408 533.824 98.8408 533.536C98.8408 533.301 98.7448 533.125 98.5528 533.008C98.3608 532.88 98.1101 532.784 97.8008 532.72C97.4914 532.656 97.1448 532.597 96.7608 532.544C96.3874 532.491 96.0088 532.421 95.6248 532.336C95.2514 532.24 94.9101 532.107 94.6008 531.936C94.2914 531.755 94.0408 531.515 93.8488 531.216C93.6568 530.917 93.5608 530.523 93.5608 530.032C93.5608 529.488 93.7154 529.019 94.0247 528.624C94.3341 528.219 94.7661 527.909 95.3207 527.696C95.8861 527.472 96.5528 527.36 97.3208 527.36C97.8968 527.36 98.4781 527.424 99.0648 527.552C99.6514 527.68 100.137 527.861 100.521 528.096L99.7528 529.616C99.3474 529.371 98.9368 529.205 98.5208 529.12C98.1154 529.024 97.7101 528.976 97.3048 528.976C96.6968 528.976 96.2434 529.067 95.9448 529.248C95.6568 529.429 95.5128 529.659 95.5128 529.936C95.5128 530.192 95.6088 530.384 95.8008 530.512C95.9928 530.64 96.2434 530.741 96.5528 530.816C96.8621 530.891 97.2034 530.955 97.5768 531.008C97.9608 531.051 98.3394 531.12 98.7128 531.216C99.0861 531.312 99.4274 531.445 99.7368 531.616C100.057 531.776 100.313 532.005 100.505 532.304C100.697 532.603 100.793 532.992 100.793 533.472C100.793 534.005 100.633 534.469 100.313 534.864C100.003 535.259 99.5608 535.568 98.9848 535.792C98.4088 536.005 97.7208 536.112 96.9208 536.112ZM105.731 536.112C104.792 536.112 104.067 535.872 103.555 535.392C103.043 534.901 102.787 534.181 102.787 533.232V525.568H104.787V533.184C104.787 533.589 104.888 533.904 105.091 534.128C105.304 534.352 105.598 534.464 105.971 534.464C106.419 534.464 106.792 534.347 107.091 534.112L107.651 535.536C107.416 535.728 107.128 535.872 106.787 535.968C106.446 536.064 106.094 536.112 105.731 536.112ZM101.379 529.12V527.52H107.075V529.12H101.379ZM109.296 536V527.456H111.296V536H109.296ZM110.304 526.048C109.931 526.048 109.622 525.931 109.376 525.696C109.142 525.461 109.024 525.179 109.024 524.848C109.024 524.507 109.142 524.224 109.376 524C109.622 523.765 109.931 523.648 110.304 523.648C110.678 523.648 110.982 523.76 111.216 523.984C111.462 524.197 111.584 524.469 111.584 524.8C111.584 525.152 111.467 525.451 111.232 525.696C110.998 525.931 110.688 526.048 110.304 526.048ZM117.841 536.112C116.945 536.112 116.145 535.925 115.441 535.552C114.748 535.168 114.204 534.645 113.809 533.984C113.415 533.323 113.217 532.571 113.217 531.728C113.217 530.875 113.415 530.123 113.809 529.472C114.204 528.811 114.748 528.293 115.441 527.92C116.145 527.547 116.945 527.36 117.841 527.36C118.673 527.36 119.404 527.531 120.033 527.872C120.673 528.203 121.159 528.693 121.489 529.344L119.953 530.24C119.697 529.835 119.383 529.536 119.009 529.344C118.647 529.152 118.252 529.056 117.825 529.056C117.335 529.056 116.892 529.163 116.497 529.376C116.103 529.589 115.793 529.899 115.569 530.304C115.345 530.699 115.233 531.173 115.233 531.728C115.233 532.283 115.345 532.763 115.569 533.168C115.793 533.563 116.103 533.867 116.497 534.08C116.892 534.293 117.335 534.4 117.825 534.4C118.252 534.4 118.647 534.304 119.009 534.112C119.383 533.92 119.697 533.621 119.953 533.216L121.489 534.112C121.159 534.752 120.673 535.248 120.033 535.6C119.404 535.941 118.673 536.112 117.841 536.112ZM126.933 536.112C126.059 536.112 125.28 535.925 124.597 535.552C123.915 535.168 123.376 534.645 122.981 533.984C122.587 533.323 122.389 532.571 122.389 531.728C122.389 530.875 122.587 530.123 122.981 529.472C123.376 528.811 123.915 528.293 124.597 527.92C125.28 527.547 126.059 527.36 126.933 527.36C127.819 527.36 128.603 527.547 129.285 527.92C129.979 528.293 130.517 528.805 130.901 529.456C131.296 530.107 131.493 530.864 131.493 531.728C131.493 532.571 131.296 533.323 130.901 533.984C130.517 534.645 129.979 535.168 129.285 535.552C128.603 535.925 127.819 536.112 126.933 536.112ZM126.933 534.4C127.424 534.4 127.861 534.293 128.245 534.08C128.629 533.867 128.928 533.557 129.141 533.152C129.365 532.747 129.477 532.272 129.477 531.728C129.477 531.173 129.365 530.699 129.141 530.304C128.928 529.899 128.629 529.589 128.245 529.376C127.861 529.163 127.429 529.056 126.949 529.056C126.459 529.056 126.021 529.163 125.637 529.376C125.264 529.589 124.965 529.899 124.741 530.304C124.517 530.699 124.405 531.173 124.405 531.728C124.405 532.272 124.517 532.747 124.741 533.152C124.965 533.557 125.264 533.867 125.637 534.08C126.021 534.293 126.453 534.4 126.933 534.4Z" fill="#7C7C7C"/>
<path d="M356.692 536V523.4H358.618L364.126 532.598H363.118L368.536 523.4H370.462L370.48 536H368.266L368.248 526.874H368.716L364.108 534.56H363.064L358.384 526.874H358.924V536H356.692ZM373.883 536V523.4H379.067C380.183 523.4 381.137 523.58 381.929 523.94C382.733 524.3 383.351 524.816 383.783 525.488C384.215 526.16 384.431 526.958 384.431 527.882C384.431 528.806 384.215 529.604 383.783 530.276C383.351 530.948 382.733 531.464 381.929 531.824C381.137 532.184 380.183 532.364 379.067 532.364H375.179L376.223 531.266V536H373.883ZM376.223 531.518L375.179 530.384H378.959C379.991 530.384 380.765 530.168 381.281 529.736C381.809 529.292 382.073 528.674 382.073 527.882C382.073 527.078 381.809 526.46 381.281 526.028C380.765 525.596 379.991 525.38 378.959 525.38H375.179L376.223 524.228V531.518ZM386.768 536V523.4H391.952C393.068 523.4 394.022 523.58 394.814 523.94C395.618 524.3 396.236 524.816 396.668 525.488C397.1 526.16 397.316 526.958 397.316 527.882C397.316 528.806 397.1 529.604 396.668 530.276C396.236 530.948 395.618 531.464 394.814 531.824C394.022 532.184 393.068 532.364 391.952 532.364H388.064L389.108 531.266V536H386.768ZM389.108 531.518L388.064 530.384H391.844C392.876 530.384 393.65 530.168 394.166 529.736C394.694 529.292 394.958 528.674 394.958 527.882C394.958 527.078 394.694 526.46 394.166 526.028C393.65 525.596 392.876 525.38 391.844 525.38H388.064L389.108 524.228V531.518Z" fill="#292929"/>
<path d="M32.92 570L37.96 558.8H40.008L45.064 570H42.888L38.552 559.904H39.384L35.064 570H32.92ZM35.24 567.408L35.8 565.776H41.848L42.408 567.408H35.24ZM48.8583 570.112C48.1436 570.112 47.4556 570.021 46.7943 569.84C46.1436 569.648 45.6263 569.419 45.2423 569.152L46.0103 567.632C46.3943 567.877 46.8529 568.08 47.3863 568.24C47.9196 568.4 48.4529 568.48 48.9863 568.48C49.6156 568.48 50.0689 568.395 50.3463 568.224C50.6343 568.053 50.7783 567.824 50.7783 567.536C50.7783 567.301 50.6823 567.125 50.4903 567.008C50.2983 566.88 50.0476 566.784 49.7383 566.72C49.4289 566.656 49.0823 566.597 48.6983 566.544C48.3249 566.491 47.9463 566.421 47.5623 566.336C47.1889 566.24 46.8476 566.107 46.5383 565.936C46.2289 565.755 45.9783 565.515 45.7863 565.216C45.5943 564.917 45.4983 564.523 45.4983 564.032C45.4983 563.488 45.6529 563.019 45.9622 562.624C46.2716 562.219 46.7036 561.909 47.2582 561.696C47.8236 561.472 48.4903 561.36 49.2583 561.36C49.8343 561.36 50.4156 561.424 51.0023 561.552C51.5889 561.68 52.0743 561.861 52.4583 562.096L51.6903 563.616C51.2849 563.371 50.8743 563.205 50.4583 563.12C50.0529 563.024 49.6476 562.976 49.2423 562.976C48.6343 562.976 48.1809 563.067 47.8823 563.248C47.5943 563.429 47.4503 563.659 47.4503 563.936C47.4503 564.192 47.5463 564.384 47.7383 564.512C47.9303 564.64 48.1809 564.741 48.4903 564.816C48.7996 564.891 49.1409 564.955 49.5143 565.008C49.8983 565.051 50.2769 565.12 50.6503 565.216C51.0236 565.312 51.3649 565.445 51.6743 565.616C51.9943 565.776 52.2503 566.005 52.4423 566.304C52.6343 566.603 52.7303 566.992 52.7303 567.472C52.7303 568.005 52.5703 568.469 52.2503 568.864C51.9409 569.259 51.4983 569.568 50.9223 569.792C50.3463 570.005 49.6583 570.112 48.8583 570.112ZM57.0926 570.112C56.378 570.112 55.69 570.021 55.0286 569.84C54.378 569.648 53.8606 569.419 53.4766 569.152L54.2446 567.632C54.6286 567.877 55.0873 568.08 55.6206 568.24C56.154 568.4 56.6873 568.48 57.2206 568.48C57.85 568.48 58.3033 568.395 58.5806 568.224C58.8686 568.053 59.0126 567.824 59.0126 567.536C59.0126 567.301 58.9166 567.125 58.7246 567.008C58.5326 566.88 58.282 566.784 57.9726 566.72C57.6633 566.656 57.3166 566.597 56.9326 566.544C56.5593 566.491 56.1806 566.421 55.7966 566.336C55.4233 566.24 55.082 566.107 54.7726 565.936C54.4633 565.755 54.2126 565.515 54.0206 565.216C53.8286 564.917 53.7326 564.523 53.7326 564.032C53.7326 563.488 53.8873 563.019 54.1966 562.624C54.506 562.219 54.938 561.909 55.4926 561.696C56.058 561.472 56.7246 561.36 57.4926 561.36C58.0686 561.36 58.65 561.424 59.2366 561.552C59.8233 561.68 60.3086 561.861 60.6926 562.096L59.9246 563.616C59.5193 563.371 59.1086 563.205 58.6926 563.12C58.2873 563.024 57.882 562.976 57.4766 562.976C56.8686 562.976 56.4153 563.067 56.1166 563.248C55.8286 563.429 55.6846 563.659 55.6846 563.936C55.6846 564.192 55.7806 564.384 55.9726 564.512C56.1646 564.64 56.4153 564.741 56.7246 564.816C57.034 564.891 57.3753 564.955 57.7486 565.008C58.1326 565.051 58.5113 565.12 58.8846 565.216C59.258 565.312 59.5993 565.445 59.9086 565.616C60.2286 565.776 60.4846 566.005 60.6766 566.304C60.8686 566.603 60.9646 566.992 60.9646 567.472C60.9646 568.005 60.8046 568.469 60.4846 568.864C60.1753 569.259 59.7326 569.568 59.1566 569.792C58.5806 570.005 57.8926 570.112 57.0926 570.112ZM66.703 570.112C65.7537 570.112 64.9217 569.925 64.207 569.552C63.503 569.168 62.9537 568.645 62.559 567.984C62.175 567.323 61.983 566.571 61.983 565.728C61.983 564.875 62.1697 564.123 62.543 563.472C62.927 562.811 63.4497 562.293 64.111 561.92C64.783 561.547 65.5457 561.36 66.399 561.36C67.231 561.36 67.9723 561.541 68.623 561.904C69.2737 562.267 69.7857 562.779 70.159 563.44C70.5323 564.101 70.719 564.88 70.719 565.776C70.719 565.861 70.7137 565.957 70.703 566.064C70.703 566.171 70.6977 566.272 70.687 566.368H63.567V565.04H69.631L68.847 565.456C68.8577 564.965 68.7563 564.533 68.543 564.16C68.3297 563.787 68.0363 563.493 67.663 563.28C67.3003 563.067 66.879 562.96 66.399 562.96C65.9083 562.96 65.4763 563.067 65.103 563.28C64.7403 563.493 64.4523 563.792 64.239 564.176C64.0363 564.549 63.935 564.992 63.935 565.504V565.824C63.935 566.336 64.0523 566.789 64.287 567.184C64.5217 567.579 64.8523 567.883 65.279 568.096C65.7057 568.309 66.1963 568.416 66.751 568.416C67.231 568.416 67.663 568.341 68.047 568.192C68.431 568.043 68.7723 567.808 69.071 567.488L70.143 568.72C69.759 569.168 69.2737 569.515 68.687 569.76C68.111 569.995 67.4497 570.112 66.703 570.112ZM72.6401 570V561.456H74.5441V563.808L74.3201 563.12C74.5761 562.544 74.9761 562.107 75.5201 561.808C76.0748 561.509 76.7628 561.36 77.5841 561.36V563.264C77.4988 563.243 77.4188 563.232 77.3441 563.232C77.2695 563.221 77.1948 563.216 77.1201 563.216C76.3628 563.216 75.7601 563.44 75.3121 563.888C74.8641 564.325 74.6401 564.981 74.6401 565.856V570H72.6401ZM82.8093 570.112C81.8706 570.112 81.1453 569.872 80.6332 569.392C80.1213 568.901 79.8653 568.181 79.8653 567.232V559.568H81.8653V567.184C81.8653 567.589 81.9666 567.904 82.1693 568.128C82.3826 568.352 82.6759 568.464 83.0493 568.464C83.4973 568.464 83.8706 568.347 84.1693 568.112L84.7293 569.536C84.4946 569.728 84.2066 569.872 83.8653 569.968C83.5239 570.064 83.1719 570.112 82.8093 570.112ZM78.4573 563.12V561.52H84.1533V563.12H78.4573ZM86.3745 570V561.456H88.3745V570H86.3745ZM87.3825 560.048C87.0092 560.048 86.6998 559.931 86.4545 559.696C86.2198 559.461 86.1025 559.179 86.1025 558.848C86.1025 558.507 86.2198 558.224 86.4545 558C86.6998 557.765 87.0092 557.648 87.3825 557.648C87.7558 557.648 88.0598 557.76 88.2945 557.984C88.5398 558.197 88.6625 558.469 88.6625 558.8C88.6625 559.152 88.5452 559.451 88.3105 559.696C88.0758 559.931 87.7665 560.048 87.3825 560.048ZM93.2715 570L89.6075 561.456H91.6875L94.8395 568.992H93.8155L97.0795 561.456H98.9995L95.3355 570H93.2715ZM100.25 570V561.456H102.25V570H100.25ZM101.258 560.048C100.884 560.048 100.575 559.931 100.33 559.696C100.095 559.461 99.9775 559.179 99.9775 558.848C99.9775 558.507 100.095 558.224 100.33 558C100.575 557.765 100.884 557.648 101.258 557.648C101.631 557.648 101.935 557.76 102.17 557.984C102.415 558.197 102.538 558.469 102.538 558.8C102.538 559.152 102.42 559.451 102.186 559.696C101.951 559.931 101.642 560.048 101.258 560.048ZM108.491 570.112C107.669 570.112 106.928 569.931 106.267 569.568C105.616 569.195 105.104 568.683 104.731 568.032C104.357 567.381 104.171 566.613 104.171 565.728C104.171 564.843 104.357 564.075 104.731 563.424C105.104 562.773 105.616 562.267 106.267 561.904C106.928 561.541 107.669 561.36 108.491 561.36C109.205 561.36 109.845 561.52 110.411 561.84C110.976 562.149 111.424 562.624 111.755 563.264C112.085 563.904 112.251 564.725 112.251 565.728C112.251 566.72 112.091 567.541 111.771 568.192C111.451 568.832 111.008 569.312 110.443 569.632C109.877 569.952 109.227 570.112 108.491 570.112ZM108.731 568.4C109.211 568.4 109.637 568.293 110.011 568.08C110.395 567.867 110.699 567.557 110.923 567.152C111.157 566.747 111.275 566.272 111.275 565.728C111.275 565.173 111.157 564.699 110.923 564.304C110.699 563.899 110.395 563.589 110.011 563.376C109.637 563.163 109.211 563.056 108.731 563.056C108.251 563.056 107.819 563.163 107.435 563.376C107.061 563.589 106.757 563.899 106.523 564.304C106.299 564.699 106.187 565.173 106.187 565.728C106.187 566.272 106.299 566.747 106.523 567.152C106.757 567.557 107.061 567.867 107.435 568.08C107.819 568.293 108.251 568.4 108.731 568.4ZM111.323 570V567.984L111.403 565.712L111.243 563.44V558.128H113.227V570H111.323ZM121.123 570V568.272L121.011 567.904V564.88C121.011 564.293 120.835 563.84 120.483 563.52C120.131 563.189 119.598 563.024 118.883 563.024C118.403 563.024 117.928 563.099 117.459 563.248C117 563.397 116.611 563.605 116.291 563.872L115.507 562.416C115.966 562.064 116.51 561.803 117.139 561.632C117.779 561.451 118.44 561.36 119.123 561.36C120.36 561.36 121.315 561.659 121.987 562.256C122.67 562.843 123.011 563.755 123.011 564.992V570H121.123ZM118.435 570.112C117.795 570.112 117.235 570.005 116.755 569.792C116.275 569.568 115.902 569.264 115.635 568.88C115.379 568.485 115.251 568.043 115.251 567.552C115.251 567.072 115.363 566.64 115.587 566.256C115.822 565.872 116.2 565.568 116.723 565.344C117.246 565.12 117.939 565.008 118.803 565.008H121.283V566.336H118.947C118.264 566.336 117.806 566.448 117.571 566.672C117.336 566.885 117.219 567.152 117.219 567.472C117.219 567.835 117.363 568.123 117.651 568.336C117.939 568.549 118.339 568.656 118.851 568.656C119.342 568.656 119.779 568.544 120.163 568.32C120.558 568.096 120.84 567.765 121.011 567.328L121.347 568.528C121.155 569.029 120.808 569.419 120.307 569.696C119.816 569.973 119.192 570.112 118.435 570.112ZM129.209 570.112C128.388 570.112 127.647 569.931 126.985 569.568C126.335 569.195 125.823 568.683 125.449 568.032C125.076 567.381 124.889 566.613 124.889 565.728C124.889 564.843 125.076 564.075 125.449 563.424C125.823 562.773 126.335 562.267 126.985 561.904C127.647 561.541 128.388 561.36 129.209 561.36C129.924 561.36 130.564 561.52 131.129 561.84C131.695 562.149 132.143 562.624 132.473 563.264C132.804 563.904 132.969 564.725 132.969 565.728C132.969 566.72 132.809 567.541 132.489 568.192C132.169 568.832 131.727 569.312 131.161 569.632C130.596 569.952 129.945 570.112 129.209 570.112ZM129.449 568.4C129.929 568.4 130.356 568.293 130.729 568.08C131.113 567.867 131.417 567.557 131.641 567.152C131.876 566.747 131.993 566.272 131.993 565.728C131.993 565.173 131.876 564.699 131.641 564.304C131.417 563.899 131.113 563.589 130.729 563.376C130.356 563.163 129.929 563.056 129.449 563.056C128.969 563.056 128.537 563.163 128.153 563.376C127.78 563.589 127.476 563.899 127.241 564.304C127.017 564.699 126.905 565.173 126.905 565.728C126.905 566.272 127.017 566.747 127.241 567.152C127.476 567.557 127.78 567.867 128.153 568.08C128.537 568.293 128.969 568.4 129.449 568.4ZM132.041 570V567.984L132.121 565.712L131.961 563.44V558.128H133.945V570H132.041ZM140.594 570.112C139.644 570.112 138.812 569.925 138.098 569.552C137.394 569.168 136.844 568.645 136.45 567.984C136.066 567.323 135.874 566.571 135.874 565.728C135.874 564.875 136.06 564.123 136.434 563.472C136.818 562.811 137.34 562.293 138.002 561.92C138.674 561.547 139.436 561.36 140.29 561.36C141.122 561.36 141.863 561.541 142.514 561.904C143.164 562.267 143.676 562.779 144.05 563.44C144.423 564.101 144.61 564.88 144.61 565.776C144.61 565.861 144.604 565.957 144.594 566.064C144.594 566.171 144.588 566.272 144.578 566.368H137.458V565.04H143.522L142.738 565.456C142.748 564.965 142.647 564.533 142.434 564.16C142.22 563.787 141.927 563.493 141.554 563.28C141.191 563.067 140.77 562.96 140.29 562.96C139.799 562.96 139.367 563.067 138.994 563.28C138.631 563.493 138.343 563.792 138.13 564.176C137.927 564.549 137.826 564.992 137.826 565.504V565.824C137.826 566.336 137.943 566.789 138.178 567.184C138.412 567.579 138.743 567.883 139.17 568.096C139.596 568.309 140.087 568.416 140.642 568.416C141.122 568.416 141.554 568.341 141.938 568.192C142.322 568.043 142.663 567.808 142.962 567.488L144.034 568.72C143.65 569.168 143.164 569.515 142.578 569.76C142.002 569.995 141.34 570.112 140.594 570.112Z" fill="#7C7C7C"/>
<path d="M366.04 557.22C367.192 557.22 368.17 557.466 368.974 557.958C369.79 558.438 370.414 559.14 370.846 560.064C371.278 560.988 371.494 562.128 371.494 563.484C371.494 564.924 371.23 566.142 370.702 567.138C370.186 568.134 369.466 568.89 368.542 569.406C367.618 569.922 366.544 570.18 365.32 570.18C364.684 570.18 364.078 570.114 363.502 569.982C362.926 569.85 362.428 569.646 362.008 569.37L362.872 567.606C363.22 567.834 363.598 567.996 364.006 568.092C364.414 568.176 364.834 568.218 365.266 568.218C366.454 568.218 367.396 567.852 368.092 567.12C368.788 566.388 369.136 565.308 369.136 563.88C369.136 563.652 369.13 563.388 369.118 563.088C369.106 562.776 369.064 562.464 368.992 562.152L369.712 562.944C369.508 563.436 369.214 563.85 368.83 564.186C368.446 564.51 367.996 564.756 367.48 564.924C366.964 565.092 366.394 565.176 365.77 565.176C364.954 565.176 364.216 565.02 363.556 564.708C362.908 564.384 362.392 563.934 362.008 563.358C361.624 562.77 361.432 562.086 361.432 561.306C361.432 560.466 361.636 559.746 362.044 559.146C362.452 558.534 363.004 558.06 363.7 557.724C364.408 557.388 365.188 557.22 366.04 557.22ZM366.166 559.056C365.686 559.056 365.26 559.146 364.888 559.326C364.516 559.494 364.222 559.74 364.006 560.064C363.802 560.376 363.7 560.754 363.7 561.198C363.7 561.858 363.928 562.38 364.384 562.764C364.84 563.148 365.452 563.34 366.22 563.34C366.724 563.34 367.168 563.25 367.552 563.07C367.936 562.878 368.236 562.62 368.452 562.296C368.668 561.96 368.776 561.588 368.776 561.18C368.776 560.784 368.674 560.43 368.47 560.118C368.266 559.794 367.972 559.536 367.588 559.344C367.204 559.152 366.73 559.056 366.166 559.056ZM377.253 570.18C376.365 570.18 375.495 570.054 374.643 569.802C373.803 569.538 373.095 569.178 372.519 568.722L373.509 566.904C373.965 567.276 374.517 567.576 375.165 567.804C375.825 568.032 376.509 568.146 377.217 568.146C378.045 568.146 378.693 567.972 379.161 567.624C379.641 567.276 379.881 566.808 379.881 566.22C379.881 565.824 379.779 565.476 379.575 565.176C379.383 564.876 379.035 564.648 378.531 564.492C378.039 564.336 377.361 564.258 376.497 564.258H373.455L374.103 557.4H381.501V559.362H374.967L376.191 558.246L375.705 563.376L374.481 562.278H377.019C378.267 562.278 379.269 562.446 380.025 562.782C380.793 563.106 381.351 563.562 381.699 564.15C382.059 564.726 382.239 565.386 382.239 566.13C382.239 566.862 382.059 567.534 381.699 568.146C381.339 568.758 380.787 569.25 380.043 569.622C379.311 569.994 378.381 570.18 377.253 570.18ZM385.177 570L393.781 557.4H395.545L386.941 570H385.177ZM386.221 564.186C385.633 564.186 385.111 564.042 384.655 563.754C384.199 563.466 383.845 563.064 383.593 562.548C383.341 562.032 383.215 561.426 383.215 560.73C383.215 560.034 383.341 559.428 383.593 558.912C383.845 558.396 384.199 557.994 384.655 557.706C385.111 557.418 385.633 557.274 386.221 557.274C386.833 557.274 387.361 557.418 387.805 557.706C388.261 557.994 388.615 558.396 388.867 558.912C389.119 559.428 389.245 560.034 389.245 560.73C389.245 561.426 389.119 562.032 388.867 562.548C388.615 563.064 388.261 563.466 387.805 563.754C387.361 564.042 386.833 564.186 386.221 564.186ZM386.239 562.926C386.719 562.926 387.091 562.74 387.355 562.368C387.631 561.984 387.769 561.438 387.769 560.73C387.769 560.022 387.631 559.482 387.355 559.11C387.091 558.726 386.719 558.534 386.239 558.534C385.759 558.534 385.375 558.726 385.087 559.11C384.811 559.494 384.673 560.034 384.673 560.73C384.673 561.426 384.811 561.966 385.087 562.35C385.375 562.734 385.759 562.926 386.239 562.926ZM394.483 570.126C393.895 570.126 393.373 569.982 392.917 569.694C392.461 569.406 392.107 569.004 391.855 568.488C391.603 567.972 391.477 567.366 391.477 566.67C391.477 565.974 391.603 565.368 391.855 564.852C392.107 564.336 392.461 563.934 392.917 563.646C393.373 563.358 393.895 563.214 394.483 563.214C395.095 563.214 395.623 563.358 396.067 563.646C396.523 563.934 396.877 564.336 397.129 564.852C397.381 565.368 397.507 565.974 397.507 566.67C397.507 567.366 397.381 567.972 397.129 568.488C396.877 569.004 396.523 569.406 396.067 569.694C395.623 569.982 395.095 570.126 394.483 570.126ZM394.483 568.866C394.963 568.866 395.341 568.674 395.617 568.29C395.893 567.906 396.031 567.366 396.031 566.67C396.031 565.974 395.893 565.434 395.617 565.05C395.341 564.666 394.963 564.474 394.483 564.474C394.015 564.474 393.637 564.666 393.349 565.05C393.073 565.422 392.935 565.962 392.935 566.67C392.935 567.378 393.073 567.924 393.349 568.308C393.637 568.68 394.015 568.866 394.483 568.866Z" fill="#292929"/>
</g>
<path d="M407 284H21V464H407V284Z" fill="#E9E9E9"/>
<path d="M138.808 90.5811V78.8811L139.834 79.9431H136.144V77.9811H141.148V90.5811H138.808ZM148.903 90.7611C147.907 90.7611 147.007 90.5091 146.203 90.0051C145.411 89.5011 144.787 88.7691 144.331 87.8091C143.875 86.8371 143.647 85.6611 143.647 84.2811C143.647 82.9011 143.875 81.7311 144.331 80.7711C144.787 79.7991 145.411 79.0611 146.203 78.5571C147.007 78.0531 147.907 77.8011 148.903 77.8011C149.911 77.8011 150.811 78.0531 151.603 78.5571C152.395 79.0611 153.019 79.7991 153.475 80.7711C153.943 81.7311 154.177 82.9011 154.177 84.2811C154.177 85.6611 153.943 86.8371 153.475 87.8091C153.019 88.7691 152.395 89.5011 151.603 90.0051C150.811 90.5091 149.911 90.7611 148.903 90.7611ZM148.903 88.7271C149.491 88.7271 150.001 88.5711 150.433 88.2591C150.865 87.9351 151.201 87.4431 151.441 86.7831C151.693 86.1231 151.819 85.2891 151.819 84.2811C151.819 83.2611 151.693 82.4271 151.441 81.7791C151.201 81.1191 150.865 80.6331 150.433 80.3211C150.001 79.9971 149.491 79.8351 148.903 79.8351C148.339 79.8351 147.835 79.9971 147.391 80.3211C146.959 80.6331 146.617 81.1191 146.365 81.7791C146.125 82.4271 146.005 83.2611 146.005 84.2811C146.005 85.2891 146.125 86.1231 146.365 86.7831C146.617 87.4431 146.959 87.9351 147.391 88.2591C147.835 88.5711 148.339 88.7271 148.903 88.7271ZM165.485 90.7071C164.561 90.7071 163.727 90.5031 162.983 90.0951C162.251 89.6751 161.675 89.0991 161.255 88.3671C160.835 87.6351 160.625 86.7711 160.625 85.7751C160.625 84.7791 160.835 83.9151 161.255 83.1831C161.675 82.4511 162.251 81.8811 162.983 81.4731C163.727 81.0651 164.561 80.8611 165.485 80.8611C166.289 80.8611 167.009 81.0411 167.645 81.4011C168.281 81.7491 168.785 82.2831 169.157 83.0031C169.529 83.7231 169.715 84.6471 169.715 85.7751C169.715 86.8911 169.535 87.8151 169.175 88.5471C168.815 89.2671 168.317 89.8071 167.681 90.1671C167.045 90.5271 166.313 90.7071 165.485 90.7071ZM165.755 88.7811C166.295 88.7811 166.775 88.6611 167.195 88.4211C167.627 88.1811 167.969 87.8331 168.221 87.3771C168.485 86.9211 168.617 86.3871 168.617 85.7751C168.617 85.1511 168.485 84.6171 168.221 84.1731C167.969 83.7171 167.627 83.3691 167.195 83.1291C166.775 82.8891 166.295 82.7691 165.755 82.7691C165.215 82.7691 164.729 82.8891 164.297 83.1291C163.877 83.3691 163.535 83.7171 163.271 84.1731C163.019 84.6171 162.893 85.1511 162.893 85.7751C162.893 86.3871 163.019 86.9211 163.271 87.3771C163.535 87.8331 163.877 88.1811 164.297 88.4211C164.729 88.6611 165.215 88.7811 165.755 88.7811ZM168.671 90.5811V88.3131L168.761 85.7571L168.581 83.2011V77.2251H170.813V90.5811H168.671ZM178.293 90.7071C177.225 90.7071 176.289 90.4971 175.485 90.0771C174.693 89.6451 174.075 89.0571 173.631 88.3131C173.199 87.5691 172.983 86.7231 172.983 85.7751C172.983 84.8151 173.193 83.9691 173.613 83.2371C174.045 82.4931 174.633 81.9111 175.377 81.4911C176.133 81.0711 176.991 80.8611 177.951 80.8611C178.887 80.8611 179.721 81.0651 180.453 81.4731C181.185 81.8811 181.761 82.4571 182.181 83.2011C182.601 83.9451 182.811 84.8211 182.811 85.8291C182.811 85.9251 182.805 86.0331 182.793 86.1531C182.793 86.2731 182.787 86.3871 182.775 86.4951H174.765V85.0011H181.587L180.705 85.4691C180.717 84.9171 180.603 84.4311 180.363 84.0111C180.123 83.5911 179.793 83.2611 179.373 83.0211C178.965 82.7811 178.491 82.6611 177.951 82.6611C177.399 82.6611 176.913 82.7811 176.493 83.0211C176.085 83.2611 175.761 83.5971 175.521 84.0291C175.293 84.4491 175.179 84.9471 175.179 85.5231V85.8831C175.179 86.4591 175.311 86.9691 175.575 87.4131C175.839 87.8571 176.211 88.1991 176.691 88.4391C177.171 88.6791 177.723 88.7991 178.347 88.7991C178.887 88.7991 179.373 88.7151 179.805 88.5471C180.237 88.3791 180.621 88.1151 180.957 87.7551L182.163 89.1411C181.731 89.6451 181.185 90.0351 180.525 90.3111C179.877 90.5751 179.133 90.7071 178.293 90.7071ZM190.163 90.5811V77.9811H192.089L199.991 87.6831H199.037V77.9811H201.359V90.5811H199.433L191.531 80.8791H192.485V90.5811H190.163ZM208.839 90.7071C207.855 90.7071 206.979 90.4971 206.211 90.0771C205.443 89.6451 204.837 89.0571 204.393 88.3131C203.949 87.5691 203.727 86.7231 203.727 85.7751C203.727 84.8151 203.949 83.9691 204.393 83.2371C204.837 82.4931 205.443 81.9111 206.211 81.4911C206.979 81.0711 207.855 80.8611 208.839 80.8611C209.835 80.8611 210.717 81.0711 211.485 81.4911C212.265 81.9111 212.871 82.4871 213.303 83.2191C213.747 83.9511 213.969 84.8031 213.969 85.7751C213.969 86.7231 213.747 87.5691 213.303 88.3131C212.871 89.0571 212.265 89.6451 211.485 90.0771C210.717 90.4971 209.835 90.7071 208.839 90.7071ZM208.839 88.7811C209.391 88.7811 209.883 88.6611 210.315 88.4211C210.747 88.1811 211.083 87.8331 211.323 87.3771C211.575 86.9211 211.701 86.3871 211.701 85.7751C211.701 85.1511 211.575 84.6171 211.323 84.1731C211.083 83.7171 210.747 83.3691 210.315 83.1291C209.883 82.8891 209.397 82.7691 208.857 82.7691C208.305 82.7691 207.813 82.8891 207.381 83.1291C206.961 83.3691 206.625 83.7171 206.373 84.1731C206.121 84.6171 205.995 85.1511 205.995 85.7751C205.995 86.3871 206.121 86.9211 206.373 87.3771C206.625 87.8331 206.961 88.1811 207.381 88.4211C207.813 88.6611 208.299 88.7811 208.839 88.7811ZM218.413 90.5811L214.291 80.9691H216.631L220.177 89.4471H219.025L222.697 80.9691H224.857L220.735 90.5811H218.413ZM230.517 90.7071C229.449 90.7071 228.513 90.4971 227.709 90.0771C226.917 89.6451 226.299 89.0571 225.855 88.3131C225.423 87.5691 225.207 86.7231 225.207 85.7751C225.207 84.8151 225.417 83.9691 225.837 83.2371C226.269 82.4931 226.857 81.9111 227.601 81.4911C228.357 81.0711 229.215 80.8611 230.175 80.8611C231.111 80.8611 231.945 81.0651 232.677 81.4731C233.409 81.8811 233.985 82.4571 234.405 83.2011C234.825 83.9451 235.035 84.8211 235.035 85.8291C235.035 85.9251 235.029 86.0331 235.017 86.1531C235.017 86.2731 235.011 86.3871 234.999 86.4951H226.989V85.0011H233.811L232.929 85.4691C232.941 84.9171 232.827 84.4311 232.587 84.0111C232.347 83.5911 232.017 83.2611 231.597 83.0211C231.189 82.7811 230.715 82.6611 230.175 82.6611C229.623 82.6611 229.137 82.7811 228.717 83.0211C228.309 83.2611 227.985 83.5971 227.745 84.0291C227.517 84.4491 227.403 84.9471 227.403 85.5231V85.8831C227.403 86.4591 227.535 86.9691 227.799 87.4131C228.063 87.8571 228.435 88.1991 228.915 88.4391C229.395 88.6791 229.947 88.7991 230.571 88.7991C231.111 88.7991 231.597 88.7151 232.029 88.5471C232.461 88.3791 232.845 88.1151 233.181 87.7551L234.387 89.1411C233.955 89.6451 233.409 90.0351 232.749 90.3111C232.101 90.5751 231.357 90.7071 230.517 90.7071ZM249.329 80.8611C250.097 80.8611 250.775 81.0111 251.363 81.3111C251.963 81.6111 252.431 82.0731 252.767 82.6971C253.103 83.3091 253.271 84.1011 253.271 85.0731V90.5811H251.021V85.3611C251.021 84.5091 250.835 83.8731 250.463 83.4531C250.091 83.0331 249.557 82.8231 248.861 82.8231C248.369 82.8231 247.931 82.9311 247.547 83.1471C247.175 83.3631 246.881 83.6811 246.665 84.1011C246.461 84.5211 246.359 85.0551 246.359 85.7031V90.5811H244.109V85.3611C244.109 84.5091 243.923 83.8731 243.551 83.4531C243.179 83.0331 242.645 82.8231 241.949 82.8231C241.457 82.8231 241.019 82.9311 240.635 83.1471C240.263 83.3631 239.969 83.6811 239.753 84.1011C239.549 84.5211 239.447 85.0551 239.447 85.7031V90.5811H237.197V80.9691H239.339V83.5251L238.961 82.7691C239.285 82.1451 239.753 81.6711 240.365 81.3471C240.989 81.0231 241.697 80.8611 242.489 80.8611C243.389 80.8611 244.169 81.0831 244.829 81.5271C245.501 81.9711 245.945 82.6431 246.161 83.5431L245.279 83.2371C245.591 82.5171 246.107 81.9411 246.827 81.5091C247.547 81.0771 248.381 80.8611 249.329 80.8611ZM261.474 90.7071C260.658 90.7071 259.932 90.5271 259.296 90.1671C258.66 89.8071 258.156 89.2671 257.784 88.5471C257.424 87.8151 257.244 86.8911 257.244 85.7751C257.244 84.6471 257.43 83.7231 257.802 83.0031C258.186 82.2831 258.696 81.7491 259.332 81.4011C259.98 81.0411 260.694 80.8611 261.474 80.8611C262.422 80.8611 263.256 81.0651 263.976 81.4731C264.708 81.8811 265.284 82.4511 265.704 83.1831C266.136 83.9151 266.352 84.7791 266.352 85.7751C266.352 86.7711 266.136 87.6351 265.704 88.3671C265.284 89.0991 264.708 89.6751 263.976 90.0951C263.256 90.5031 262.422 90.7071 261.474 90.7071ZM256.146 90.5811V77.2251H258.396V83.2011L258.216 85.7571L258.288 88.3131V90.5811H256.146ZM261.222 88.7811C261.762 88.7811 262.242 88.6611 262.662 88.4211C263.094 88.1811 263.436 87.8331 263.688 87.3771C263.94 86.9211 264.066 86.3871 264.066 85.7751C264.066 85.1511 263.94 84.6171 263.688 84.1731C263.436 83.7171 263.094 83.3691 262.662 83.1291C262.242 82.8891 261.762 82.7691 261.222 82.7691C260.682 82.7691 260.196 82.8891 259.764 83.1291C259.332 83.3691 258.99 83.7171 258.738 84.1731C258.486 84.6171 258.36 85.1511 258.36 85.7751C258.36 86.3871 258.486 86.9211 258.738 87.3771C258.99 87.8331 259.332 88.1811 259.764 88.4211C260.196 88.6611 260.682 88.7811 261.222 88.7811ZM268.486 90.5811V80.9691H270.628V83.6151L270.376 82.8411C270.664 82.1931 271.114 81.7011 271.726 81.3651C272.35 81.0291 273.124 80.8611 274.048 80.8611V83.0031C273.952 82.9791 273.862 82.9671 273.778 82.9671C273.694 82.9551 273.61 82.9491 273.526 82.9491C272.674 82.9491 271.996 83.2011 271.492 83.7051C270.988 84.1971 270.736 84.9351 270.736 85.9191V90.5811H268.486ZM280.189 90.7071C279.205 90.7071 278.329 90.4971 277.561 90.0771C276.793 89.6451 276.187 89.0571 275.743 88.3131C275.299 87.5691 275.077 86.7231 275.077 85.7751C275.077 84.8151 275.299 83.9691 275.743 83.2371C276.187 82.4931 276.793 81.9111 277.561 81.4911C278.329 81.0711 279.205 80.8611 280.189 80.8611C281.185 80.8611 282.067 81.0711 282.835 81.4911C283.615 81.9111 284.221 82.4871 284.653 83.2191C285.097 83.9511 285.319 84.8031 285.319 85.7751C285.319 86.7231 285.097 87.5691 284.653 88.3131C284.221 89.0571 283.615 89.6451 282.835 90.0771C282.067 90.4971 281.185 90.7071 280.189 90.7071ZM280.189 88.7811C280.741 88.7811 281.233 88.6611 281.665 88.4211C282.097 88.1811 282.433 87.8331 282.673 87.3771C282.925 86.9211 283.051 86.3871 283.051 85.7751C283.051 85.1511 282.925 84.6171 282.673 84.1731C282.433 83.7171 282.097 83.3691 281.665 83.1291C281.233 82.8891 280.747 82.7691 280.207 82.7691C279.655 82.7691 279.163 82.8891 278.731 83.1291C278.311 83.3691 277.975 83.7171 277.723 84.1731C277.471 84.6171 277.345 85.1511 277.345 85.7751C277.345 86.3871 277.471 86.9211 277.723 87.3771C277.975 87.8331 278.311 88.1811 278.731 88.4211C279.163 88.6611 279.649 88.7811 280.189 88.7811Z" fill="#292929"/>
</g>
<defs>
<filter id="filter0_d_973_607" x="5" y="448" width="418" height="164" filterUnits="userSpaceOnUse" color-interpolation-filters="sRGB">
<feFlood flood-opacity="0" result="BackgroundImageFix"/>
<feColorMatrix in="SourceAlpha" type="matrix" values="0 0 0 0 0 0 0 0 0 0 0 0 0 0 0 0 0 0 127 0" result="hardAlpha"/>
<feOffset/>
<feGaussianBlur stdDeviation="8"/>
<feComposite in2="hardAlpha" operator="out"/>
<feColorMatrix type="matrix" values="0 0 0 0 0 0 0 0 0 0 0 0 0 0 0 0 0 0 0.08 0"/>
<feBlend mode="normal" in2="BackgroundImageFix" result="effect1_dropShadow_973_607"/>
<feBlend mode="normal" in="SourceGraphic" in2="effect1_dropShadow_973_607" result="shape"/>
</filter>
<clipPath id="clip0_973_607">
<rect width="428" height="636" fill="white"/>
</clipPath>
</defs>
</svg>
