<svg width="35" height="35" viewBox="0 0 35 35" fill="none" xmlns="http://www.w3.org/2000/svg">
<path d="M17.5835 32.0832C25.6376 32.0832 32.1668 25.554 32.1668 17.4998C32.1668 9.44568 25.6376 2.9165 17.5835 2.9165C9.52933 2.9165 3.00015 9.44568 3.00015 17.4998C3.00015 25.554 9.52933 32.0832 17.5835 32.0832Z" stroke="#FE5433" stroke-width="3" stroke-linecap="round" stroke-linejoin="round"/>
<path d="M12.9999 13.1249C13.3428 12.1502 14.0195 11.3283 14.9103 10.8048C15.801 10.2813 16.8483 10.09 17.8666 10.2646C18.885 10.4393 19.8086 10.9687 20.474 11.7592C21.1394 12.5496 21.5035 13.55 21.502 14.5832C21.502 17.4999 17.127 18.9582 17.127 18.9582" stroke="#FE5433" stroke-width="3" stroke-linecap="round" stroke-linejoin="round"/>
<path d="M17 24.7915H17.0146" stroke="#FE5433" stroke-width="3" stroke-linecap="round" stroke-linejoin="round"/>
</svg>
